<?xml  version="1.0" encoding="UTF-8"?>
<!DOCTYPE svg PUBLIC "-//W3C//DTD SVG 1.0//EN" "http://www.w3.org/TR/2001/REC-SVG-20010904/DTD/svg10.dtd" >
<svg xmlns="http://www.w3.org/2000/svg" >
<metadata>
<version>1.0</version>
<id><![CDATA[Feel Script W00 Regular]]></id>
<vendor>Monotype Imaging Inc.</vendor>
<credits>
<name>Fonts.com WebFonts</name>
<URL>http://webfonts.fonts.com</URL>
<role>Home of the Web fonts</role>
</credits>
<license>
<URL>http://webfonts.fonts.com/Legal</URL>
</license>
<copyright></copyright>
<trademark></trademark>
<licensee>
<name></name>
</licensee>
</metadata>
<defs >
<font horiz-adv-x="494" id="390f3de6-392d-4efa-a17d-66b4424dff94">
<font-face font-family="" panose-1="2 0 5 5 0 0 0 2 0 2" ascent="578" descent="-422" units-per-em="1000" alphabetic="0">
</font-face>
<missing-glyph horiz-adv-x="180" />

<glyph unicode="&#xA;" />
<glyph unicode="&#xD;" />
<glyph unicode=" " horiz-adv-x="180" />
<glyph unicode="!" horiz-adv-x="251" d="M111 60Q123 60 128 51T134 31Q134 16 125 2T99 -12Q88 -12 82 -3T76 17Q76 32 85 46T111 60ZM102 132Q102 153 102 198T104 301T108 428T113 566T121 700T131 817Q131 826 137 830T153 834Q164 834 177 829Q166 742 156 644T137 452T125 273T120 131Q120 125 116 125Q113 125 109 127T102 132Z"  />
<glyph unicode="&quot;" horiz-adv-x="188" d="M158 488Q158 479 155 455T146 405T137 361T129 341Q127 341 124 343T120 350Q120 362 121 375Q121 386 121 400T122 430Q122 444 121 459T120 491Q120 500 124 504T135 508Q143 508 150 503T158 488ZM88 488Q88 479 85 455T76 405T67 361T59 341Q57 341 54 343T50 350Q50 362 51 375Q51 386 51 400T52 430Q52 444 51 459T50 491Q50 500 54 504T65 508Q73 508 80 503T88 488Z"  />
<glyph unicode="#" horiz-adv-x="321" d="M151 179H221V229H151V179ZM241 249H303Q320 249 325 248T331 240Q331 233 330 229H241V179H303Q320 179 325 178T331 170Q331 163 330 159H241V51Q241 37 230 37Q224 37 221 38V159H151V51Q151 37 140 37Q134 37 131 38V159H34Q20 159 20 170Q20 176 21 179H131V229H34Q20 229 20 240Q20 246 21 249H131V340Q131 357 132 362T140 368Q147 368 151 367V249H221V340Q221 357 222 362T230 368Q237 368 241 367V249Z"  />
<glyph unicode="$" horiz-adv-x="261" d="M86 309Q86 289 99 274T132 242L150 355Q142 357 137 357Q117 357 102 344T86 309ZM187 98Q187 125 173 145T139 182L118 23Q144 24 165 42T187 98ZM166 443Q166 444 167 446Q169 450 171 450Q173 450 178 447Q177 439 175 428Q173 419 171 406T167 376Q190 374 206 360T223 318Q223 287 196 285Q194 311 185 326T163 350L146 231Q161 219 176 207T204 180T224 148T232 109Q232 85 222 66T196 34T159 15T117 8L110 -50Q110 -55 107 -57T99 -60Q92 -60 92 -54Q94 -39 96 -24T100 9Q68 14 45 35T22 97Q22 112 27 126T43 151T67 168T98 175Q106 175 110 170T115 158Q115 152 110 147Q104 152 93 152Q69 152 55 139T41 103Q41 67 59 48T101 24Q106 65 112 108T125 193Q99 213 79 234T58 284Q58 305 66 322T89 351T120 369T154 377L166 443Z"  />
<glyph unicode="%" horiz-adv-x="431" d="M316 253Q316 252 317 252Q319 251 319 251Q319 249 316 248Q302 241 292 226T274 192T262 150T258 106Q258 67 272 38T317 8Q334 8 347 18T368 44T381 81T386 123Q386 143 382 161T371 194T352 218T326 227Q313 227 306 222T293 212Q288 205 286 197Q284 197 282 197T280 199Q286 216 300 227T329 238Q348 238 362 229T385 204T399 168T404 127Q404 102 398 78T381 35T353 3T314 -9Q291 -9 275 0T248 24T232 60T227 103Q227 128 233 153T250 199T278 234T316 253ZM103 437Q89 430 79 415T61 381T49 339T45 295Q45 256 59 227T104 197Q121 197 134 207T155 233T168 270T173 312Q173 332 169 350T158 383T139 407T113 416Q100 416 93 411T80 401Q75 394 73 386Q71 386 69 386T67 388Q73 405 87 416T116 427Q126 427 141 425T175 420T214 415T254 413Q280 413 301 418T336 438L338 441Q340 446 346 446Q349 446 352 443T355 435Q355 430 350 423Q330 398 301 351T237 243T162 113T79 -27Q74 -33 68 -33Q58 -33 57 -20Q62 -9 80 22T124 96T180 188T238 282T290 365T326 423Q312 413 291 410T244 406Q221 406 198 408T154 414Q173 399 182 373T191 316Q191 291 185 267T168 224T140 192T101 180Q78 180 62 189T35 213T19 249T14 292Q14 317 20 342T37 388T65 423T103 442Q106 442 106 441Q106 440 103 437Z"  />
<glyph unicode="&amp;" horiz-adv-x="484" d="M201 501Q201 489 201 477T203 451Q236 486 258 518T281 584Q281 597 274 604T257 612Q239 612 220 586T201 501ZM288 328Q256 328 230 315Q250 243 280 170T352 33Q382 56 401 92T420 180Q420 216 409 243T380 289T337 318T288 328ZM117 134Q119 205 145 250T209 319Q195 368 188 415Q164 389 141 361T100 300T70 232T58 153Q58 112 72 82T110 31T164 1T227 -9Q288 -9 339 24Q297 87 266 159T213 305Q180 284 156 241T127 132Q126 131 125 131Q124 130 121 130Q117 130 117 134ZM300 597Q300 554 272 515T205 434Q208 409 213 383T226 328Q259 342 292 342Q320 342 346 332T392 302T425 253T437 186Q437 132 416 91T360 20Q386 -18 414 -51T474 -110Q479 -115 479 -116Q479 -119 473 -119Q438 -96 407 -64T348 10Q314 -15 274 -27T194 -40Q158 -40 124 -29T65 4T24 59T8 138Q8 184 24 225T67 302T124 371T186 433Q182 456 181 478T179 520Q179 553 186 577T204 616T229 639T256 647Q274 647 287 634T300 597Z"  />
<glyph unicode="&apos;" horiz-adv-x="118" d="M88 488Q88 479 85 455T76 405T67 361T59 341Q57 341 54 343T50 350Q50 362 51 375Q51 386 51 400T52 430Q52 444 51 459T50 491Q50 500 54 504T65 508Q73 508 80 503T88 488Z"  />
<glyph unicode="(" horiz-adv-x="259" d="M341 -291Q257 -277 196 -227T94 -102T34 64T14 255Q14 358 35 460T98 648T200 799T341 889L339 878Q277 853 228 793T146 649T95 467T77 268Q77 176 92 88T140 -75T221 -203T339 -280L341 -291Z"  />
<glyph unicode=")" horiz-adv-x="259" d="M-118 889Q-34 875 27 825T129 700T189 534T209 343Q209 240 188 138T125 -50T23 -201T-118 -291L-116 -280Q-54 -255 -5 -195T77 -51T128 130T146 330Q146 422 131 510T83 673T2 801T-116 878L-118 889Z"  />
<glyph unicode="*" horiz-adv-x="202" d="M42 390Q47 390 50 388T58 384T70 379T89 376Q84 385 77 392T62 405T50 416T45 427Q45 435 51 440T64 445Q74 445 77 437T83 419T88 397T98 378Q106 385 108 396T113 418T119 436T134 444Q142 444 146 439T150 427Q150 420 145 415T134 404T119 392T105 376Q117 377 124 379T137 385T145 390T154 392Q162 392 166 386T171 373Q171 365 167 360T154 354Q149 354 145 356T136 361T124 366T104 369Q110 357 118 350T133 337T145 326T150 314Q150 308 146 303T134 298Q123 298 119 305T113 323T109 345T98 364Q90 356 88 345T84 323T77 304T62 296Q54 296 50 301T45 313Q45 320 50 325T62 336T77 350T91 369Q79 368 72 365T59 359T50 354T42 352Q34 352 30 358T25 371Q25 379 29 384T42 390Z"  />
<glyph unicode="+" horiz-adv-x="301" d="M166 209H248Q265 209 270 208T276 200Q276 193 275 189H166V91Q166 77 155 77Q149 77 146 78V189H49Q35 189 35 200Q35 206 36 209H146V290Q146 307 147 312T155 318Q162 318 166 317V209Z"  />
<glyph unicode="&#x2c;" horiz-adv-x="161" d="M82 60Q94 60 99 51T105 29Q105 3 96 -18T74 -55T46 -80T18 -89L21 -83Q37 -78 48 -69T65 -50T74 -29T78 -11Q76 -11 74 -11T70 -12Q59 -12 53 -3T47 17Q47 32 56 46T82 60Z"  />
<glyph unicode="-" horiz-adv-x="299" d="M46 110Q54 143 69 154T103 166Q123 166 146 159T192 152Q207 152 220 157T244 180Q235 144 221 132T187 119Q166 119 142 127T95 136Q81 136 69 131T46 110Z"  />
<glyph unicode="." horiz-adv-x="186" d="M85 60Q97 60 102 51T108 31Q108 16 99 2T73 -12Q62 -12 56 -3T50 17Q50 32 59 46T85 60Z"  />
<glyph unicode="/" horiz-adv-x="466" d="M14 -145Q18 -136 48 -88T123 32T226 193T343 373T460 552T561 708T633 819T663 864Q667 869 671 869Q679 869 679 858Q679 851 675 846Q665 833 637 792T569 689T480 551T378 392T274 228T176 74T94 -58T36 -152Q31 -158 25 -158Q15 -158 14 -145Z"  />
<glyph unicode="0" horiz-adv-x="321" d="M102 343Q82 307 72 261T61 169Q61 136 67 107T85 55T116 19T161 5Q189 5 210 22T246 68T267 132T274 205Q274 240 268 272T250 330T218 371T174 387Q153 387 141 379T121 362Q113 351 109 337Q102 337 102 343ZM160 413V412Q160 411 160 411T161 409Q161 405 158 404Q139 394 127 379Q138 388 152 393T181 399Q211 399 233 384T270 342T292 281T299 211Q299 169 290 127T262 52T216 -2T154 -23Q116 -23 89 -7T43 37T17 100T8 174Q8 225 22 267T58 341T107 391T160 413Z"  />
<glyph unicode="1" horiz-adv-x="161" d="M-21 218Q-14 223 2 238T37 274T76 322T109 378Q112 388 115 396T122 413Q124 416 127 418T134 420Q139 420 139 414Q132 355 128 293Q124 239 121 173T118 41V0Q118 -8 110 -12T94 -17Q87 -17 82 -14T76 -5Q75 9 75 23T75 53Q75 87 76 124T80 197T87 267T97 331Q82 305 54 272T-18 207Q-19 206 -21 206Q-23 206 -23 209Q-23 213 -22 215Q-22 217 -21 218Z"  />
<glyph unicode="2" horiz-adv-x="307" d="M4 -8Q30 -8 54 2T100 32Q81 40 62 44T23 49Q-3 49 -15 38T-28 15Q-28 6 -20 -1T4 -8ZM160 431Q225 431 253 400T281 322Q281 290 271 254T241 182T197 113T143 52Q156 47 168 42T194 32T225 24T265 21Q294 21 314 39T335 91Q335 96 333 102T329 110Q329 111 331 112Q333 114 337 114Q340 114 343 109T346 88Q346 65 337 47T313 16T277 -5T234 -12Q205 -12 175 1T113 27Q85 7 57 -5T0 -17Q-20 -17 -29 -9T-39 12Q-39 31 -14 50T61 70Q81 70 97 67T126 58Q148 83 166 113T196 176T216 240T223 302Q223 347 205 376T146 405Q123 405 107 397T79 374T63 341T57 302Q57 276 65 262T81 242Q81 241 82 240Q82 239 82 238T83 236Q83 231 77 231Q75 232 69 235T56 247T44 269T39 308Q39 333 49 355T75 394T114 421T160 431Z"  />
<glyph unicode="3" horiz-adv-x="264" d="M134 412Q184 412 206 388T229 332Q229 303 213 274T169 226Q207 211 227 179T247 110Q247 74 235 48T202 5T157 -20T105 -28Q82 -28 61 -22T24 -5T-3 24T-13 63Q-13 97 9 118T64 139Q70 139 79 138T96 134T110 129T116 122Q116 118 110 118Q107 117 105 118L95 123Q90 125 84 126T69 128Q42 128 22 110T2 66Q2 49 9 36T29 13T58 -2T92 -7Q112 -7 131 0T166 21T191 57T201 111Q201 144 183 171T124 207Q110 204 94 204Q77 204 71 206T64 214Q64 221 79 228T116 236Q123 236 129 236T141 234Q166 248 177 271T189 317Q189 348 171 372T119 396Q101 396 89 390T69 375T58 354T54 331Q54 313 62 303Q61 300 61 298Q59 293 58 293Q56 293 54 295Q38 312 38 336Q38 364 62 388T134 412Z"  />
<glyph unicode="4" horiz-adv-x="322" d="M186 142Q193 142 199 142T213 141Q215 211 221 273T235 389Q233 384 217 352T176 277T120 194T57 131Q93 137 125 139T186 142ZM210 -8Q210 27 210 60T212 125Q199 126 188 126T166 127Q132 127 96 123T11 107Q2 110 2 115Q2 119 8 121Q41 135 73 170T136 249T193 338T241 418Q242 420 245 423Q247 425 250 426T259 428Q264 428 267 428T274 427Q278 426 280 426Q272 354 267 282T260 138Q272 137 282 136T301 133Q311 132 311 128Q311 126 309 125T304 121L298 117L259 121Q257 86 257 52T257 -17Q252 -22 238 -22Q228 -22 220 -19T210 -8Z"  />
<glyph unicode="5" horiz-adv-x="277" d="M36 403Q37 409 43 415T54 421Q75 413 105 408T168 403Q194 403 216 407T255 420L261 417Q253 402 239 392T207 376T169 367T129 364Q85 364 57 374Q56 362 56 350Q56 339 56 328T55 308Q54 299 53 289T51 271Q49 261 48 252Q68 265 89 271T131 277Q157 277 180 268T222 242T251 201T262 146Q262 102 247 70T209 18T156 -13T98 -23Q53 -23 20 0T-14 66Q-14 85 -7 98T10 120T33 132T54 136Q61 136 69 134T77 128Q77 127 74 124Q73 123 72 123Q64 127 53 127Q30 127 15 109T-1 68Q-1 36 24 17T84 -2Q105 -2 127 6T166 34T195 83T206 157Q206 186 199 206T181 239T154 258T123 264Q101 264 81 255T48 230Q44 224 43 220Q42 216 41 213Q39 213 38 213T34 212Q26 212 26 218Q34 248 38 279T42 340Q42 373 36 403Z"  />
<glyph unicode="6" horiz-adv-x="289" d="M152 217Q117 217 88 188T53 97Q58 52 81 22T151 -8Q173 -8 190 2T218 28T235 64T241 106Q241 127 236 147T219 182T191 207T152 217ZM183 426Q186 426 189 424T192 420Q192 419 189 418Q162 407 138 379T96 312T65 231T51 146Q65 194 100 220T176 247Q202 247 221 237T253 211T272 173T279 128Q279 101 271 74T246 24T204 -11T147 -25Q109 -25 82 -13T37 21T11 71T3 132Q3 175 16 221T53 308T110 380T183 426Z"  />
<glyph unicode="7" horiz-adv-x="285" d="M16 285Q24 285 29 307T36 361Q22 346 15 328T7 298Q7 285 16 285ZM37 385Q37 410 33 433Q33 434 34 436Q36 440 39 440Q42 430 43 419T46 393Q62 406 83 413T132 421Q149 421 164 415T195 401T225 387T259 381Q272 381 282 387T301 400T313 414T319 423Q324 423 328 422Q331 421 334 420T337 415Q272 325 227 215T152 -7Q150 -15 143 -17T129 -19Q119 -19 115 -18Q111 -17 109 -16Q112 8 125 43T157 117T196 197T233 269T262 324T273 351Q273 355 271 355Q248 344 225 344Q205 344 188 350T155 365T124 380T92 387Q67 387 47 370V364Q47 344 45 325T39 290T29 265T14 255Q4 255 -1 265T-6 290Q-6 311 4 337T37 385Z"  />
<glyph unicode="8" horiz-adv-x="271" d="M121 282Q143 302 165 319T208 351Q197 389 176 406T134 423Q112 423 96 408T80 369Q80 346 91 325T121 282ZM199 76Q199 101 189 123T164 164T130 202T96 241Q61 206 44 166T27 90Q27 66 34 48T54 18T82 1T114 -5Q130 -5 145 0T173 16T192 41T199 76ZM51 348Q51 392 75 414T131 437Q159 437 185 418T223 361L266 390Q270 390 272 384Q273 381 273 379Q238 356 201 329T129 271Q147 251 167 231T205 189T234 145T245 98Q245 67 233 44T202 4T158 -20T108 -28Q87 -28 68 -22T35 -4T11 26T2 70Q2 112 24 160T88 251Q72 272 62 295T51 348Z"  />
<glyph unicode="9" horiz-adv-x="319" d="M250 281Q254 298 258 313T266 341Q251 377 224 394T167 412Q147 412 128 405T94 382T70 346T61 297Q61 278 66 259T83 224T110 198T149 188Q183 188 207 215T250 281ZM233 -18Q229 -20 225 -21Q221 -22 218 -22T209 -23Q201 -23 195 -19T188 -3Q188 6 192 29T203 85T219 155T237 230Q220 202 195 181T133 159Q101 159 79 170T42 200T20 241T13 287Q13 319 25 345T58 391T105 420T158 431Q190 431 220 414T271 357Q274 368 276 376T281 390Q291 416 298 424T312 433Q315 433 317 432Q300 373 287 317T263 206T246 95T233 -18Z"  />
<glyph unicode=":" horiz-adv-x="212" d="M115 260Q127 260 132 251T138 231Q138 216 129 202T103 188Q92 188 86 197T80 217Q80 232 89 246T115 260ZM111 60Q123 60 128 51T134 31Q134 16 125 2T99 -12Q88 -12 82 -3T76 17Q76 32 85 46T111 60Z"  />
<glyph unicode=";" horiz-adv-x="161" d="M85 260Q97 260 102 251T108 231Q108 216 99 202T73 188Q62 188 56 197T50 217Q50 232 59 246T85 260ZM82 60Q94 60 99 51T105 29Q105 3 96 -18T74 -55T46 -80T18 -89L21 -83Q37 -78 48 -69T65 -50T74 -29T78 -11Q76 -11 74 -11T70 -12Q59 -12 53 -3T47 17Q47 32 56 46T82 60Z"  />
<glyph unicode="=" horiz-adv-x="301" d="M49 144Q35 144 35 155Q35 161 36 164H248Q265 164 270 163T276 155Q276 148 275 144H49ZM49 219Q35 219 35 230Q35 236 36 239H248Q265 239 270 238T276 230Q276 223 275 219H49Z"  />
<glyph unicode="?" horiz-adv-x="389" d="M259 486Q221 455 180 440T99 425Q57 425 28 435T-21 464T-50 507T-59 561Q-59 610 -34 664T35 765T140 841T274 871Q310 871 342 861T398 831T436 781T450 710Q450 672 431 628T382 537T318 441T254 345T205 252T185 168Q185 144 195 133T222 121Q244 121 273 140T329 196L331 198Q334 201 335 201Q338 201 338 192Q300 145 265 126T202 106Q168 106 148 130T128 191Q128 231 149 275T201 366T269 459T337 551T390 640T411 721Q411 753 400 777T368 818T320 843T263 851Q197 851 142 824T46 754T-18 662T-41 567Q-41 540 -33 517T-6 477T40 450T108 440Q146 440 183 454T248 494L254 490Q255 489 256 489T258 487L259 486ZM211 60Q223 60 228 51T234 31Q234 16 225 2T199 -12Q188 -12 182 -3T176 17Q176 32 185 46T211 60Z"  />
<glyph unicode="@" horiz-adv-x="471" d="M181 -4Q195 -4 207 5T228 29T244 64T255 106Q257 129 259 150T262 192Q260 230 250 257T222 284Q204 284 190 266T166 219T151 156T146 90Q146 51 154 24T181 -4ZM425 -15Q387 -71 331 -99T217 -127Q176 -127 138 -113T69 -68T21 6T3 111Q3 180 24 232T78 318T154 370T239 388Q275 388 308 376T366 339T407 277T422 189Q422 136 412 97T385 31T348 -7T310 -20Q287 -20 271 0T254 60Q241 25 222 2T177 -22Q156 -22 141 -13T116 11T102 46T97 90Q97 124 106 160T131 226T170 275T220 295Q236 295 247 284T264 253Q274 255 279 255Q292 255 300 249T309 229Q309 217 307 196T302 151T297 101T294 54Q294 25 303 11T326 -4Q338 -4 351 7T376 42T395 98T403 177Q403 222 388 256T348 314T292 350T226 363Q190 363 156 349T94 304T50 227T33 116Q33 60 49 18T93 -53T155 -96T229 -110Q280 -110 329 -86T416 -11L425 -15Z"  />
<glyph unicode="A" horiz-adv-x="1072" d="M868 432Q863 421 857 412T845 392L863 374Q864 388 865 403T868 432ZM860 307Q860 319 860 331T862 355L838 379Q824 354 809 329T777 279L860 307ZM1036 928Q1017 928 1002 901T974 827T952 720T935 594Q961 651 981 702T1016 794T1037 867T1045 914Q1045 928 1036 928ZM1038 -69Q1038 -35 1032 7T1011 95T974 190T918 286V273Q918 185 923 105T938 -35T965 -132T1003 -168Q1019 -168 1028 -141T1038 -69ZM406 205Q499 205 585 225T757 273Q794 329 828 388Q784 429 729 464T607 524T458 564T281 579Q220 579 173 565T93 526T43 471T26 407Q26 370 48 334T116 270T235 223T406 205ZM291 591Q385 591 465 577T612 537T735 477T835 401Q845 418 854 434T871 466Q881 560 897 646T936 799T984 905T1039 945Q1049 945 1053 935T1057 919Q1057 899 1049 863T1024 780T984 676T931 557Q926 496 923 437T918 325Q982 344 1044 357T1170 370Q1237 370 1277 361T1317 338Q1317 333 1312 329Q1305 333 1295 337T1270 346T1231 353T1176 356Q1115 356 1051 342T921 305Q955 258 979 209T1018 113T1040 22T1047 -59Q1047 -119 1032 -155T990 -191Q955 -191 930 -158T889 -68T866 64T858 224Q858 238 858 253T859 283Q833 274 807 265T754 245Q697 160 633 84T498 -49T353 -140T201 -174Q149 -174 99 -159T8 -116T-56 -49T-81 38Q-81 42 -81 45T-80 53L-72 50V42Q-72 -5 -51 -42T6 -105T90 -144T192 -158Q268 -158 341 -127T482 -41T613 85T732 237Q632 200 532 172T330 143Q246 143 182 164T73 220T7 299T-16 387Q-16 426 2 463T59 528T154 574T291 591Z"  />
<glyph unicode="B" horiz-adv-x="906" d="M556 331Q603 331 646 350Q634 352 622 353T595 355Q561 355 545 351L544 331H556ZM663 729Q638 716 621 699T591 658Q577 631 570 604T558 548T553 490T550 432L546 363Q556 363 566 363T589 364Q609 364 626 362T661 357Q692 374 716 400T756 457T782 525T791 598Q791 653 771 706T706 802T592 871T426 897Q303 897 212 860T59 763T-32 632T-62 489Q-62 439 -47 394T-1 316T75 262T182 242Q231 242 269 253T336 282T385 321T418 362Q419 362 422 361T425 359Q406 319 377 293T313 250T241 226T167 219Q102 219 53 241T-31 302T-82 391T-100 496Q-100 568 -69 642T28 777T194 875T433 913Q544 913 625 886T758 816T836 717T861 604Q861 565 850 528T818 457T766 396T695 349Q738 336 769 313T820 261T851 198T861 130Q861 86 846 45T802 -30T731 -83T635 -103Q617 -103 599 -101T564 -90T530 -68T497 -31Q499 -28 500 -24T503 -20Q506 -20 510 -26Q534 -60 563 -73T624 -87Q663 -87 694 -67T748 -13T783 61T796 146Q796 177 789 206T768 262T731 308T677 341Q619 317 543 314Q541 272 538 234T528 157Q514 74 483 6T403 -113T289 -190T143 -218Q93 -218 52 -205T-20 -165T-66 -101T-83 -14Q-83 28 -69 67T-22 127Q-21 128 -18 128Q-12 128 -12 124Q-42 101 -55 68T-68 -3Q-68 -53 -53 -90T-10 -153T55 -191T138 -204Q222 -204 282 -173T382 -89T441 31T464 172L471 321Q453 327 453 336Q453 344 473 351Q475 371 476 389T479 424Q485 481 497 527T528 611T577 679T648 732Q656 736 658 736Q663 736 663 729Z"  />
<glyph unicode="C" horiz-adv-x="662" d="M330 -81Q238 -81 171 -50T61 33T-3 152T-24 294Q-24 383 4 472T87 632T218 748T394 793Q441 793 482 780T555 738T604 669T622 571Q622 530 609 491T570 422T507 373T422 354Q384 354 357 365T312 394T286 437T277 489Q277 523 289 558T323 622T378 672T449 696Q456 696 456 693Q456 692 454 690Q453 689 453 688Q420 682 394 663T350 616T322 558T312 495Q312 470 319 447T340 407T377 380T431 369Q467 369 495 384T542 425T572 484T582 553Q582 608 566 649T523 718T459 760T383 774Q301 774 237 733T130 626T63 476T40 309Q40 236 57 169T111 49T204 -34T336 -66Q391 -66 434 -46T509 5T556 76T573 152Q573 191 562 219T533 266T491 294T441 303Q410 303 379 291T320 257T273 200T245 123Q238 123 233 125T228 135Q237 180 259 214T313 271T381 305T454 317Q487 317 516 308T569 279T605 232T619 164Q619 122 599 79T542 0T451 -58T330 -81Z"  />
<glyph unicode="D" horiz-adv-x="957" d="M135 -136Q215 -136 270 -114T363 -50Q301 -29 241 -9T130 11Q62 11 32 -8T2 -53Q2 -68 11 -83T38 -109T80 -128T135 -136ZM123 -151Q76 -151 41 -143T-17 -122T-51 -92T-63 -57Q-63 -40 -52 -24T-20 6T34 27T109 35Q136 35 167 28T233 11T302 -12T374 -37Q409 8 426 69T449 202Q451 239 453 268T456 323T459 373T464 424Q469 481 480 527T512 611T561 679T633 732Q641 736 643 736Q648 736 648 729Q623 716 606 699T576 658Q562 631 555 604T543 548T538 490T535 432Q532 393 531 362T527 302T521 246T513 187Q489 37 404 -46Q442 -57 478 -64T548 -72Q625 -72 684 -37T782 57T842 192T863 351Q863 449 834 546T746 722T597 848T386 897Q263 897 172 860T19 763T-72 632T-102 489Q-102 439 -87 394T-41 316T35 262T142 242Q191 242 229 253T296 282T345 321T378 362Q379 362 382 361T385 359Q366 319 337 293T273 250T201 226T127 219Q62 219 13 241T-71 302T-122 391T-140 496Q-140 568 -109 642T-12 777T154 875T393 913Q529 913 629 865T796 740T894 565T927 368Q927 280 902 198T827 53T704 -49T533 -87Q501 -87 465 -79T391 -59Q341 -104 274 -127T123 -151Z"  />
<glyph unicode="E" horiz-adv-x="634" d="M302 474Q272 473 245 463Q264 445 286 438T327 431Q344 431 355 436T367 449Q367 459 359 464T340 471T318 473T302 474ZM507 656Q507 624 492 609T465 594Q453 594 453 605Q463 609 471 616Q478 622 483 632T489 659Q489 680 479 698T450 728T409 748T361 755Q333 755 305 745T255 713T220 656T206 570Q206 541 212 520T229 482Q248 487 267 489T309 492Q333 492 348 487T373 476T385 463T388 453Q388 433 368 423T317 413Q291 413 262 421T206 447Q173 430 149 403T108 344T83 275T75 201Q75 151 89 104T133 21T207 -38T311 -61Q366 -61 409 -41T484 10T531 81T548 157Q548 196 537 224T508 271T466 299T416 308Q385 308 354 296T295 262T248 205T220 128H216Q212 128 208 129T203 137Q212 183 234 217T288 275T356 310T429 322Q462 322 491 313T544 284T580 237T594 169Q594 127 574 84T517 5T426 -53T305 -76Q225 -76 168 -54T72 5T16 89T-2 188Q-2 230 10 272T45 351T103 418T182 467Q164 487 153 513T141 574Q141 623 160 659T211 720T280 756T357 768Q387 768 414 761T461 740T494 704T507 656Z"  />
<glyph unicode="F" horiz-adv-x="967" d="M1085 783Q1049 783 1022 772T974 740T939 692T914 634Q939 631 963 631Q1006 631 1039 642T1095 669T1130 705T1142 741Q1142 759 1128 771T1085 783ZM475 -139Q559 -139 619 -108T718 -24T776 96T801 237Q803 267 804 295T806 350Q766 348 727 347T652 346Q627 346 627 359Q627 365 630 376Q639 374 656 373T697 372Q720 372 748 372T807 374Q810 435 816 489Q822 550 845 609Q776 617 700 635T545 671T384 703T223 717Q143 717 84 697T-15 642T-74 566T-94 480Q-94 439 -78 401T-28 334T56 286T172 268Q241 268 300 291T404 356T480 452T522 573Q523 582 529 582Q530 582 531 582T533 581L534 580Q531 509 497 445T411 332T292 255T158 226Q87 226 36 245T-50 295T-100 368T-117 455Q-117 511 -93 568T-20 670T97 744T257 773Q332 773 412 758T570 721T723 678T861 643Q896 712 956 756T1100 801Q1138 801 1155 787T1173 751Q1173 729 1156 704T1107 656T1028 619T925 604H905Q898 578 894 551T887 497Q883 465 882 436T878 377Q907 379 934 379T984 379Q1012 379 1022 378T1032 367Q1032 364 1031 359T1028 348Q1011 351 988 352T937 353Q923 353 908 353T877 352Q875 318 873 286T865 222Q851 139 820 71T740 -48T626 -125T480 -153Q435 -153 391 -143T313 -110T257 -49T235 45Q235 58 251 58Q251 -43 310 -91T475 -139Z"  />
<glyph unicode="G" horiz-adv-x="697" d="M579 321Q585 343 590 364T598 408Q593 405 589 403T579 398V321ZM597 542Q593 542 590 531T585 501T581 461T579 416Q584 419 589 422T600 429Q602 447 603 464T605 499Q605 503 605 510T604 524T602 536T597 542ZM546 -197Q546 -149 545 -105T541 -18Q487 -80 455 -164T422 -352Q422 -364 424 -380T431 -410T447 -434T472 -444Q499 -444 513 -417T535 -350T544 -269T546 -197ZM212 -42Q267 -42 315 -24T403 27T475 102T531 194V242Q531 279 532 314T538 382Q508 373 473 368T398 363Q375 363 353 366T312 376T283 392T272 413Q272 417 274 417Q276 417 279 414Q291 402 307 395T341 384T376 379T409 378Q482 378 539 398Q543 435 549 466T564 519T581 554T601 567Q615 567 618 552T621 522Q621 502 620 482T616 440Q654 469 672 507T691 583Q691 617 677 648T632 704T557 744T451 759Q380 759 321 736T214 674T129 583T68 472T31 352T18 232Q18 176 30 126T66 39T126 -20T212 -42ZM690 92Q639 70 595 33Q597 4 598 -24T599 -81Q599 -114 597 -155T589 -239T573 -322T548 -393T512 -444T463 -463Q440 -463 425 -451T401 -420T389 -380T385 -340Q385 -294 396 -248T428 -158T476 -74T540 1Q538 43 536 82T532 161Q506 113 473 72T400 1T310 -46T204 -63Q137 -63 88 -41T8 21T-39 112T-55 223Q-55 284 -39 348T7 474T81 591T182 687T308 753T457 777Q519 777 566 761T646 717T694 654T711 581Q711 536 687 493T613 417Q604 347 581 276Q583 209 587 154T594 49Q638 83 686 105Q688 106 691 106Q694 106 694 103Q694 101 693 98T690 92Z"  />
<glyph unicode="H" horiz-adv-x="1085" d="M1042 746Q1014 746 991 719T949 647T919 542T899 419Q939 440 973 466T1031 526T1068 601T1082 694Q1082 722 1070 734T1042 746ZM231 -102Q315 -102 375 -71T474 13T532 133T557 274V278Q467 256 383 233T233 180T128 107T88 5Q88 -24 100 -44T132 -78T178 -96T231 -102ZM607 757Q632 757 650 760Q655 765 659 769T668 778Q696 802 721 802Q730 802 732 798T735 792Q735 789 730 782T697 763L681 756Q668 734 661 703T651 641T646 581T643 534Q639 477 637 427T630 329Q681 341 731 355T827 387Q836 459 855 527T901 649T964 735T1042 767Q1068 767 1086 748T1104 693Q1104 639 1089 595T1046 514T980 448T897 394Q895 365 894 336T892 277Q892 218 897 166T914 73T943 10T984 -14Q1019 -14 1041 4T1077 49T1097 106T1105 160H1112Q1111 142 1106 109T1086 42T1044 -17T971 -42Q931 -42 902 -18T855 49T828 146T819 264Q819 287 820 311T824 361Q777 342 728 327T626 297Q625 287 624 278T621 259Q607 176 576 108T496 -11T382 -88T236 -116Q202 -116 172 -110T118 -88T82 -49T68 12Q68 62 87 100T140 166T220 216T321 255T436 285T559 313Q563 374 565 427T572 526Q578 594 592 648T635 742Q610 735 582 731T523 726Q467 726 413 741T304 774T196 807T88 822Q31 822 -14 802T-91 749T-139 675T-156 591Q-156 552 -142 516T-96 452T-18 406T95 389Q134 389 174 401T251 436T318 488T365 555Q366 555 368 556Q372 558 373 558Q376 558 376 556Q376 554 373 548Q356 506 324 473T250 418T164 383T75 371Q12 371 -35 389T-114 438T-162 508T-178 590Q-178 639 -157 687T-92 773T16 836T170 860Q217 860 274 844T391 809T506 773T607 757Z"  />
<glyph unicode="I" horiz-adv-x="668" d="M342 558Q342 599 359 629T406 683T472 722T547 749T623 767T690 779Q713 804 732 817T765 831Q786 831 786 818Q786 812 782 806T770 795Q759 788 742 783T702 773Q681 744 668 709T646 637T633 564T625 495Q624 479 622 451T618 389T613 323T606 264Q594 182 562 118T479 10T363 -58T219 -82Q157 -82 111 -64T34 -15T-12 56T-27 138Q-27 186 -8 234T50 320T144 381T276 405Q306 405 335 399T389 381T434 355T466 324Q466 321 464 321H462Q461 321 461 322Q456 326 441 336T402 357T346 376T273 385Q212 385 163 361T80 299T27 214T8 119Q8 81 20 47T59 -13T127 -55T225 -71Q260 -71 297 -64T370 -38T436 13T491 97T528 220T542 389Q542 448 554 503T587 608T631 698T681 769Q650 763 615 756T546 739T480 714T424 676T385 624T370 553Q370 524 379 496T405 444T446 406T500 388L501 387Q501 386 501 386T502 384Q502 379 492 379Q459 385 432 402T384 444T353 497T342 558Z"  />
<glyph unicode="J" horiz-adv-x="458" d="M543 791Q522 791 504 780T472 749Q522 757 539 766T557 784Q557 787 553 789T543 791ZM302 79Q304 122 307 168T315 265Q254 230 199 184T102 84T36 -33T11 -162Q11 -185 16 -210T32 -257T61 -293T106 -307Q146 -307 176 -286T227 -230T263 -154T285 -68T297 14T302 79ZM414 741Q423 742 431 742T447 745Q469 773 494 789T551 805Q562 805 569 801T577 789Q577 777 566 768T537 752T499 741T462 734Q442 701 429 653T406 549T390 431T380 307Q417 324 449 334T506 347Q508 347 510 346Q515 343 515 343Q515 342 510 341Q447 328 379 297Q375 240 374 187T371 89Q370 52 362 7T339 -83T303 -170T253 -246T191 -299T115 -319Q79 -319 54 -304T14 -266T-9 -213T-17 -153Q-17 -83 13 -19T90 99T197 199T316 276Q323 341 333 406T358 531T392 642T436 731Q317 719 237 698T109 644T41 563T20 451Q20 410 31 378T62 322T106 286T158 273Q188 273 218 289T275 340H279Q283 340 283 338Q283 337 283 337T282 335L281 334Q253 296 219 279T149 261Q115 261 83 276T25 317T-15 381T-30 462Q-30 532 1 580T91 661T231 711T414 741Z"  />
<glyph unicode="K" horiz-adv-x="890" d="M475 392Q475 372 507 362L510 425Q493 419 484 410T475 392ZM687 784Q687 795 677 795Q663 795 650 779T624 734Q659 745 673 759T687 784ZM585 431Q584 411 584 392T581 355Q629 358 664 379Q649 400 630 413T585 431ZM587 506Q587 492 587 479T586 451Q624 450 653 440T705 411Q734 441 754 481T793 565T831 651T878 726T943 779T1037 800Q1048 800 1051 798T1054 793Q1054 791 1052 789Q1051 788 1051 787Q1013 787 985 767T934 712T890 636T845 550T792 466T723 395Q758 357 777 302T808 187T830 66T859 -43T908 -122T994 -152Q1022 -152 1048 -139T1098 -104T1139 -53T1167 9Q1168 14 1173 14Q1175 14 1179 12Q1181 11 1182 11Q1156 -70 1103 -117T984 -164Q922 -164 882 -136T815 -62T771 41T740 157T711 270T673 364Q653 355 630 349T579 340Q577 311 574 284T565 231Q551 148 520 80T440 -39T326 -116T180 -144Q117 -144 70 -125T-9 -75T-55 -3T-71 82Q-71 130 -52 177T4 261T96 322T226 346Q279 346 331 326T416 265Q416 261 414 261Q413 261 411 263Q406 267 391 277T352 298T296 317T223 326Q162 326 113 302T30 240T-23 155T-42 60Q-42 22 -30 -12T9 -72T77 -114T175 -130Q259 -130 321 -98T423 -5T484 144T506 343Q480 349 468 361T455 388Q455 403 469 417T511 441L516 498Q521 546 533 593T565 682Q557 681 549 681T532 680Q495 680 459 689T387 709T316 730T246 739Q212 739 185 726T139 690T109 641T98 586Q98 563 105 543T129 507T171 482T232 472Q277 472 320 491T386 548H388Q389 548 390 548T393 549Q398 549 398 546L396 542Q370 498 325 478T231 457Q193 457 165 467T119 496T91 537T82 586Q82 618 96 650T137 709T203 751T295 768Q327 768 356 761T414 746T471 730T530 723Q566 723 589 727Q612 763 636 784T685 806Q693 806 696 800T700 785Q700 775 695 762T679 736T651 711T610 691Q599 653 593 606T587 506Z"  />
<glyph unicode="L" horiz-adv-x="555" d="M113 -74Q187 -74 242 -50T335 16Q260 44 186 65T37 87Q-5 87 -31 64T-57 12Q-57 -4 -48 -19T-18 -47T34 -66T113 -74ZM525 562Q522 524 521 490T517 421Q585 445 634 483T715 564T762 653T777 738Q777 799 754 830T695 862Q657 862 630 848T585 809T556 754T539 690T530 623T525 562ZM693 877Q741 877 769 842T797 744Q797 701 781 652T731 557T644 470T516 404Q514 373 511 344T503 287Q492 217 466 158T401 51Q444 31 486 12T571 -23T656 -49T741 -59Q789 -59 821 -48T874 -18T903 24T912 72Q912 101 901 127T872 169Q870 171 869 171T867 174Q867 176 873 179Q898 156 909 130T921 75Q921 45 908 16T867 -35T801 -72T711 -86Q668 -86 625 -78T537 -56T448 -27T358 7Q307 -38 243 -63T101 -88Q54 -88 20 -79T-36 -54T-69 -20T-80 21Q-80 42 -69 62T-36 99T18 125T93 135Q167 135 236 114T371 63Q402 114 418 175T439 302Q441 324 441 344T443 385Q381 373 306 373Q224 373 163 394T62 451T3 530T-17 619Q-17 659 -2 696T44 763T120 809T224 827Q254 827 286 819T348 795T403 758T447 710Q448 709 448 707Q448 705 442 703Q439 702 437 702Q394 752 338 781T218 811Q167 811 128 796T63 755T23 696T10 626Q10 583 28 541T85 464T179 409T313 388Q349 388 381 391T444 401Q446 443 448 481T454 554Q460 612 475 670T518 774T590 848T693 877Z"  />
<glyph unicode="M" horiz-adv-x="1156" d="M736 -46Q736 -56 740 -56Q742 -56 746 -36T752 30Q744 4 740 -15T736 -46ZM734 763Q734 767 734 776T732 793T729 808T723 815Q718 815 714 804T707 779T702 753T700 736Q700 703 703 671T713 606Q720 637 727 681T734 763ZM418 284Q418 277 411 277Q407 277 406 278Q405 278 404 279Q404 321 389 355T346 414T280 452T198 466Q139 466 95 443T20 383T-25 297T-40 200Q-40 152 -26 107T18 27T91 -30T195 -52Q260 -52 317 -26T424 43T513 144T586 264T643 389T684 509Q677 556 673 600T669 684Q669 717 674 744T688 789T705 818T723 829Q732 829 738 816T745 774Q745 722 738 671T719 574Q729 531 741 488T765 400T787 310T803 219Q825 276 851 338T907 460T966 575T1027 676T1086 753T1142 797Q1152 802 1163 803T1179 804Q1184 804 1186 802L1187 801Q1175 781 1161 741T1131 646T1102 528T1076 398T1057 265T1050 140Q1050 93 1055 54T1071 -14T1101 -59T1147 -75Q1164 -75 1181 -60T1213 -17T1237 46T1248 125H1255Q1255 74 1244 34T1215 -34T1175 -77T1130 -92Q1092 -92 1067 -70T1026 -10T1003 80T996 191Q996 272 1007 360T1036 528T1075 669T1118 761Q1078 729 1036 666T952 523T873 356T806 191Q809 161 809 129Q809 108 806 73T795 3T775 -57T747 -83Q736 -83 729 -75T722 -44Q722 -30 730 2T753 80V92Q753 120 747 161T731 253T710 360T689 474Q681 447 664 396T617 284T548 160T455 45T334 -40T185 -73Q114 -73 62 -51T-25 7T-77 89T-94 186Q-94 259 -68 314T1 405T95 460T200 478Q243 478 282 466T352 430T400 369T418 284Z"  />
<glyph unicode="N" horiz-adv-x="997" d="M668 744Q668 715 675 681T697 606Q699 631 700 654T702 697Q702 742 697 768T681 794Q676 794 674 788T670 773T668 756T668 744ZM1189 745Q1124 745 1078 708T999 608T948 466T919 299T905 128T901 -29Q901 -42 899 -56T887 -71Q884 -71 884 -64Q884 -30 864 27T815 154T752 305T692 465Q679 403 659 340T611 216T544 104T457 12T349 -50T217 -73Q146 -73 94 -51T7 7T-45 89T-62 186Q-62 239 -43 291T15 384T109 450T241 475Q272 475 308 465T376 431T428 372T450 284Q450 277 443 277Q439 277 438 278Q437 278 436 279Q436 321 421 355T378 414T312 452T230 466Q171 466 127 443T52 383T7 297T-8 200Q-8 152 6 107T50 27T123 -30T227 -52Q296 -52 353 -28T457 37T540 132T604 247T651 373T681 499Q664 555 654 607T644 707Q644 749 656 777T686 806Q700 806 708 772T716 680Q716 656 715 628T709 571Q731 511 759 446T814 316T860 194T886 91L889 92Q894 168 901 248T921 404T955 547T1011 664T1095 744T1214 774Q1230 774 1244 770T1270 760T1288 746T1295 730Q1295 712 1264 699Q1259 711 1249 722Q1241 730 1227 737T1189 745Z"  />
<glyph unicode="O" horiz-adv-x="615" d="M108 190Q108 131 117 77T148 -25Q171 -45 199 -56T263 -68Q330 -68 382 -30T470 70T524 208T543 358Q543 415 532 466T497 557T438 619T353 642Q298 642 253 602T176 498T126 353T108 190ZM359 761Q400 761 433 746T491 705T528 647T542 580L540 578Q539 577 535 577Q530 577 530 585Q530 612 519 640T486 692T430 731T351 746Q280 746 225 702T131 587T73 430T52 258Q52 183 68 117T118 5Q91 91 91 191Q91 275 110 358T164 508T251 615T365 656Q419 656 459 632T525 565T565 469T578 354Q578 278 557 201T495 61T394 -40T253 -80Q230 -80 210 -77T170 -67Q202 -118 251 -149T371 -180Q418 -180 458 -163T527 -118T572 -52T589 27Q589 35 588 44Q587 52 586 61T582 79Q582 85 587 85Q593 85 595 81Q597 78 599 68T602 35Q602 -13 584 -55T535 -127T460 -175T364 -193Q286 -193 233 -156T146 -58Q104 -39 73 -7T21 69T-10 162T-20 267Q-20 354 5 442T78 601T197 716T359 761Z"  />
<glyph unicode="P" horiz-adv-x="624" d="M658 729Q633 716 616 699T586 658Q572 631 565 604T553 548T548 490T545 432Q540 354 537 287T523 157Q509 74 478 6T398 -113T284 -190T138 -218Q88 -218 47 -205T-25 -165T-71 -101T-88 -14Q-88 28 -74 67T-27 127Q-26 127 -25 128Q-24 128 -24 128T-22 129Q-19 129 -17 124Q-47 101 -60 68T-73 -3Q-73 -53 -58 -90T-15 -153T50 -191T133 -204Q217 -204 277 -173T376 -89T434 31T459 172Q464 246 466 308T474 424Q479 481 490 527T522 611T571 679T643 732Q651 736 653 736Q658 736 658 729ZM-69 483Q-69 551 -48 608T9 712T95 793T201 851T318 886T439 898Q511 898 577 881T693 830T774 743T804 621Q804 580 789 539T747 465T683 411T602 390Q597 390 587 391T577 396Q577 397 582 400Q583 399 585 399H592Q629 399 658 420T707 472T737 540T748 607Q748 671 719 719T642 799T531 847T400 864Q320 864 241 842T98 773T-5 658T-45 496Q-45 446 -28 410T17 350T83 315T161 303Q197 303 233 311T302 336T362 377T408 432Q409 433 411 433Q417 433 417 431Q402 396 374 369T309 323T232 294T151 284Q108 284 69 295T-1 331T-50 393T-69 483Z"  />
<glyph unicode="Q" horiz-adv-x="680" d="M115 -52Q169 -52 216 -45T306 -23Q225 19 151 50T13 81Q-35 81 -57 68T-80 37Q-80 22 -67 7T-28 -22T33 -43T115 -52ZM705 45Q703 45 702 46Q700 46 700 48Q700 49 702 51Q733 77 775 90T860 103Q894 103 925 95T981 70T1019 28T1034 -31Q1034 -63 1019 -94T974 -150T898 -191T793 -207Q737 -207 680 -192T564 -153T447 -98T331 -36Q240 -67 133 -67Q74 -67 31 -58T-42 -33T-85 2T-100 41Q-100 73 -61 98T58 123Q98 123 138 114T218 89T299 52T380 8Q440 40 483 85T555 184T596 296T610 412Q610 482 591 547T537 663T450 743T335 773Q266 773 215 739T129 651T77 530T59 397Q59 346 69 299T101 216T155 159T229 138Q281 138 322 156T391 206T436 275T456 355Q456 357 458 360Q460 362 461 364T468 366Q472 366 475 365Q473 315 450 271T391 194T309 142T214 123Q159 123 119 144T53 200T13 283T0 382Q0 452 23 524T90 655T199 751T348 789Q430 789 492 761T595 684T657 573T678 441Q678 378 661 314T610 190T525 81T405 -5Q458 -37 511 -68T619 -123T727 -163T837 -178Q883 -178 918 -166T976 -133T1011 -88T1023 -35Q1023 -1 1009 24T972 65T918 88T856 96Q813 96 773 83T705 45Z"  />
<glyph unicode="R" horiz-adv-x="898" d="M986 -55Q961 -90 929 -105T867 -120Q838 -120 813 -107T769 -72T739 -21T728 42Q728 80 731 119T734 197Q734 228 730 256T713 305T680 338T624 352Q613 349 602 348T579 344Q577 292 574 247T562 157Q548 74 517 6T437 -113T323 -190T177 -218Q127 -218 86 -205T14 -165T-32 -101T-49 -14Q-49 28 -35 67T12 127Q13 127 14 128Q15 128 15 128T17 129Q20 129 22 124Q-8 101 -21 68T-34 -3Q-34 -53 -19 -90T24 -153T89 -191T172 -204Q256 -204 316 -173T415 -89T473 31T498 172Q503 246 505 308T513 424Q518 481 529 527T561 611T610 679T682 732Q690 736 692 736Q697 736 697 729Q672 716 655 699T625 658Q611 631 604 604T592 548T587 490T584 432L579 359Q627 365 666 388T732 447T773 526T788 615Q788 667 768 717T704 808T592 872T426 897Q316 897 235 862T99 770T18 645T-9 508Q-9 455 7 407T55 322T135 264T246 242Q295 242 333 253T400 282T449 321T482 362Q483 362 486 361T489 359Q470 319 441 293T377 250T305 226T231 219Q165 219 114 243T29 307T-24 400T-42 510Q-42 581 -14 653T73 782T221 876T433 913Q544 913 624 888T756 821T833 727T858 620Q858 580 845 541T807 468T746 407T662 363Q709 360 738 344T784 302T806 244T812 176Q812 131 808 86T803 3Q803 -51 827 -77T886 -103Q909 -103 933 -90T977 -51L979 -49Q982 -46 983 -46Q986 -46 986 -55Z"  />
<glyph unicode="S" horiz-adv-x="638" d="M358 680Q358 639 369 602T400 527Q448 621 476 701T504 831Q504 862 495 875T472 889Q456 889 436 873T399 828T370 761T358 680ZM0 95Q0 58 12 24Q79 75 143 147T264 302Q259 302 253 302T242 303Q180 303 135 286T59 239T15 173T0 95ZM532 125Q532 167 518 209T481 292T432 375T382 458Q361 421 339 385T291 312Q337 306 371 288T431 247T473 199T497 151Q496 148 495 146Q493 141 491 141Q489 141 487 146Q460 212 404 251T283 300Q223 212 156 135T18 7Q31 -23 53 -50T106 -97T178 -129T268 -141Q317 -141 364 -125T449 -75T509 8T532 125ZM532 849Q532 824 524 788T499 707T461 613T410 509Q436 462 468 417T527 326T574 236T593 143Q593 68 564 12T487 -82T380 -139T263 -158Q211 -158 168 -146T92 -114T36 -66T-1 -6Q-36 -29 -70 -44T-137 -65Q-139 -64 -140 -63Q-142 -61 -142 -59Q-142 -55 -134 -54Q-102 -45 -71 -29T-7 9Q-21 48 -21 87Q-21 130 -5 171T45 244T129 295T248 315Q255 315 261 315T273 314Q301 354 325 394T372 475Q350 517 336 557T322 638Q322 707 338 759T377 845T428 897T479 914Q502 914 517 898T532 849Z"  />
<glyph unicode="T" horiz-adv-x="799" d="M955 790Q913 790 882 776T828 737T788 680T762 611Q827 594 877 594Q964 594 1028 635T1132 760Q1136 768 1140 768Q1144 768 1146 764L1148 760Q1130 718 1102 683T1034 621T944 581T831 566Q813 566 793 568T753 573Q743 531 739 488T733 400T729 312T719 222Q705 139 674 71T594 -48T480 -125T334 -153Q289 -153 245 -143T167 -110T111 -49T89 45Q89 58 105 58Q105 -43 164 -91T329 -139Q413 -139 473 -108T572 -24T630 96T655 237Q660 311 662 373T670 489Q675 540 691 586Q617 604 534 632T369 686T211 732T71 751Q-6 751 -63 728T-157 668T-214 582T-233 484Q-233 415 -210 365T-149 280T-60 230T45 213Q106 213 168 234T282 296T370 399T415 542Q416 551 422 551Q423 551 424 551T426 550L427 549Q421 461 384 395T292 283T170 216T35 193Q-24 193 -78 210T-173 263T-240 351T-265 475Q-265 535 -241 594T-170 700T-53 776T111 805Q179 805 255 786T408 739T562 681T707 628Q724 665 748 697T804 752T872 788T954 801Q960 801 960 798Q960 796 959 796T957 793Q956 791 955 790Z"  />
<glyph unicode="U" horiz-adv-x="759" d="M743 668Q735 668 725 645T703 582T679 490T657 380T638 262T625 147Q656 206 682 272T726 401T754 520T764 613Q764 639 759 653T743 668ZM621 55Q621 8 626 -31T642 -99T672 -144T718 -160Q735 -160 752 -145T784 -102T808 -39T819 40H826Q826 -11 815 -51T786 -119T746 -162T701 -177Q669 -177 646 -161T607 -117T582 -49T569 37Q531 -8 490 -35T403 -62Q368 -62 344 -52T306 -22T285 24T279 84Q279 141 293 212T325 356T357 501T372 630Q372 664 366 691T344 739T304 770T242 781Q170 781 115 747T22 658T-35 539T-55 413Q-55 374 -47 339T-21 278T21 236T82 221Q132 221 168 252T229 329T265 430T277 533Q277 551 275 567T270 598Q270 600 270 601T269 603Q269 610 275 610Q278 610 282 608Q284 607 285 607Q293 570 293 531Q293 476 279 418T237 312T166 233T66 202Q25 202 -6 219T-57 266T-88 335T-99 419Q-99 482 -78 548T-13 669T96 758T250 793Q301 793 334 778T388 734T416 669T425 586Q425 522 413 449T385 304T357 167T344 52Q344 6 359 -21T414 -48Q456 -48 494 -20T568 56Q567 68 567 80T567 106Q567 162 575 226T597 354T629 477T668 582T710 655T750 682Q767 682 775 662T783 607Q783 564 772 503T739 375T689 239T623 111Q621 96 621 82T621 55Z"  />
<glyph unicode="V" horiz-adv-x="653" d="M540 -29Q539 -34 534 -41T523 -54T508 -64T490 -68Q483 -68 483 -60Q485 -30 487 11T489 101Q489 164 485 235T468 376T435 509T381 621T302 699T194 728Q131 728 84 702T4 632T-44 536T-60 428Q-60 367 -45 323T-4 249T54 205T122 191Q161 191 200 208T270 260T320 344T339 460Q339 466 343 468Q345 469 348 469Q348 395 328 340T274 249T198 194T112 175Q74 175 38 189T-26 233T-70 307T-87 410Q-87 468 -68 527T-12 635T78 713T198 743Q280 743 339 704T440 599T504 446T537 262Q551 356 580 444T655 601T761 711T899 753Q915 753 929 749T955 739T973 725T980 709Q980 691 949 678Q944 690 934 701Q926 709 912 716T874 724Q821 724 778 702T701 642T640 554T594 446T562 327T542 208Q545 157 545 107Q545 72 544 38T540 -29Z"  />
<glyph unicode="W" horiz-adv-x="868" d="M783 -29Q782 -34 777 -41T766 -54T751 -64T733 -68Q726 -68 726 -60L665 654Q650 614 638 554T615 424T591 278T563 134T529 5T485 -93Q465 -93 454 -90T436 -82Q429 -78 426 -71Q433 -55 439 -24T451 48T459 139T462 243Q462 307 457 374T441 505T411 624T365 722T300 788T213 813Q151 813 105 780T28 694T-18 574T-34 440Q-34 381 -22 326T14 227T75 159T161 133Q210 133 247 158T310 225T347 318T360 423Q360 458 355 491T338 554T310 606T271 645L275 655Q324 626 348 563T373 423Q373 368 360 313T321 215T255 144T161 116Q102 116 58 143T-17 217T-62 322T-78 444Q-78 513 -60 581T-3 703T92 790T228 824Q280 824 322 797T397 722T452 612T491 479T513 334T520 190Q520 127 515 71T499 -31Q510 -12 521 26T544 115T567 224T589 343T610 462T628 571T644 658T657 715Q664 741 678 758T699 780Q701 782 703 782Q706 782 707 776T708 764Q709 642 716 532T734 334T752 184T763 98Q763 172 773 249T804 399T856 536T928 649T1022 725T1137 753Q1153 753 1167 749T1193 739T1211 725T1218 709Q1218 691 1187 678Q1182 690 1172 701Q1164 709 1150 716T1112 724Q1055 724 1008 696T924 620T859 509T813 374T785 229T776 87Q776 56 777 27T783 -29Z"  />
<glyph unicode="X" horiz-adv-x="736" d="M957 9Q931 -44 887 -76T791 -108Q732 -108 693 -76T628 12T585 138T555 287Q515 219 473 158T384 50T285 -24T175 -52Q126 -52 93 -32T39 13Q14 42 0 79Q0 81 1 83Q3 87 5 87Q7 87 10 82Q24 57 39 36T74 -2T116 -27T170 -36Q232 -36 284 -8T383 68T471 178T551 309Q537 400 521 489T478 649T408 764T295 808Q226 808 175 777T89 696T37 585T20 465Q20 421 29 382T57 314T104 267T170 249Q220 249 256 280T317 357T353 458T365 561Q365 579 363 595T358 626Q357 626 357 627V631Q357 638 363 638Q366 638 370 636Q372 635 373 635Q381 598 381 559Q381 504 367 446T325 340T254 261T154 230Q110 230 77 249T22 301T-12 377T-24 467Q-24 528 -4 591T56 705T159 788T306 821Q381 821 431 786T515 692T568 558T602 401Q644 477 687 549T778 677T880 767T998 801Q1013 801 1026 797T1040 785Q1040 780 1032 776Q1027 778 1021 781Q1016 783 1008 784T989 786Q932 786 882 751T786 659T695 527T607 376Q621 288 633 204T665 53T715 -55T797 -96Q820 -96 842 -87T885 -64T922 -30T949 9Q950 11 952 11Q953 11 953 11T955 10Q956 9 957 9Z"  />
<glyph unicode="Y" horiz-adv-x="783" d="M684 342Q684 323 684 297T685 238Q706 286 723 336T753 434T772 521T779 590Q779 613 775 626T759 640Q748 640 735 625T711 575T692 483T684 342ZM642 -351Q642 -327 642 -293T639 -217Q585 -285 552 -372T518 -560Q518 -572 520 -588T527 -618T543 -642T568 -652Q586 -652 598 -635T619 -592T631 -532T638 -465T641 -401T642 -351ZM695 -235Q695 -262 694 -305T688 -396T675 -493T651 -582T614 -646T559 -671Q536 -671 521 -659T497 -628T485 -588T481 -548Q481 -504 492 -458T525 -365T574 -276T638 -195L628 110Q590 56 548 23T458 -11Q421 -11 397 0T357 30T336 77T329 138Q329 191 341 255T368 385T395 515T407 633Q407 667 401 695T379 744T337 776T272 788Q200 788 145 754T52 665T-5 546T-25 420Q-25 381 -17 346T9 285T51 243T112 228Q162 228 198 259T259 336T295 437T307 540Q307 558 305 574T300 605L299 610Q299 617 305 617Q307 617 310 616T315 614Q323 577 323 538Q323 483 309 425T267 319T196 240T96 209Q55 209 24 226T-27 273T-58 342T-69 426Q-69 489 -48 555T17 676T126 765T280 800Q333 800 368 784T424 740T453 672T462 588Q462 530 452 465T429 335T407 212T396 108Q396 60 411 32T469 3Q512 3 552 38T627 129Q626 161 626 187Q625 210 625 229T625 252Q625 354 639 430T674 558T718 634T761 660Q776 660 783 642T790 591Q790 557 783 512T762 417T729 313T685 210Q686 169 687 123T690 31T692 -60T694 -142Q739 -104 787 -79T885 -43Q892 -43 892 -47Q892 -50 886 -58Q835 -67 787 -92T694 -158Q695 -181 695 -201T695 -235Z"  />
<glyph unicode="Z" horiz-adv-x="624" d="M867 746Q797 746 745 709T648 612Q686 597 724 588T800 579Q833 579 860 589T907 616T936 651T947 689Q947 712 928 729T867 746ZM55 -64Q130 -64 189 -34T297 48Q239 65 184 76T78 87Q45 87 21 81T-19 64T-42 39T-50 11Q-50 -18 -23 -41T55 -64ZM131 483Q170 483 210 494T286 527T351 585T398 669Q322 706 250 734T114 762Q76 762 47 750T-3 716T-33 669T-44 615Q-44 583 -30 559T8 518T64 492T131 483ZM38 -80Q-17 -80 -46 -53T-76 9Q-76 31 -64 53T-26 94T39 123T134 135Q185 135 236 125T338 98Q377 149 411 209T477 332T540 456T607 572Q559 590 510 614T411 662Q392 612 361 576T292 515T212 480T129 468Q91 468 58 477T-2 505T-43 549T-58 610Q-58 644 -44 678T-1 739T69 783T163 800Q226 800 288 779T413 727Q415 741 416 757T418 790Q418 801 424 801Q426 801 430 799L434 797Q434 776 432 757T427 720Q481 693 533 666T637 616Q686 683 745 724T882 766Q927 766 949 744T972 691Q972 666 958 640T917 591T850 554T756 539Q724 539 689 547T618 568Q585 515 555 454T494 330T429 206T355 92Q419 71 482 45T607 -5T728 -43T842 -59Q890 -59 922 -48T975 -18T1004 24T1013 72Q1013 101 1002 127T973 169Q971 171 970 171T968 174Q968 176 974 179Q999 156 1010 130T1022 75Q1022 45 1009 16T968 -35T902 -72T812 -86Q757 -86 697 -73T573 -41T444 1T314 43Q260 -13 193 -46T38 -80Z"  />
<glyph unicode="[" horiz-adv-x="191" d="M117 76Q117 17 120 -46T134 -161T163 -246T212 -279Q212 -282 211 -285Q209 -291 202 -291Q170 -291 149 -264T113 -192T91 -94T80 13T76 111T75 184Q75 268 76 352T77 520Q77 622 88 698T118 826T157 902T197 928Q204 928 206 922Q207 919 207 916Q194 916 178 900T149 847T126 752T117 610V76Z"  />
<glyph unicode="]" horiz-adv-x="191" d="M76 610Q76 694 67 752T45 846T15 899T-14 916Q-14 919 -13 922Q-11 928 -4 928Q15 928 36 903T75 826T104 699T116 520Q116 436 117 352T118 184Q118 157 118 112T114 13T102 -94T80 -192T45 -263T-9 -291Q-16 -291 -18 -285Q-19 -282 -19 -279Q11 -279 29 -246T58 -161T72 -46T76 76V610Z"  />
<glyph unicode="_" horiz-adv-x="481" d="M65 -18Q204 -18 280 -18T391 -17Q408 -17 417 -17T432 -18H438Q438 -21 435 -29T414 -38H43Q43 -32 46 -28Q48 -24 52 -21T65 -18Z"  />
<glyph unicode="`" horiz-adv-x="235" d="M181 377Q176 375 163 375Q147 375 127 379T88 392T58 410T46 433Q46 448 70 461Q73 450 81 437T104 411T137 391T179 383L181 377Z"  />
<glyph unicode="a" horiz-adv-x="278" d="M73 -4Q87 -4 99 5T120 29T136 64T147 106Q149 129 151 150T154 192Q152 230 142 257T114 284Q96 284 82 266T58 219T43 156T38 90Q38 51 46 24T73 -4ZM112 295Q128 295 139 284T156 253Q166 255 171 255Q184 255 192 249T201 229Q201 217 199 196T194 151T189 101T186 54Q186 28 194 13T217 -3Q238 -3 253 17T277 65T292 120T298 160H305Q303 139 298 108T281 48T252 -1T207 -22Q184 -22 165 -2T146 60Q133 25 114 2T69 -22Q48 -22 33 -13T8 11T-6 46T-11 90Q-11 124 -2 160T23 227T62 276T112 295Z"  />
<glyph unicode="b" horiz-adv-x="215" d="M120 189Q130 189 144 192Q139 232 127 249T103 266Q93 266 86 256T79 228Q79 213 88 201T120 189ZM107 584Q97 565 87 533T68 461T52 376T39 284Q63 318 82 357T115 434T136 508T144 567Q144 606 129 606Q119 606 107 584ZM64 -22Q44 -22 30 -5T7 43T-7 113T-12 198V216Q-18 211 -24 207T-38 197L-44 203Q-29 211 -11 226Q-10 280 -3 336T17 442T47 532T87 596Q112 622 130 622Q159 622 159 570Q159 543 151 506T127 428T89 346T38 269Q34 235 33 203T31 142Q31 79 41 38T74 -3Q93 -3 106 11T129 49T142 100T146 158Q146 163 146 168T145 179Q128 173 114 173Q85 173 73 187T60 222Q60 250 76 267T113 285Q132 285 148 266T167 201Q186 211 205 228L210 223Q187 202 168 190Q168 155 161 118T140 49T107 -2T64 -22Z"  />
<glyph unicode="c" horiz-adv-x="200" d="M112 293Q94 293 80 278T54 239T37 184T31 123Q31 97 36 73T51 30T78 0T119 -11Q143 -11 161 4T191 43T211 98T220 160H227Q225 125 217 91T195 30T160 -13T108 -30Q75 -30 52 -18T14 14T-8 60T-15 114Q-15 148 -6 182T20 244T60 289T110 306Q138 306 150 286T163 240Q163 215 152 195T120 174Q109 174 103 181T97 198Q97 211 108 223T146 238V242Q146 244 146 246T147 251Q147 263 141 278T112 293Z"  />
<glyph unicode="d" horiz-adv-x="295" d="M267 584Q256 564 246 531T227 455T211 366T198 270Q224 304 244 345T277 426T297 504T304 567Q304 606 289 606Q279 606 267 584ZM70 -4Q88 -4 101 9T125 43T141 91T149 146Q148 158 148 171T148 198V220Q144 248 135 266T111 284Q93 284 79 266T55 219T40 156T35 90Q35 51 43 24T70 -4ZM234 -3Q255 -3 270 17T294 65T309 120T315 160H322Q320 139 315 108T298 48T269 -1T224 -22Q196 -22 179 12T154 100Q149 76 141 54T121 15T96 -12T66 -22Q45 -22 30 -13T5 11T-9 46T-14 90Q-14 124 -5 160T20 226T59 275T109 295Q136 295 150 263Q153 313 161 363T181 458T210 538T247 596Q270 622 290 622Q304 622 311 608T319 569Q319 540 312 501T289 420T250 335T197 257Q191 197 191 142Q191 79 201 38T234 -3Z"  />
<glyph unicode="e" horiz-adv-x="200" d="M115 290Q100 290 87 275T63 236T47 181T40 119Q61 129 78 147T107 186T125 228T132 264Q132 290 115 290ZM227 160Q225 125 217 91T195 30T160 -13T108 -30Q79 -30 58 -20T23 8T2 49T-6 98Q-26 99 -38 107T-50 123Q-50 129 -41 129Q-22 111 -6 110Q-6 144 3 178T29 239T67 284T116 301Q133 301 140 291T147 265Q147 247 139 225T116 180T82 138T40 108Q40 85 44 64T58 26T81 0T117 -10Q142 -10 160 5T191 44T211 98T220 160H227Z"  />
<glyph unicode="f" horiz-adv-x="164" d="M128 157Q113 154 97 152T64 147Q64 136 64 125T65 101Q96 135 128 157ZM159 606Q142 606 128 580T104 512T86 421T73 324Q95 358 114 394T146 465T167 528T175 577Q175 606 159 606ZM19 27Q-10 -19 -34 -71T-74 -174T-100 -274T-109 -362Q-109 -372 -107 -388T-100 -420T-87 -447T-68 -458Q-47 -458 -31 -439T-3 -386T13 -311T19 -222V27ZM-44 203Q-27 213 -10 227T23 259Q27 296 33 337T49 418T71 494T99 558T131 602T167 619Q189 619 189 583Q189 561 181 529T157 459T119 383T71 307Q67 265 66 232T64 182V157Q84 159 106 163T152 176Q158 176 158 167Q133 154 110 135T65 90Q66 45 67 -6T68 -108Q68 -145 65 -186T54 -268T36 -345T11 -410T-23 -454T-65 -471Q-83 -471 -94 -462T-112 -439T-120 -407T-123 -371Q-123 -321 -113 -266T-83 -157T-38 -51T19 44V142H-1Q-8 142 -14 142T-26 143Q-36 143 -36 151Q-36 154 -34 160Q-33 163 -32 165Q-11 157 19 156V182Q19 210 22 248Q8 233 -7 220T-38 197L-44 203Z"  />
<glyph unicode="g" horiz-adv-x="263" d="M73 -4Q88 -4 100 6T122 32T138 71T149 117Q149 143 150 163Q151 180 151 195T152 214Q148 244 139 264T114 284Q96 284 82 266T58 219T43 156T38 90Q38 51 46 24T73 -4ZM67 -445Q80 -445 94 -431T120 -383T139 -296T148 -164V-96Q124 -121 102 -149T62 -211T34 -281T23 -361Q23 -399 36 -422T67 -445ZM290 160Q288 126 281 93T260 34Q250 14 233 -6T192 -49Q193 -63 193 -78T193 -111Q193 -203 180 -269T147 -379T103 -443T58 -464Q34 -464 18 -440T2 -367Q2 -320 15 -280T49 -204T96 -138T148 -80Q148 -42 148 -6T149 69Q136 30 116 4T69 -22Q48 -22 33 -13T8 11T-6 46T-11 90Q-11 124 -2 160T23 226T62 275T112 295Q141 295 155 258L158 284Q160 295 168 300T187 306Q196 306 208 300Q202 291 199 270T193 223T189 172T188 130Q188 108 188 89T189 50T191 10T192 -35Q211 -15 226 3T251 38Q265 64 273 95T283 160H290Z"  />
<glyph unicode="h" horiz-adv-x="276" d="M144 566Q144 606 122 606Q109 606 98 589Q87 571 79 539T64 468T55 385T49 299Q71 332 88 369T118 442T137 510T144 566ZM167 299Q196 299 207 281T218 239Q218 210 213 181T203 125T192 74T187 33Q187 16 193 7T215 -3Q236 -3 251 17T275 65T290 120T296 160H303Q301 139 296 108T279 48T250 -1T205 -22Q182 -22 163 -2T144 59Q144 77 148 103T157 156T166 209T170 253Q170 283 154 283Q141 283 127 267T98 224T71 164T50 95V-8Q42 -11 34 -11Q24 -11 17 -6T9 10Q9 72 9 129T11 239Q0 227 -12 216T-38 197L-44 203Q-29 211 -16 223T11 249Q13 318 18 376T31 479T53 556T87 605Q107 622 124 622Q141 622 150 608T159 570Q159 544 152 509T130 436T95 358T49 283Q47 257 47 233T47 188Q47 168 47 153T48 127Q55 149 66 178T92 235T125 280T167 299Z"  />
<glyph unicode="i" horiz-adv-x="143" d="M55 294Q50 249 47 205T43 122Q43 68 51 33T82 -3Q103 -3 118 17T142 65T157 120T163 160H170Q168 139 163 108T146 48T117 -1T72 -22Q52 -22 39 -9T17 29T5 84T1 152Q1 180 2 209T8 269Q10 286 20 293T42 301Q55 301 55 294ZM60 502Q72 502 77 493T83 473Q83 458 74 444T48 430Q37 430 31 439T25 459Q25 474 34 488T60 502Z"  />
<glyph unicode="j" horiz-adv-x="129" d="M59 502Q71 502 76 493T82 473Q82 458 73 444T47 430Q36 430 30 439T24 459Q24 474 33 488T59 502ZM-78 -446Q-64 -446 -48 -426T-18 -366T5 -267T14 -128V-96Q-9 -122 -31 -150T-71 -211T-100 -281T-111 -361Q-111 -404 -102 -425T-78 -446ZM156 160Q154 126 147 93T126 34Q116 14 99 -6T58 -50Q59 -65 59 -80T59 -111Q59 -203 46 -269T13 -379T-31 -443T-76 -464Q-100 -464 -116 -440T-132 -367Q-132 -320 -119 -280T-85 -204T-38 -138T14 -80Q13 -38 13 3T12 85Q12 143 14 194T25 288Q29 307 48 307Q60 307 74 300Q68 291 65 272T59 230T55 184T54 142Q54 94 55 51T58 -35Q77 -15 92 2T117 38Q131 64 139 95T149 160H156Z"  />
<glyph unicode="k" horiz-adv-x="276" d="M100 161Q113 161 125 167Q117 179 103 179Q87 179 87 169Q87 161 100 161ZM124 608Q105 608 92 579T69 503T55 402T47 296Q69 329 87 366T117 440T137 510T144 566Q144 586 140 597T124 608ZM51 -8Q42 -11 34 -11Q23 -11 16 -6T9 10Q9 72 9 129T11 238Q-13 212 -38 197L-44 203Q-29 211 -16 223T11 249Q14 334 20 403T41 520T77 595T132 621Q146 621 152 607T159 570Q159 544 151 509T129 434T94 356T47 281Q46 261 46 244T46 211Q46 191 46 177T48 152Q61 194 78 224T114 274T151 303T183 313Q198 313 207 303T217 273Q217 250 199 220T151 172Q167 155 172 124T177 50Q177 27 182 12T204 -3Q216 -3 230 3T262 35Q279 61 286 92T296 160H303Q301 125 294 90T270 28Q250 -6 226 -18T180 -30Q153 -30 143 -13T132 30Q132 47 134 69T136 113Q136 127 135 139T129 161Q114 155 97 155Q85 155 80 159T74 169Q74 176 82 182T106 188Q127 188 142 179Q158 194 168 214T178 252Q178 278 156 278Q145 278 130 268T100 237T72 183T50 102L51 -8Z"  />
<glyph unicode="l" horiz-adv-x="135" d="M144 567Q144 606 129 606Q119 606 107 584Q97 565 87 533T68 461T52 376T39 284Q63 318 82 357T115 434T136 508T144 567ZM-44 203Q-29 211 -11 226Q-10 280 -3 336T17 442T47 532T87 596Q112 622 130 622Q159 622 159 570Q159 543 151 506T127 428T89 346T38 269Q34 235 33 203T31 142Q31 79 41 38T74 -3Q95 -3 110 17T134 65T149 120T155 160H162Q160 139 155 108T138 48T109 -1T64 -22Q44 -22 30 -5T7 43T-7 113T-12 198V216Q-18 211 -24 207T-38 197L-44 203Z"  />
<glyph unicode="m" horiz-adv-x="393" d="M36 103Q50 158 66 196T97 259T127 293T154 304Q169 304 178 290T188 250Q188 224 182 182T170 92Q179 134 190 171T215 237T243 281T276 297Q305 297 315 280T325 239Q325 212 322 184T314 130T306 81T302 40Q302 20 308 9T332 -3Q353 -3 368 17T392 65T407 120T413 160H420Q418 139 413 108T396 48T367 -1T322 -22Q299 -22 280 -2T261 59Q261 77 263 103T269 156T274 209T277 253Q277 269 275 275T265 281Q251 281 234 251T202 176T177 84T167 -1V-6Q162 -8 156 -9T145 -10Q135 -10 128 -5T121 14Q121 32 124 65T131 133T138 202T142 253Q142 274 133 274Q115 274 98 243T67 169T45 79T36 4Q36 -1 36 -6T37 -15Q29 -18 20 -18Q8 -18 -1 -13T-10 4Q-5 53 -2 102T2 201Q2 253 -4 301Q5 305 16 305Q29 305 37 299T46 279Q46 268 45 247T42 201T39 150T36 103Z"  />
<glyph unicode="n" horiz-adv-x="268" d="M136 283Q119 283 103 254T72 182T50 92T41 7V-8Q32 -11 24 -11Q13 -11 6 -6T-1 10Q3 54 6 96T9 182Q9 212 7 242T1 301Q10 305 21 305Q34 305 42 299T51 279Q51 268 50 249T47 206T44 158T41 112Q45 123 49 141T60 179T74 221T94 259T119 286T151 297Q180 297 190 280T200 239Q200 212 197 184T189 130T181 81T177 40Q177 20 183 9T207 -3Q228 -3 243 17T267 65T282 120T288 160H295Q293 139 288 108T271 48T242 -1T197 -22Q174 -22 155 -2T136 59Q136 77 138 103T144 156T149 209T152 253Q152 283 136 283Z"  />
<glyph unicode="o" horiz-adv-x="243" d="M148 189Q159 189 171 192Q163 222 148 242T113 262Q101 262 95 255T88 237Q88 221 103 205T148 189ZM124 301Q101 293 85 275T59 232T44 180T39 125Q39 99 43 75T55 33T74 3T101 -8Q122 -8 136 3T161 33T175 76T180 125Q180 153 174 179Q157 173 142 173Q106 173 90 192T73 232Q73 250 84 264T117 279Q143 279 161 256T187 197Q198 202 209 209T233 228L238 223Q212 198 189 186Q194 158 194 133Q194 103 188 75T170 23T140 -14T97 -28Q69 -28 49 -17T16 12T-3 55T-9 107Q-9 140 -1 173T24 235T64 282T117 306Q119 306 121 305T124 301Z"  />
<glyph unicode="p" horiz-adv-x="252" d="M-28 -297Q-21 -297 -15 -268T-4 -192T3 -85T7 36Q-16 -58 -30 -134T-45 -253Q-45 -297 -28 -297ZM120 277Q104 277 91 268T69 243T53 206T43 162V74Q48 39 61 15T98 -10Q114 -10 126 5T146 44T159 97T163 157Q163 181 160 202T152 240T139 267T120 277ZM100 -21Q80 -21 65 -8T42 26Q40 -38 36 -100T24 -212T1 -293T-34 -324Q-48 -324 -54 -309T-60 -265Q-60 -213 -42 -127T7 61V75Q7 147 4 207T-7 301Q-3 303 6 303Q17 303 29 298T42 279Q42 265 42 247T43 209Q54 246 74 270T124 295Q147 295 163 285T190 257T206 216T211 168Q211 135 203 102T181 41T146 -3T100 -21Z"  />
<glyph unicode="q" horiz-adv-x="272" d="M199 -1Q208 -1 217 2Q212 28 203 43T177 58Q174 58 173 57Q171 48 170 39T168 19Q173 11 181 5T199 -1ZM223 -62Q223 -51 223 -40T221 -19Q213 -23 206 -24T191 -25Q175 -25 163 -19Q157 -74 153 -125T149 -216Q149 -250 153 -270T166 -290Q176 -290 186 -269T205 -214T218 -141T223 -62ZM73 -4Q96 -4 112 17T139 71Q147 133 154 178Q154 221 144 252T114 284Q96 284 82 266T58 219T43 156T38 90Q38 51 46 24T73 -4ZM258 35Q275 61 282 92T292 160H299Q297 125 290 90T266 28Q248 -3 230 -14Q233 -37 233 -63Q233 -104 227 -147T210 -226T188 -285T162 -308Q138 -308 129 -268T120 -168Q120 -122 124 -70T134 32Q122 8 106 -7T69 -22Q48 -22 33 -13T8 11T-6 46T-11 90Q-11 124 -2 160T23 226T62 275T112 295Q133 295 145 276T162 227L165 239Q166 244 169 248Q171 251 175 254T188 257Q196 257 204 253Q200 236 192 185T174 69Q194 67 207 50T226 6Q244 15 258 35Z"  />
<glyph unicode="r" horiz-adv-x="200" d="M21 193Q21 212 19 228T15 258Q-5 259 -18 266T-31 295Q-31 306 -25 313T-10 321Q0 321 7 308T20 273H27Q35 273 45 274T66 276T85 279T100 280Q126 280 134 266T142 230Q142 216 136 191T122 137T108 79T101 28Q101 9 107 -2T128 -13Q154 -13 186 35Q203 61 210 92T220 160H227Q225 125 218 90T194 28Q174 -6 150 -23T104 -40Q77 -40 67 -23T56 20Q56 46 63 78T79 141T95 201T102 247Q102 262 92 262Q75 262 57 260T23 258Q25 243 26 226T28 191Q28 150 21 109T-3 34L-12 38Q5 69 13 111T21 193Z"  />
<glyph unicode="s" horiz-adv-x="170" d="M45 292Q45 266 57 239T85 184T112 128T125 69Q125 45 117 27T95 -4T65 -23T32 -30Q-7 -30 -24 -10T-42 36Q-42 62 -26 83T19 105Q36 105 36 95Q36 91 32 87Q26 92 17 92Q-2 92 -11 79T-21 48Q-21 28 -7 10T36 -9Q56 -9 72 6T89 57Q89 70 83 87T67 124T47 165T28 207V192Q28 179 27 165T24 134H17Q19 151 20 165T21 193Q21 214 18 235Q15 245 14 254T13 272Q13 315 28 333T58 351Q77 351 77 333Q77 323 70 315T45 292Z"  />
<glyph unicode="t" horiz-adv-x="138" d="M213 398Q214 398 216 399Q218 399 219 399T222 400Q227 400 227 397Q227 396 227 396T226 394Q225 393 225 392Q215 378 197 366T156 345T107 331T54 323Q47 272 43 220T38 122Q38 68 46 33T77 -3Q98 -3 113 17T137 65T152 120T158 160H165Q163 139 158 108T141 48T112 -1T67 -22Q47 -22 34 -9T14 28T3 82T-1 149Q-1 191 3 236T12 324Q-29 327 -57 344T-85 395Q-85 413 -75 434T-36 469Q-35 469 -34 470Q-33 470 -32 470T-30 471Q-27 471 -27 467Q-27 464 -29 460Q-30 458 -30 457Q-40 452 -47 445Q-53 439 -58 430T-63 407Q-63 383 -41 370T15 351Q23 409 31 451T43 504Q46 515 52 519T64 524Q69 524 73 523T81 519Q85 516 89 514Q84 503 75 458T57 349Q79 349 102 352T146 362T184 378T213 398Z"  />
<glyph unicode="u" horiz-adv-x="270" d="M168 169Q168 158 168 139T170 99Q178 131 182 165T186 227Q186 278 180 278Q176 278 172 251T168 169ZM196 233Q196 198 191 157T171 80Q173 64 176 49T183 23T194 4T209 -3Q230 -3 245 17T269 65T284 120T290 160H297Q295 139 290 108T273 48T244 -1T199 -22Q180 -22 167 -8T146 29Q132 9 115 -3T75 -15Q52 -15 38 0T15 39T3 93T0 153Q0 174 1 194T3 232T7 261T10 279Q12 292 22 299T46 306Q57 306 66 302Q64 296 61 277T55 230T49 172T46 110Q46 87 48 67T54 32T66 8T85 -1Q104 -1 118 9T144 37Q136 61 134 90T131 151Q131 220 146 258T175 297Q184 297 190 282T196 233Z"  />
<glyph unicode="v" horiz-adv-x="190" d="M81 -12Q72 -15 62 -15Q51 -15 44 -11T36 4Q36 40 33 78T21 152T-1 216T-39 262Q-35 270 -30 276Q-25 281 -20 286T-7 291Q3 291 15 278Q33 258 44 223T62 149T71 74T74 16Q76 38 82 71T97 142T119 216T147 282T181 330T220 349Q233 349 239 343T245 329Q245 321 240 316T227 310Q219 310 212 319Q208 323 206 328Q192 328 178 311T150 265T124 201T103 127T88 53T81 -12Z"  />
<glyph unicode="w" horiz-adv-x="335" d="M151 189Q151 165 152 140T156 90Q163 124 164 160T166 227Q166 278 160 278Q156 278 154 253T151 189ZM269 181Q266 180 261 180Q250 180 241 188T226 209T217 237T213 268Q213 290 220 306T242 322Q252 322 260 313T273 287T281 248T284 200Q303 209 325 228L330 223Q322 215 310 205T284 188Q283 152 277 115T258 47T229 -3T189 -22Q172 -22 160 -9T138 25Q127 6 112 -4T75 -15Q52 -15 38 0T15 39T3 93T0 153Q0 174 1 194T3 232T7 261T10 279Q12 292 22 299T46 306Q57 306 66 302Q64 296 61 277T55 230T49 172T46 110Q46 87 48 67T54 32T66 8T85 -1Q116 -1 135 31Q125 58 121 94T116 165Q116 191 118 215T126 257T138 286T155 297Q164 297 170 282T176 233Q176 197 173 155T159 74Q164 41 173 19T199 -3Q214 -3 227 11T249 49T264 101T270 160Q270 165 270 170T269 181Z"  />
<glyph unicode="x" horiz-adv-x="197" d="M8 -100L14 -98Q16 -97 19 -96T26 -95Q35 -95 39 -100T44 -113Q44 -122 37 -127T20 -133Q5 -133 -9 -118T-24 -64Q-24 -34 -15 4T10 83Q3 111 -1 140T-7 195T-10 242T-11 274Q-11 288 -2 292T17 297Q24 297 32 295Q36 294 39 294Q38 276 37 254T36 208Q36 193 36 178T38 147Q56 184 76 217T116 276T156 317T193 332Q206 332 212 326T218 312Q218 304 213 299T200 293Q190 293 185 302T178 311Q164 311 147 296T111 256T74 197T39 128Q42 100 47 75T62 30T84 0T117 -11Q142 -11 160 4T190 43T209 98T218 160H225Q223 125 215 91T193 30T158 -13T106 -30Q71 -30 50 -2T15 67Q4 34 -3 4T-10 -50Q-10 -67 -6 -80T8 -100Z"  />
<glyph unicode="y" horiz-adv-x="261" d="M177 169Q177 156 177 144T178 118Q187 150 191 182T196 240Q196 287 190 287Q185 287 181 257T177 169ZM146 -96Q123 -122 101 -150T61 -211T32 -281T21 -361Q21 -402 32 -423T59 -445Q73 -445 88 -428T116 -374T137 -280T146 -143V-96ZM139 151Q139 187 143 216T155 265T170 297T185 308Q204 308 204 248Q204 216 198 176T179 97Q181 63 183 29T188 -37Q208 -17 223 1T249 38Q263 64 271 95T281 160H288Q286 126 279 93T258 34Q248 14 230 -7T189 -51Q191 -67 191 -82T191 -111Q191 -203 178 -269T145 -379T101 -443T56 -464Q32 -464 16 -440T0 -367Q0 -320 13 -280T46 -204T93 -139T145 -81Q145 -76 145 -59T143 -24Q142 -3 142 22Q128 5 113 -5T79 -15Q56 -15 42 0T19 39T7 93T4 153Q4 174 5 194T7 232T11 261T14 279Q16 292 26 299T50 306Q61 306 70 302Q68 296 65 277T59 230T53 172T50 110Q50 87 52 67T58 32T70 8T89 -1Q104 -1 117 8T141 33Q140 63 140 92T139 151Z"  />
<glyph unicode="z" horiz-adv-x="195" d="M117 -90Q117 -64 113 -45Q75 -54 46 -74T-2 -119T-31 -173T-41 -227Q-41 -258 -27 -278T18 -299Q38 -299 56 -280T87 -231T109 -164T117 -90ZM21 193Q21 229 15 255Q-15 257 -26 266T-38 286Q-38 297 -31 305T-14 313Q-5 313 3 304T19 273Q21 272 27 272Q36 272 52 274T85 280T118 285T143 288Q156 288 164 284T172 268Q172 254 157 227T122 168T86 108T66 62Q100 50 121 27T154 -25H170Q182 -25 189 -28T197 -37Q197 -42 189 -45Q176 -40 163 -40H159Q167 -69 167 -99Q167 -138 155 -177T122 -248T72 -298T8 -318Q-28 -318 -45 -295T-63 -238Q-63 -210 -52 -178T-18 -117T36 -65T111 -32Q103 3 83 26T27 55Q46 80 63 106T92 158T111 206T118 247Q118 258 101 258Q89 258 73 257T32 255H23Q25 242 26 227T28 191Q28 150 21 109T-3 34L-12 38Q5 69 13 111T21 193Z"  />
<glyph unicode="{" horiz-adv-x="281" d="M30 324Q62 324 79 344T104 401T113 485T115 589Q115 649 118 708T139 814T190 891T288 921Q295 921 297 915Q298 912 298 909Q256 909 232 891T195 841T178 768T174 681Q174 654 174 627T175 572Q175 530 172 490T160 416T131 357T80 320Q113 314 133 295T165 248T180 185T184 110Q184 62 181 12T178 -85Q178 -126 182 -161T200 -222T236 -264T298 -279Q298 -282 297 -285Q295 -291 288 -291Q234 -291 202 -269T153 -210T131 -125T126 -26Q126 9 127 43T128 110Q128 150 125 186T112 248T82 290T30 306Q28 308 26 311Q22 317 22 319Q22 324 30 324Z"  />
<glyph unicode="|" horiz-adv-x="191" d="M-18 -279Q12 -279 30 -246T59 -161T73 -46T77 76Q77 122 77 180T77 298T76 417T76 520Q76 622 87 698T117 826T156 902T196 928Q203 928 205 922Q206 919 206 916Q193 916 178 900T149 847T127 752T118 610Q118 568 118 512T118 397T119 282T119 184Q119 157 119 112T115 13T103 -94T81 -192T46 -263T-8 -291Q-15 -291 -17 -285Q-18 -282 -18 -279Z"  />
<glyph unicode="}" horiz-adv-x="218" d="M213 306Q181 306 164 286T139 229T130 145T128 41Q128 -19 125 -78T104 -184T53 -261T-45 -291Q-52 -291 -54 -285Q-55 -282 -55 -279Q-13 -279 11 -261T48 -211T65 -138T69 -51Q69 -24 69 3T68 58Q68 100 71 140T83 214T112 273T163 310Q130 316 110 335T78 382T63 445T59 520Q59 568 62 618T65 715Q65 755 61 790T43 852T7 894T-55 909Q-55 912 -54 915Q-52 921 -45 921Q9 921 41 899T90 840T112 755T117 656Q117 621 116 587T115 520Q115 479 118 444T131 382T161 340T213 324Q215 322 217 319Q221 313 221 311Q221 306 213 306Z"  />
<glyph unicode="&#xA0;" horiz-adv-x="180" />
<glyph unicode="&#xA1;" horiz-adv-x="221" d="M113 342Q101 342 96 351T90 371Q90 386 99 400T125 414Q136 414 142 405T148 385Q148 370 139 356T113 342ZM122 270Q122 249 122 204T120 101T116 -26T111 -164T103 -298T93 -415Q93 -424 87 -428T71 -432Q60 -432 47 -427Q58 -340 68 -242T87 -50T99 129T104 271Q104 277 108 277Q111 277 115 275T122 270Z"  />
<glyph unicode="&#xA2;" horiz-adv-x="229" d="M162 303Q162 310 160 319T152 335Q150 324 149 312T145 287L161 290V294Q161 296 161 298T162 303ZM127 345Q109 345 95 330T69 291T52 236T46 175Q46 133 58 99T97 50Q103 94 109 139T123 229Q112 235 112 250Q112 269 131 281L140 343Q132 345 127 345ZM158 443Q160 451 165 451Q169 451 169 443Q168 431 165 417Q163 405 160 388T154 349Q167 340 172 325T178 292Q178 268 168 248T137 226Q131 183 125 137T112 44Q122 41 134 41Q161 41 180 60T212 109L220 104Q206 69 182 46T123 22H110Q108 4 106 -14T102 -50Q102 -55 99 -57T91 -60Q84 -60 84 -54L93 25Q43 36 22 76T0 166Q0 200 9 234T35 296T75 341T125 358Q134 358 142 355Q147 384 151 406T158 443Z"  />
<glyph unicode="&#xA3;" horiz-adv-x="405" d="M323 442Q304 442 292 433T274 409T265 372T263 325Q315 340 337 364T360 409Q360 423 350 432T323 442ZM80 -19Q116 -19 140 -9T181 18Q141 33 104 46T32 60Q17 60 9 52T1 33Q1 16 20 -1T80 -19ZM329 -15Q295 -15 264 -8T202 10Q181 -8 151 -18T76 -29Q28 -29 4 -9T-20 34Q-20 53 -4 67T48 82Q85 82 121 68T196 39Q210 62 215 91T222 154Q215 156 209 157T195 158Q181 158 169 153T146 132Q154 165 169 176T203 188Q208 188 213 188T223 186V215Q210 219 195 219Q181 219 169 214T146 193Q154 226 169 237T203 249Q208 249 212 249T222 247V306Q202 302 180 300T131 298Q129 298 129 301Q129 304 131 307T139 310Q186 310 222 316Q223 345 228 370T245 414T275 443T325 454Q351 454 365 443T379 415Q379 391 351 362T263 315Q263 297 263 278T264 238Q277 235 292 235Q307 235 320 240T344 263Q335 227 321 215T287 202Q281 202 276 202T264 204Q264 197 264 191T263 177Q278 174 292 174Q307 174 320 179T344 202Q335 166 321 154T287 141Q273 141 260 144Q256 112 247 82T220 29Q248 18 277 11T340 4Q367 4 386 23T418 72L426 67Q412 32 388 9T329 -15Z"  />
<glyph unicode="&#xA4;" horiz-adv-x="506" d="M253 222Q310 222 341 262T372 365Q372 395 364 421T341 467T304 498T253 509Q224 509 202 498T165 468T141 422T133 365Q133 334 141 308T164 263T202 233T253 222ZM19 168L88 239Q50 294 50 365Q50 436 88 489L19 560L64 603L131 534Q155 552 185 563T253 574Q289 574 320 563T375 534L442 603L487 560L418 489Q455 435 455 365Q455 330 445 298T417 240L487 168L442 125L374 194Q325 157 253 157Q181 157 132 194L64 125L19 168Z"  />
<glyph unicode="&#xA5;" horiz-adv-x="329" d="M55 354Q46 354 40 352T29 346Q24 342 21 339Q11 349 11 360Q11 373 25 382T66 391Q93 391 112 375T143 331T161 268T171 193Q182 235 198 275T234 346T277 397T326 416Q344 416 356 407T368 388Q368 377 356 373Q352 376 348 380Q343 383 337 385T322 388Q295 388 273 368T234 316T204 244T183 164H207Q221 164 232 164T251 162Q255 162 255 158Q255 155 252 152T244 148Q236 149 227 149T209 149Q201 149 194 149T179 148L176 129Q184 130 192 130T208 130Q222 130 233 130T252 128Q256 128 256 124Q256 121 253 118T245 114Q237 115 229 115T212 115Q202 115 193 115T174 114Q173 112 173 107Q172 70 170 38T167 -18Q163 -22 154 -22Q146 -22 138 -19T130 -8Q130 17 132 44T137 110Q97 105 57 98Q50 101 50 107Q50 111 56 113Q75 118 96 121T138 127V145Q117 143 97 140T56 132Q49 135 49 141Q49 145 55 147Q75 152 96 155T138 161Q137 198 133 233T120 295T95 338T55 354Z"  />
<glyph unicode="&#xA7;" horiz-adv-x="226" d="M54 288Q54 270 62 249T83 206T110 162T136 118Q148 133 148 154Q148 170 140 189T119 230T94 276T71 325Q54 311 54 288ZM31 263Q31 283 39 300T68 334Q57 367 57 396Q57 422 68 433T93 444Q105 444 115 437T125 416Q125 406 118 395T91 370Q91 351 106 326T139 274T173 220T188 169Q188 143 176 126T147 97Q160 71 160 55Q160 32 151 16T128 -10T97 -26T63 -31Q38 -31 20 -21T2 8Q2 21 14 23Q19 3 33 -7T65 -17Q85 -17 102 -3T120 40Q120 60 106 86T76 142T45 203T31 263Z"  />
<glyph unicode="&#xA8;" horiz-adv-x="143" d="M8 442Q20 442 25 433T31 413Q31 398 22 384T-4 370Q-15 370 -21 379T-27 399Q-27 414 -18 428T8 442ZM108 442Q120 442 125 433T131 413Q131 398 122 384T96 370Q85 370 79 379T73 399Q73 414 82 428T108 442Z"  />
<glyph unicode="&#xA9;" horiz-adv-x="481" d="M249 3Q218 3 196 13T160 41T138 81T131 128Q131 158 140 187T168 240T212 279T270 294Q302 294 324 276T346 220Q346 193 329 171T279 148Q253 148 242 161T231 193Q231 216 246 237T288 262Q289 262 289 262T290 261H291Q290 259 290 259Q267 255 255 235T243 195Q243 178 252 166T282 153Q306 153 319 171T333 214Q333 251 313 269T266 288Q239 288 218 274T182 238T160 189T152 133Q152 109 158 86T176 46T206 19T251 8Q269 8 283 15T308 32T324 56T330 81Q330 107 317 119T286 131Q265 131 245 116T220 71Q215 71 215 75Q220 105 243 120T290 136Q312 136 328 124T345 85Q345 71 339 57T320 30T289 11T249 3ZM73 150Q73 113 86 81T123 26T179 -11T248 -25Q285 -25 317 -12T373 25T410 81T424 150Q424 187 411 219T373 275T317 312T248 326Q211 326 179 313T124 275T87 219T73 150ZM58 150Q58 190 73 224T113 285T173 326T248 341Q288 341 322 326T383 285T424 225T439 150Q439 110 424 76T383 16T323 -25T248 -40Q208 -40 174 -25T114 15T73 75T58 150Z"  />
<glyph unicode="&#xAA;" horiz-adv-x="278" d="M82 177Q105 177 119 204T141 267Q142 285 143 301T146 333Q144 364 136 385T114 407Q100 407 89 392T69 355T57 305T53 252Q53 220 60 199T82 177ZM113 416Q137 416 148 382Q156 384 160 384Q170 384 177 379T184 363Q184 354 182 337T178 301T174 261T172 223Q172 203 178 191T197 178Q214 178 226 194T245 232T257 275T262 308H267Q265 291 261 267T248 219T225 180T189 163Q170 163 155 179T140 229Q129 200 114 182T78 163Q44 163 30 189T15 252Q15 279 22 308T43 361T74 400T113 416Z"  />
<glyph unicode="&#xAD;" horiz-adv-x="299" d="M46 110Q54 143 69 154T103 166Q123 166 146 159T192 152Q207 152 220 157T244 180Q235 144 221 132T187 119Q166 119 142 127T95 136Q81 136 69 131T46 110Z"  />
<glyph unicode="&#xAE;" horiz-adv-x="481" d="M385 51Q371 34 354 34Q340 34 331 45T321 72Q321 82 322 92T323 113Q323 129 318 141T298 155L284 152Q283 140 283 129T280 107Q273 65 249 40T185 14Q160 14 145 27T129 65Q129 75 133 85T144 99L147 98Q134 86 134 67Q134 42 147 32T184 22Q225 22 243 48T264 111Q266 129 266 144T268 173Q271 201 280 219T312 250Q314 250 314 248Q302 242 296 231Q290 219 289 207T286 181L285 157Q310 159 323 178T337 220Q337 246 316 268T247 290Q221 290 202 282T170 259T151 228T145 194Q145 168 159 148T202 128Q226 128 240 138T260 158Q258 148 252 142T236 131T217 124T198 122Q165 122 148 144T130 196Q130 214 137 232T158 265T195 289T248 298Q305 298 331 275T357 223Q357 202 344 184T307 157Q329 155 335 142T342 112Q342 101 341 90T340 69Q340 55 346 49T361 42Q374 42 383 55H384V54Q384 53 384 53T385 51ZM73 150Q73 113 86 81T123 26T179 -11T248 -25Q285 -25 317 -12T373 25T410 81T424 150Q424 187 411 219T373 275T317 312T248 326Q211 326 179 313T124 275T87 219T73 150ZM58 150Q58 190 73 224T113 285T173 326T248 341Q288 341 322 326T383 285T424 225T439 150Q439 110 424 76T383 16T323 -25T248 -40Q208 -40 174 -25T114 15T73 75T58 150Z"  />
<glyph unicode="&#xAF;" horiz-adv-x="278" d="M35 385Q21 385 21 396Q21 402 22 405H174Q191 405 196 404T202 396Q202 389 201 385H35Z"  />
<glyph unicode="&#xB0;" horiz-adv-x="137" d="M71 383Q57 383 50 372T42 348Q42 337 48 329T66 320Q80 320 87 330T94 354Q94 365 89 374T71 383ZM64 303Q46 303 38 315T29 345Q29 365 40 382T72 400Q90 400 99 387T108 357Q108 337 97 320T64 303Z"  />
<glyph unicode="&#xB4;" horiz-adv-x="235" d="M52 383Q76 383 95 391T128 411T150 436T161 461Q174 454 179 447T184 433Q184 420 171 410T140 392T102 380T66 375Q58 375 50 377L52 383Z"  />
<glyph unicode="&#xB6;" horiz-adv-x="638" d="M201 192Q228 192 254 203T302 236Q309 328 333 387T414 484Q420 488 421 488Q425 488 425 482Q392 462 375 425Q365 403 360 381T353 335T349 288T347 240Q343 177 342 124T335 19Q329 -32 315 -80T280 -169T231 -243T169 -296Q221 -278 260 -243T326 -163T366 -68T384 32Q388 92 390 141T395 236Q401 322 423 379T496 475Q472 511 431 529T341 547Q297 547 253 533T174 489T116 416T93 316Q93 284 102 261T126 222T160 200T201 192ZM71 -312Q128 -312 168 -281T234 -200T273 -89T291 32Q294 87 295 132T300 220Q280 198 251 187T193 175Q170 175 148 182T110 206T83 246T73 304Q73 369 97 417T161 498T248 547T345 564Q399 564 445 544T518 482Q487 462 470 425Q451 381 448 335T442 240Q438 177 437 124T428 19Q419 -47 391 -109T318 -218T212 -293T74 -322L71 -312Z"  />
<glyph unicode="&#xB7;" horiz-adv-x="212" d="M111 165Q123 165 128 156T134 136Q134 121 125 107T99 93Q88 93 82 102T76 122Q76 137 85 151T111 165Z"  />
<glyph unicode="&#xB8;" horiz-adv-x="167" d="M63 -73Q61 -79 56 -89T51 -106H65Q99 -106 113 -115T127 -136Q127 -153 107 -168T56 -184Q29 -184 4 -169L8 -162Q20 -168 31 -170T51 -173Q69 -173 78 -165T88 -148Q88 -139 79 -132T50 -125Q32 -125 32 -117Q32 -110 38 -99T49 -74L63 -73Z"  />
<glyph unicode="&#xBA;" horiz-adv-x="233" d="M98 303Q119 303 142 312Q135 344 119 366T73 389Q55 389 47 380T38 357Q38 352 40 344Q52 369 70 382L74 378Q58 357 52 322Q60 314 71 309T98 303ZM147 270Q147 287 144 305Q121 296 100 296Q69 296 50 309Q47 291 47 273Q47 255 50 238T59 207T76 185T100 177Q123 177 135 205T147 270ZM190 336Q175 321 157 311Q160 293 160 275Q160 253 156 232T142 195T118 169T86 159Q68 159 56 167T35 188T23 218T19 255Q19 273 22 291T32 327Q23 340 23 358Q23 377 35 392T69 407Q104 407 125 381T155 318Q172 327 186 340L190 336Z"  />
<glyph unicode="&#xBF;" horiz-adv-x="389" d="M178 -81Q216 -50 257 -35T338 -20Q380 -20 409 -30T458 -59T487 -103T496 -156Q496 -205 471 -259T402 -360T297 -436T163 -466Q127 -466 95 -456T39 -426T1 -376T-13 -305Q-13 -267 6 -223T55 -132T119 -36T183 60T232 153T252 237Q252 261 242 272T215 284Q193 284 164 265T108 209Q107 207 106 206Q104 204 102 204Q99 204 99 213Q137 260 172 279T235 299Q269 299 289 275T309 214Q309 173 288 129T236 39T168 -54T100 -146T47 -235T26 -316Q26 -348 37 -372T69 -413T117 -438T174 -446Q240 -446 295 -419T391 -349T455 -257T478 -162Q478 -135 470 -112T443 -72T397 -45T329 -35Q291 -35 254 -49T189 -89L178 -81ZM226 345Q214 345 209 354T203 374Q203 389 212 403T238 417Q249 417 255 408T261 388Q261 373 252 359T226 345Z"  />
<glyph unicode="&#xC0;" horiz-adv-x="1072" d="M1044 1014Q1039 1012 1026 1012Q1010 1012 990 1016T951 1029T921 1047T909 1070Q909 1085 933 1098Q936 1087 944 1074T967 1048T1000 1028T1042 1020L1044 1014ZM866 432Q861 421 855 412T843 392L861 374Q862 388 863 403T866 432ZM858 307Q858 319 858 331T860 355L836 379Q822 354 807 329T775 279L858 307ZM1034 928Q1015 928 1000 901T972 827T950 720T933 594Q959 651 979 702T1014 794T1035 867T1043 914Q1043 928 1034 928ZM1036 -69Q1036 -35 1030 7T1009 95T972 190T916 286V273Q916 185 921 105T936 -35T963 -132T1001 -168Q1017 -168 1026 -141T1036 -69ZM404 205Q497 205 583 225T755 273Q792 329 826 388Q782 429 727 464T605 524T456 564T279 579Q218 579 171 565T91 526T41 471T24 407Q24 370 46 334T114 270T233 223T404 205ZM289 591Q383 591 463 577T610 537T733 477T833 401Q843 418 852 434T869 466Q879 560 895 646T934 799T982 905T1037 945Q1047 945 1051 935T1055 919Q1055 899 1047 863T1022 780T982 676T929 557Q924 496 921 437T916 325Q980 344 1042 357T1168 370Q1235 370 1275 361T1315 338Q1315 333 1310 329Q1303 333 1293 337T1268 346T1229 353T1174 356Q1113 356 1049 342T919 305Q953 258 977 209T1016 113T1038 22T1045 -59Q1045 -119 1030 -155T988 -191Q953 -191 928 -158T887 -68T864 64T856 224Q856 238 856 253T857 283Q831 274 805 265T752 245Q695 160 631 84T496 -49T351 -140T199 -174Q147 -174 97 -159T6 -116T-58 -49T-83 38Q-83 42 -83 45T-82 53L-74 50V42Q-74 -5 -53 -42T4 -105T88 -144T190 -158Q266 -158 339 -127T480 -41T611 85T730 237Q630 200 530 172T328 143Q244 143 180 164T71 220T5 299T-18 387Q-18 426 0 463T57 528T152 574T289 591Z"  />
<glyph unicode="&#xC1;" horiz-adv-x="1072" d="M938 1007Q962 1007 981 1015T1014 1035T1036 1060T1047 1085Q1060 1078 1065 1071T1070 1057Q1070 1044 1057 1034T1026 1016T988 1004T952 999Q944 999 936 1001L938 1007ZM866 432Q861 421 855 412T843 392L861 374Q862 388 863 403T866 432ZM858 307Q858 319 858 331T860 355L836 379Q822 354 807 329T775 279L858 307ZM1034 928Q1015 928 1000 901T972 827T950 720T933 594Q959 651 979 702T1014 794T1035 867T1043 914Q1043 928 1034 928ZM1036 -69Q1036 -35 1030 7T1009 95T972 190T916 286V273Q916 185 921 105T936 -35T963 -132T1001 -168Q1017 -168 1026 -141T1036 -69ZM404 205Q497 205 583 225T755 273Q792 329 826 388Q782 429 727 464T605 524T456 564T279 579Q218 579 171 565T91 526T41 471T24 407Q24 370 46 334T114 270T233 223T404 205ZM289 591Q383 591 463 577T610 537T733 477T833 401Q843 418 852 434T869 466Q879 560 895 646T934 799T982 905T1037 945Q1047 945 1051 935T1055 919Q1055 899 1047 863T1022 780T982 676T929 557Q924 496 921 437T916 325Q980 344 1042 357T1168 370Q1235 370 1275 361T1315 338Q1315 333 1310 329Q1303 333 1293 337T1268 346T1229 353T1174 356Q1113 356 1049 342T919 305Q953 258 977 209T1016 113T1038 22T1045 -59Q1045 -119 1030 -155T988 -191Q953 -191 928 -158T887 -68T864 64T856 224Q856 238 856 253T857 283Q831 274 805 265T752 245Q695 160 631 84T496 -49T351 -140T199 -174Q147 -174 97 -159T6 -116T-58 -49T-83 38Q-83 42 -83 45T-82 53L-74 50V42Q-74 -5 -53 -42T4 -105T88 -144T190 -158Q266 -158 339 -127T480 -41T611 85T730 237Q630 200 530 172T328 143Q244 143 180 164T71 220T5 299T-18 387Q-18 426 0 463T57 528T152 574T289 591Z"  />
<glyph unicode="&#xC2;" horiz-adv-x="1072" d="M1103 999V995Q1103 992 1100 992Q1074 1003 1054 1022T1020 1058Q1012 1049 1001 1040T977 1023T952 1009T931 998Q927 998 926 1001Q925 1003 925 1005Q956 1021 974 1044T996 1091Q1015 1102 1024 1102Q1032 1102 1037 1096T1048 1077Q1056 1058 1070 1036T1103 999ZM866 432Q861 421 855 412T843 392L861 374Q862 388 863 403T866 432ZM858 307Q858 319 858 331T860 355L836 379Q822 354 807 329T775 279L858 307ZM1034 928Q1015 928 1000 901T972 827T950 720T933 594Q959 651 979 702T1014 794T1035 867T1043 914Q1043 928 1034 928ZM1036 -69Q1036 -35 1030 7T1009 95T972 190T916 286V273Q916 185 921 105T936 -35T963 -132T1001 -168Q1017 -168 1026 -141T1036 -69ZM404 205Q497 205 583 225T755 273Q792 329 826 388Q782 429 727 464T605 524T456 564T279 579Q218 579 171 565T91 526T41 471T24 407Q24 370 46 334T114 270T233 223T404 205ZM289 591Q383 591 463 577T610 537T733 477T833 401Q843 418 852 434T869 466Q879 560 895 646T934 799T982 905T1037 945Q1047 945 1051 935T1055 919Q1055 899 1047 863T1022 780T982 676T929 557Q924 496 921 437T916 325Q980 344 1042 357T1168 370Q1235 370 1275 361T1315 338Q1315 333 1310 329Q1303 333 1293 337T1268 346T1229 353T1174 356Q1113 356 1049 342T919 305Q953 258 977 209T1016 113T1038 22T1045 -59Q1045 -119 1030 -155T988 -191Q953 -191 928 -158T887 -68T864 64T856 224Q856 238 856 253T857 283Q831 274 805 265T752 245Q695 160 631 84T496 -49T351 -140T199 -174Q147 -174 97 -159T6 -116T-58 -49T-83 38Q-83 42 -83 45T-82 53L-74 50V42Q-74 -5 -53 -42T4 -105T88 -144T190 -158Q266 -158 339 -127T480 -41T611 85T730 237Q630 200 530 172T328 143Q244 143 180 164T71 220T5 299T-18 387Q-18 426 0 463T57 528T152 574T289 591Z"  />
<glyph unicode="&#xC3;" horiz-adv-x="1072" d="M1116 1083Q1106 1054 1093 1043T1064 1032Q1052 1032 1040 1036T1016 1045T991 1054T968 1058Q956 1058 947 1051T930 1026L924 1035Q938 1065 952 1076T981 1087Q992 1087 1003 1083T1025 1074T1048 1064T1070 1060Q1091 1060 1109 1082L1116 1083ZM866 432Q861 421 855 412T843 392L861 374Q862 388 863 403T866 432ZM858 307Q858 319 858 331T860 355L836 379Q822 354 807 329T775 279L858 307ZM1034 928Q1015 928 1000 901T972 827T950 720T933 594Q959 651 979 702T1014 794T1035 867T1043 914Q1043 928 1034 928ZM1036 -69Q1036 -35 1030 7T1009 95T972 190T916 286V273Q916 185 921 105T936 -35T963 -132T1001 -168Q1017 -168 1026 -141T1036 -69ZM404 205Q497 205 583 225T755 273Q792 329 826 388Q782 429 727 464T605 524T456 564T279 579Q218 579 171 565T91 526T41 471T24 407Q24 370 46 334T114 270T233 223T404 205ZM289 591Q383 591 463 577T610 537T733 477T833 401Q843 418 852 434T869 466Q879 560 895 646T934 799T982 905T1037 945Q1047 945 1051 935T1055 919Q1055 899 1047 863T1022 780T982 676T929 557Q924 496 921 437T916 325Q980 344 1042 357T1168 370Q1235 370 1275 361T1315 338Q1315 333 1310 329Q1303 333 1293 337T1268 346T1229 353T1174 356Q1113 356 1049 342T919 305Q953 258 977 209T1016 113T1038 22T1045 -59Q1045 -119 1030 -155T988 -191Q953 -191 928 -158T887 -68T864 64T856 224Q856 238 856 253T857 283Q831 274 805 265T752 245Q695 160 631 84T496 -49T351 -140T199 -174Q147 -174 97 -159T6 -116T-58 -49T-83 38Q-83 42 -83 45T-82 53L-74 50V42Q-74 -5 -53 -42T4 -105T88 -144T190 -158Q266 -158 339 -127T480 -41T611 85T730 237Q630 200 530 172T328 143Q244 143 180 164T71 220T5 299T-18 387Q-18 426 0 463T57 528T152 574T289 591Z"  />
<glyph unicode="&#xC4;" horiz-adv-x="1072" d="M973 1082Q985 1082 990 1073T996 1053Q996 1038 987 1024T961 1010Q950 1010 944 1019T938 1039Q938 1054 947 1068T973 1082ZM1073 1082Q1085 1082 1090 1073T1096 1053Q1096 1038 1087 1024T1061 1010Q1050 1010 1044 1019T1038 1039Q1038 1054 1047 1068T1073 1082ZM866 432Q861 421 855 412T843 392L861 374Q862 388 863 403T866 432ZM858 307Q858 319 858 331T860 355L836 379Q822 354 807 329T775 279L858 307ZM1034 928Q1015 928 1000 901T972 827T950 720T933 594Q959 651 979 702T1014 794T1035 867T1043 914Q1043 928 1034 928ZM1036 -69Q1036 -35 1030 7T1009 95T972 190T916 286V273Q916 185 921 105T936 -35T963 -132T1001 -168Q1017 -168 1026 -141T1036 -69ZM404 205Q497 205 583 225T755 273Q792 329 826 388Q782 429 727 464T605 524T456 564T279 579Q218 579 171 565T91 526T41 471T24 407Q24 370 46 334T114 270T233 223T404 205ZM289 591Q383 591 463 577T610 537T733 477T833 401Q843 418 852 434T869 466Q879 560 895 646T934 799T982 905T1037 945Q1047 945 1051 935T1055 919Q1055 899 1047 863T1022 780T982 676T929 557Q924 496 921 437T916 325Q980 344 1042 357T1168 370Q1235 370 1275 361T1315 338Q1315 333 1310 329Q1303 333 1293 337T1268 346T1229 353T1174 356Q1113 356 1049 342T919 305Q953 258 977 209T1016 113T1038 22T1045 -59Q1045 -119 1030 -155T988 -191Q953 -191 928 -158T887 -68T864 64T856 224Q856 238 856 253T857 283Q831 274 805 265T752 245Q695 160 631 84T496 -49T351 -140T199 -174Q147 -174 97 -159T6 -116T-58 -49T-83 38Q-83 42 -83 45T-82 53L-74 50V42Q-74 -5 -53 -42T4 -105T88 -144T190 -158Q266 -158 339 -127T480 -41T611 85T730 237Q630 200 530 172T328 143Q244 143 180 164T71 220T5 299T-18 387Q-18 426 0 463T57 528T152 574T289 591Z"  />
<glyph unicode="&#xC5;" horiz-adv-x="1072" d="M1027 1080Q1013 1080 1006 1069T998 1045Q998 1034 1004 1026T1022 1017Q1036 1017 1043 1027T1050 1051Q1050 1062 1045 1071T1027 1080ZM1020 1000Q1002 1000 994 1012T985 1042Q985 1062 996 1079T1028 1097Q1046 1097 1055 1084T1064 1054Q1064 1034 1053 1017T1020 1000ZM866 432Q861 421 855 412T843 392L861 374Q862 388 863 403T866 432ZM858 307Q858 319 858 331T860 355L836 379Q822 354 807 329T775 279L858 307ZM1034 928Q1015 928 1000 901T972 827T950 720T933 594Q959 651 979 702T1014 794T1035 867T1043 914Q1043 928 1034 928ZM1036 -69Q1036 -35 1030 7T1009 95T972 190T916 286V273Q916 185 921 105T936 -35T963 -132T1001 -168Q1017 -168 1026 -141T1036 -69ZM404 205Q497 205 583 225T755 273Q792 329 826 388Q782 429 727 464T605 524T456 564T279 579Q218 579 171 565T91 526T41 471T24 407Q24 370 46 334T114 270T233 223T404 205ZM289 591Q383 591 463 577T610 537T733 477T833 401Q843 418 852 434T869 466Q879 560 895 646T934 799T982 905T1037 945Q1047 945 1051 935T1055 919Q1055 899 1047 863T1022 780T982 676T929 557Q924 496 921 437T916 325Q980 344 1042 357T1168 370Q1235 370 1275 361T1315 338Q1315 333 1310 329Q1303 333 1293 337T1268 346T1229 353T1174 356Q1113 356 1049 342T919 305Q953 258 977 209T1016 113T1038 22T1045 -59Q1045 -119 1030 -155T988 -191Q953 -191 928 -158T887 -68T864 64T856 224Q856 238 856 253T857 283Q831 274 805 265T752 245Q695 160 631 84T496 -49T351 -140T199 -174Q147 -174 97 -159T6 -116T-58 -49T-83 38Q-83 42 -83 45T-82 53L-74 50V42Q-74 -5 -53 -42T4 -105T88 -144T190 -158Q266 -158 339 -127T480 -41T611 85T730 237Q630 200 530 172T328 143Q244 143 180 164T71 220T5 299T-18 387Q-18 426 0 463T57 528T152 574T289 591Z"  />
<glyph unicode="&#xC6;" horiz-adv-x="1496" d="M866 432Q861 421 855 412T843 392L861 374Q862 388 863 403T866 432ZM1164 474Q1134 473 1107 463Q1126 445 1148 438T1189 431Q1206 431 1217 436T1229 449Q1229 459 1221 464T1202 471T1180 473T1164 474ZM858 307Q858 319 858 331T860 355L836 379Q822 354 807 329T775 279L858 307ZM937 201Q937 137 961 79T1033 -16Q1026 41 1004 110T940 248Q937 225 937 201ZM1036 -56Q1003 -45 976 -28T929 9Q940 -71 957 -119T1001 -168Q1017 -168 1026 -141T1036 -69V-56ZM1034 928Q1015 928 1000 901T972 827T950 720T933 594Q959 651 979 702T1014 794T1035 867T1043 914Q1043 928 1034 928ZM404 205Q497 205 583 225T755 273Q792 329 826 388Q782 429 727 464T605 524T456 564T279 579Q218 579 171 565T91 526T41 471T24 407Q24 370 46 334T114 270T233 223T404 205ZM289 591Q383 591 463 577T610 537T733 477T833 401Q843 418 852 434T869 466Q879 560 895 646T934 799T982 905T1037 945Q1047 945 1051 935T1055 919Q1055 899 1047 863T1022 780T982 676T929 557Q924 507 922 459T917 365Q940 398 971 424T1044 467Q1026 487 1015 513T1003 574Q1003 623 1022 659T1073 720T1142 756T1219 768Q1249 768 1276 761T1323 740T1356 704T1369 656Q1369 624 1354 609T1327 594Q1315 594 1315 605Q1325 609 1333 616Q1340 622 1345 632T1351 659Q1351 680 1341 698T1312 728T1271 748T1223 755Q1195 755 1167 745T1117 713T1082 656T1068 570Q1068 541 1074 520T1091 482Q1110 487 1129 489T1171 492Q1195 492 1210 487T1235 476T1247 463T1250 453Q1250 433 1230 423T1179 413Q1153 413 1124 421T1068 447Q1034 429 1009 402T967 339Q1018 353 1067 361T1168 370Q1235 370 1275 361T1315 338Q1315 333 1310 329Q1303 333 1293 337T1268 346T1229 353T1174 356Q1122 356 1068 345T958 317Q949 292 943 268Q991 192 1014 116T1043 -24Q1069 -41 1101 -51T1173 -61Q1228 -61 1271 -41T1346 10T1393 81T1410 157Q1410 196 1399 224T1370 271T1328 299T1278 308Q1247 308 1216 296T1157 262T1110 205T1082 128H1078Q1074 128 1070 129T1065 137Q1074 183 1096 217T1150 275T1218 310T1291 322Q1324 322 1353 313T1406 284T1442 237T1456 169Q1456 127 1436 84T1379 5T1288 -53T1167 -76Q1099 -76 1045 -59Q1045 -119 1030 -155T988 -191Q953 -191 928 -158T887 -68T864 64T856 224Q856 238 856 253T857 283Q831 274 805 265T752 245Q695 160 631 84T496 -49T351 -140T199 -174Q147 -174 97 -159T6 -116T-58 -49T-83 38Q-83 42 -83 45T-82 53L-74 50V42Q-74 -5 -53 -42T4 -105T88 -144T190 -158Q266 -158 339 -127T480 -41T611 85T730 237Q630 200 530 172T328 143Q244 143 180 164T71 220T5 299T-18 387Q-18 426 0 463T57 528T152 574T289 591Z"  />
<glyph unicode="&#xC7;" horiz-adv-x="662" d="M330 -81Q319 -81 309 -81T289 -79Q286 -85 283 -93T279 -106H293Q327 -106 341 -115T355 -136Q355 -153 335 -168T284 -184Q257 -184 232 -169L236 -162Q248 -168 259 -170T279 -173Q297 -173 306 -165T316 -148Q316 -139 307 -132T278 -125Q260 -125 260 -117Q260 -110 265 -101T276 -78Q198 -69 142 -35T48 49T-6 163T-24 294Q-24 383 4 472T87 632T218 748T394 793Q441 793 482 780T555 738T604 669T622 571Q622 530 609 491T570 422T507 373T422 354Q384 354 357 365T312 394T286 437T277 489Q277 523 289 558T323 622T378 672T449 696Q456 696 456 693Q456 692 454 690Q453 689 453 688Q420 682 394 663T350 616T322 558T312 495Q312 470 319 447T340 407T377 380T431 369Q467 369 495 384T542 425T572 484T582 553Q582 608 566 649T523 718T459 760T383 774Q301 774 237 733T130 626T63 476T40 309Q40 236 57 169T111 49T204 -34T336 -66Q391 -66 434 -46T509 5T556 76T573 152Q573 191 562 219T533 266T491 294T441 303Q410 303 379 291T320 257T273 200T245 123Q238 123 233 125T228 135Q237 180 259 214T313 271T381 305T454 317Q487 317 516 308T569 279T605 232T619 164Q619 122 599 79T542 0T451 -58T330 -81Z"  />
<glyph unicode="&#xC8;" horiz-adv-x="634" d="M405 819Q400 817 387 817Q371 817 351 821T312 834T282 852T270 875Q270 890 294 903Q297 892 305 879T328 853T361 833T403 825L405 819ZM302 474Q272 473 245 463Q264 445 286 438T327 431Q344 431 355 436T367 449Q367 459 359 464T340 471T318 473T302 474ZM507 656Q507 624 492 609T465 594Q453 594 453 605Q463 609 471 616Q478 622 483 632T489 659Q489 680 479 698T450 728T409 748T361 755Q333 755 305 745T255 713T220 656T206 570Q206 541 212 520T229 482Q248 487 267 489T309 492Q333 492 348 487T373 476T385 463T388 453Q388 433 368 423T317 413Q291 413 262 421T206 447Q173 430 149 403T108 344T83 275T75 201Q75 151 89 104T133 21T207 -38T311 -61Q366 -61 409 -41T484 10T531 81T548 157Q548 196 537 224T508 271T466 299T416 308Q385 308 354 296T295 262T248 205T220 128H216Q212 128 208 129T203 137Q212 183 234 217T288 275T356 310T429 322Q462 322 491 313T544 284T580 237T594 169Q594 127 574 84T517 5T426 -53T305 -76Q225 -76 168 -54T72 5T16 89T-2 188Q-2 230 10 272T45 351T103 418T182 467Q164 487 153 513T141 574Q141 623 160 659T211 720T280 756T357 768Q387 768 414 761T461 740T494 704T507 656Z"  />
<glyph unicode="&#xC9;" horiz-adv-x="634" d="M277 800Q301 800 320 808T353 828T375 853T386 878Q399 871 404 864T409 850Q409 837 396 827T365 809T327 797T291 792Q283 792 275 794L277 800ZM302 474Q272 473 245 463Q264 445 286 438T327 431Q344 431 355 436T367 449Q367 459 359 464T340 471T318 473T302 474ZM507 656Q507 624 492 609T465 594Q453 594 453 605Q463 609 471 616Q478 622 483 632T489 659Q489 680 479 698T450 728T409 748T361 755Q333 755 305 745T255 713T220 656T206 570Q206 541 212 520T229 482Q248 487 267 489T309 492Q333 492 348 487T373 476T385 463T388 453Q388 433 368 423T317 413Q291 413 262 421T206 447Q173 430 149 403T108 344T83 275T75 201Q75 151 89 104T133 21T207 -38T311 -61Q366 -61 409 -41T484 10T531 81T548 157Q548 196 537 224T508 271T466 299T416 308Q385 308 354 296T295 262T248 205T220 128H216Q212 128 208 129T203 137Q212 183 234 217T288 275T356 310T429 322Q462 322 491 313T544 284T580 237T594 169Q594 127 574 84T517 5T426 -53T305 -76Q225 -76 168 -54T72 5T16 89T-2 188Q-2 230 10 272T45 351T103 418T182 467Q164 487 153 513T141 574Q141 623 160 659T211 720T280 756T357 768Q387 768 414 761T461 740T494 704T507 656Z"  />
<glyph unicode="&#xCA;" horiz-adv-x="634" d="M435 806V802Q435 799 432 799Q406 810 386 829T352 865Q344 856 333 847T309 830T284 816T263 805Q259 805 258 808Q257 810 257 812Q288 828 306 851T328 898Q347 909 356 909Q364 909 369 903T380 884Q388 865 402 843T435 806ZM302 474Q272 473 245 463Q264 445 286 438T327 431Q344 431 355 436T367 449Q367 459 359 464T340 471T318 473T302 474ZM507 656Q507 624 492 609T465 594Q453 594 453 605Q463 609 471 616Q478 622 483 632T489 659Q489 680 479 698T450 728T409 748T361 755Q333 755 305 745T255 713T220 656T206 570Q206 541 212 520T229 482Q248 487 267 489T309 492Q333 492 348 487T373 476T385 463T388 453Q388 433 368 423T317 413Q291 413 262 421T206 447Q173 430 149 403T108 344T83 275T75 201Q75 151 89 104T133 21T207 -38T311 -61Q366 -61 409 -41T484 10T531 81T548 157Q548 196 537 224T508 271T466 299T416 308Q385 308 354 296T295 262T248 205T220 128H216Q212 128 208 129T203 137Q212 183 234 217T288 275T356 310T429 322Q462 322 491 313T544 284T580 237T594 169Q594 127 574 84T517 5T426 -53T305 -76Q225 -76 168 -54T72 5T16 89T-2 188Q-2 230 10 272T45 351T103 418T182 467Q164 487 153 513T141 574Q141 623 160 659T211 720T280 756T357 768Q387 768 414 761T461 740T494 704T507 656Z"  />
<glyph unicode="&#xCB;" horiz-adv-x="634" d="M296 885Q308 885 313 876T319 856Q319 841 310 827T284 813Q273 813 267 822T261 842Q261 857 270 871T296 885ZM396 885Q408 885 413 876T419 856Q419 841 410 827T384 813Q373 813 367 822T361 842Q361 857 370 871T396 885ZM302 474Q272 473 245 463Q264 445 286 438T327 431Q344 431 355 436T367 449Q367 459 359 464T340 471T318 473T302 474ZM507 656Q507 624 492 609T465 594Q453 594 453 605Q463 609 471 616Q478 622 483 632T489 659Q489 680 479 698T450 728T409 748T361 755Q333 755 305 745T255 713T220 656T206 570Q206 541 212 520T229 482Q248 487 267 489T309 492Q333 492 348 487T373 476T385 463T388 453Q388 433 368 423T317 413Q291 413 262 421T206 447Q173 430 149 403T108 344T83 275T75 201Q75 151 89 104T133 21T207 -38T311 -61Q366 -61 409 -41T484 10T531 81T548 157Q548 196 537 224T508 271T466 299T416 308Q385 308 354 296T295 262T248 205T220 128H216Q212 128 208 129T203 137Q212 183 234 217T288 275T356 310T429 322Q462 322 491 313T544 284T580 237T594 169Q594 127 574 84T517 5T426 -53T305 -76Q225 -76 168 -54T72 5T16 89T-2 188Q-2 230 10 272T45 351T103 418T182 467Q164 487 153 513T141 574Q141 623 160 659T211 720T280 756T357 768Q387 768 414 761T461 740T494 704T507 656Z"  />
<glyph unicode="&#xCC;" horiz-adv-x="668" d="M721 897Q716 895 703 895Q687 895 667 899T628 912T598 930T586 953Q586 968 610 981Q613 970 621 957T644 931T677 911T719 903L721 897ZM342 558Q342 599 359 629T406 683T472 722T547 749T623 767T690 779Q713 804 732 817T765 831Q786 831 786 818Q786 812 782 806T770 795Q759 788 742 783T702 773Q681 744 668 709T646 637T633 564T625 495Q624 479 622 451T618 389T613 323T606 264Q594 182 562 118T479 10T363 -58T219 -82Q157 -82 111 -64T34 -15T-12 56T-27 138Q-27 186 -8 234T50 320T144 381T276 405Q306 405 335 399T389 381T434 355T466 324Q466 321 464 321H462Q461 321 461 322Q456 326 441 336T402 357T346 376T273 385Q212 385 163 361T80 299T27 214T8 119Q8 81 20 47T59 -13T127 -55T225 -71Q260 -71 297 -64T370 -38T436 13T491 97T528 220T542 389Q542 448 554 503T587 608T631 698T681 769Q650 763 615 756T546 739T480 714T424 676T385 624T370 553Q370 524 379 496T405 444T446 406T500 388L501 387Q501 386 501 386T502 384Q502 379 492 379Q459 385 432 402T384 444T353 497T342 558Z"  />
<glyph unicode="&#xCD;" horiz-adv-x="668" d="M582 867Q606 867 625 875T658 895T680 920T691 945Q704 938 709 931T714 917Q714 904 701 894T670 876T632 864T596 859Q588 859 580 861L582 867ZM342 558Q342 599 359 629T406 683T472 722T547 749T623 767T690 779Q713 804 732 817T765 831Q786 831 786 818Q786 812 782 806T770 795Q759 788 742 783T702 773Q681 744 668 709T646 637T633 564T625 495Q624 479 622 451T618 389T613 323T606 264Q594 182 562 118T479 10T363 -58T219 -82Q157 -82 111 -64T34 -15T-12 56T-27 138Q-27 186 -8 234T50 320T144 381T276 405Q306 405 335 399T389 381T434 355T466 324Q466 321 464 321H462Q461 321 461 322Q456 326 441 336T402 357T346 376T273 385Q212 385 163 361T80 299T27 214T8 119Q8 81 20 47T59 -13T127 -55T225 -71Q260 -71 297 -64T370 -38T436 13T491 97T528 220T542 389Q542 448 554 503T587 608T631 698T681 769Q650 763 615 756T546 739T480 714T424 676T385 624T370 553Q370 524 379 496T405 444T446 406T500 388L501 387Q501 386 501 386T502 384Q502 379 492 379Q459 385 432 402T384 444T353 497T342 558Z"  />
<glyph unicode="&#xCE;" horiz-adv-x="668" d="M741 874V870Q741 867 738 867Q712 878 692 897T658 933Q650 924 639 915T615 898T590 884T569 873Q565 873 564 876Q563 878 563 880Q594 896 612 919T634 966Q653 977 662 977Q670 977 675 971T686 952Q694 933 708 911T741 874ZM342 558Q342 599 359 629T406 683T472 722T547 749T623 767T690 779Q713 804 732 817T765 831Q786 831 786 818Q786 812 782 806T770 795Q759 788 742 783T702 773Q681 744 668 709T646 637T633 564T625 495Q624 479 622 451T618 389T613 323T606 264Q594 182 562 118T479 10T363 -58T219 -82Q157 -82 111 -64T34 -15T-12 56T-27 138Q-27 186 -8 234T50 320T144 381T276 405Q306 405 335 399T389 381T434 355T466 324Q466 321 464 321H462Q461 321 461 322Q456 326 441 336T402 357T346 376T273 385Q212 385 163 361T80 299T27 214T8 119Q8 81 20 47T59 -13T127 -55T225 -71Q260 -71 297 -64T370 -38T436 13T491 97T528 220T542 389Q542 448 554 503T587 608T631 698T681 769Q650 763 615 756T546 739T480 714T424 676T385 624T370 553Q370 524 379 496T405 444T446 406T500 388L501 387Q501 386 501 386T502 384Q502 379 492 379Q459 385 432 402T384 444T353 497T342 558Z"  />
<glyph unicode="&#xCF;" horiz-adv-x="668" d="M547 918Q559 918 564 909T570 889Q570 874 561 860T535 846Q524 846 518 855T512 875Q512 890 521 904T547 918ZM647 918Q659 918 664 909T670 889Q670 874 661 860T635 846Q624 846 618 855T612 875Q612 890 621 904T647 918ZM342 558Q342 599 359 629T406 683T472 722T547 749T623 767T690 779Q713 804 732 817T765 831Q786 831 786 818Q786 812 782 806T770 795Q759 788 742 783T702 773Q681 744 668 709T646 637T633 564T625 495Q624 479 622 451T618 389T613 323T606 264Q594 182 562 118T479 10T363 -58T219 -82Q157 -82 111 -64T34 -15T-12 56T-27 138Q-27 186 -8 234T50 320T144 381T276 405Q306 405 335 399T389 381T434 355T466 324Q466 321 464 321H462Q461 321 461 322Q456 326 441 336T402 357T346 376T273 385Q212 385 163 361T80 299T27 214T8 119Q8 81 20 47T59 -13T127 -55T225 -71Q260 -71 297 -64T370 -38T436 13T491 97T528 220T542 389Q542 448 554 503T587 608T631 698T681 769Q650 763 615 756T546 739T480 714T424 676T385 624T370 553Q370 524 379 496T405 444T446 406T500 388L501 387Q501 386 501 386T502 384Q502 379 492 379Q459 385 432 402T384 444T353 497T342 558Z"  />
<glyph unicode="&#xD0;" horiz-adv-x="957" d="M135 -136Q215 -136 270 -114T363 -50Q301 -29 241 -9T130 11Q62 11 32 -8T2 -53Q2 -68 11 -83T38 -109T80 -128T135 -136ZM379 110Q387 143 402 154T436 166Q442 166 445 165Q447 174 447 183T449 202Q451 239 453 268T456 323T459 373T464 424Q469 481 480 527T512 611T561 679T633 732Q641 736 643 736Q648 736 648 729Q623 716 606 699T576 658Q562 631 555 604T543 548T538 490T535 432Q532 393 531 362T527 302T521 246T513 187Q511 178 510 170T506 153Q511 152 515 152T525 152Q540 152 553 157T577 180Q568 144 554 132T520 119Q515 119 510 119T498 121Q470 20 404 -46Q442 -57 478 -64T548 -72Q625 -72 684 -37T782 57T842 192T863 351Q863 449 834 546T746 722T597 848T386 897Q263 897 172 860T19 763T-72 632T-102 489Q-102 439 -87 394T-41 316T35 262T142 242Q191 242 229 253T296 282T345 321T378 362Q379 362 382 361T385 359Q366 319 337 293T273 250T201 226T127 219Q62 219 13 241T-71 302T-122 391T-140 496Q-140 568 -109 642T-12 777T154 875T393 913Q529 913 629 865T796 740T894 565T927 368Q927 280 902 198T827 53T704 -49T533 -87Q501 -87 465 -79T391 -59Q341 -104 274 -127T123 -151Q76 -151 41 -143T-17 -122T-51 -92T-63 -57Q-63 -40 -52 -24T-20 6T34 27T109 35Q136 35 167 28T233 11T302 -12T374 -37Q401 -3 417 40T442 135Q438 135 435 135T428 136Q414 136 402 131T379 110Z"  />
<glyph unicode="&#xD1;" horiz-adv-x="997" d="M976 927Q966 898 953 887T924 876Q912 876 900 880T876 889T851 898T828 902Q816 902 807 895T790 870L784 879Q798 909 812 920T841 931Q852 931 863 927T885 918T908 908T930 904Q951 904 969 926L976 927ZM668 744Q668 715 675 681T697 606Q699 631 700 654T702 697Q702 742 697 768T681 794Q676 794 674 788T670 773T668 756T668 744ZM1189 745Q1124 745 1078 708T999 608T948 466T919 299T905 128T901 -29Q901 -42 899 -56T887 -71Q884 -71 884 -64Q884 -30 864 27T815 154T752 305T692 465Q679 403 659 340T611 216T544 104T457 12T349 -50T217 -73Q146 -73 94 -51T7 7T-45 89T-62 186Q-62 239 -43 291T15 384T109 450T241 475Q272 475 308 465T376 431T428 372T450 284Q450 277 443 277Q439 277 438 278Q437 278 436 279Q436 321 421 355T378 414T312 452T230 466Q171 466 127 443T52 383T7 297T-8 200Q-8 152 6 107T50 27T123 -30T227 -52Q296 -52 353 -28T457 37T540 132T604 247T651 373T681 499Q664 555 654 607T644 707Q644 749 656 777T686 806Q700 806 708 772T716 680Q716 656 715 628T709 571Q731 511 759 446T814 316T860 194T886 91L889 92Q894 168 901 248T921 404T955 547T1011 664T1095 744T1214 774Q1230 774 1244 770T1270 760T1288 746T1295 730Q1295 712 1264 699Q1259 711 1249 722Q1241 730 1227 737T1189 745Z"  />
<glyph unicode="&#xD2;" horiz-adv-x="615" d="M385 812Q380 810 367 810Q351 810 331 814T292 827T262 845T250 868Q250 883 274 896Q277 885 285 872T308 846T341 826T383 818L385 812ZM108 190Q108 131 117 77T148 -25Q171 -45 199 -56T263 -68Q330 -68 382 -30T470 70T524 208T543 358Q543 415 532 466T497 557T438 619T353 642Q298 642 253 602T176 498T126 353T108 190ZM359 761Q400 761 433 746T491 705T528 647T542 580L540 578Q539 577 535 577Q530 577 530 585Q530 612 519 640T486 692T430 731T351 746Q280 746 225 702T131 587T73 430T52 258Q52 183 68 117T118 5Q91 91 91 191Q91 275 110 358T164 508T251 615T365 656Q419 656 459 632T525 565T565 469T578 354Q578 278 557 201T495 61T394 -40T253 -80Q230 -80 210 -77T170 -67Q202 -118 251 -149T371 -180Q418 -180 458 -163T527 -118T572 -52T589 27Q589 35 588 44Q587 52 586 61T582 79Q582 85 587 85Q593 85 595 81Q597 78 599 68T602 35Q602 -13 584 -55T535 -127T460 -175T364 -193Q286 -193 233 -156T146 -58Q104 -39 73 -7T21 69T-10 162T-20 267Q-20 354 5 442T78 601T197 716T359 761Z"  />
<glyph unicode="&#xD3;" horiz-adv-x="615" d="M264 805Q288 805 307 813T340 833T362 858T373 883Q386 876 391 869T396 855Q396 842 383 832T352 814T314 802T278 797Q270 797 262 799L264 805ZM108 190Q108 131 117 77T148 -25Q171 -45 199 -56T263 -68Q330 -68 382 -30T470 70T524 208T543 358Q543 415 532 466T497 557T438 619T353 642Q298 642 253 602T176 498T126 353T108 190ZM359 761Q400 761 433 746T491 705T528 647T542 580L540 578Q539 577 535 577Q530 577 530 585Q530 612 519 640T486 692T430 731T351 746Q280 746 225 702T131 587T73 430T52 258Q52 183 68 117T118 5Q91 91 91 191Q91 275 110 358T164 508T251 615T365 656Q419 656 459 632T525 565T565 469T578 354Q578 278 557 201T495 61T394 -40T253 -80Q230 -80 210 -77T170 -67Q202 -118 251 -149T371 -180Q418 -180 458 -163T527 -118T572 -52T589 27Q589 35 588 44Q587 52 586 61T582 79Q582 85 587 85Q593 85 595 81Q597 78 599 68T602 35Q602 -13 584 -55T535 -127T460 -175T364 -193Q286 -193 233 -156T146 -58Q104 -39 73 -7T21 69T-10 162T-20 267Q-20 354 5 442T78 601T197 716T359 761Z"  />
<glyph unicode="&#xD4;" horiz-adv-x="615" d="M412 805V801Q412 798 409 798Q383 809 363 828T329 864Q321 855 310 846T286 829T261 815T240 804Q236 804 235 807Q234 809 234 811Q265 827 283 850T305 897Q324 908 333 908Q341 908 346 902T357 883Q365 864 379 842T412 805ZM108 190Q108 131 117 77T148 -25Q171 -45 199 -56T263 -68Q330 -68 382 -30T470 70T524 208T543 358Q543 415 532 466T497 557T438 619T353 642Q298 642 253 602T176 498T126 353T108 190ZM359 761Q400 761 433 746T491 705T528 647T542 580L540 578Q539 577 535 577Q530 577 530 585Q530 612 519 640T486 692T430 731T351 746Q280 746 225 702T131 587T73 430T52 258Q52 183 68 117T118 5Q91 91 91 191Q91 275 110 358T164 508T251 615T365 656Q419 656 459 632T525 565T565 469T578 354Q578 278 557 201T495 61T394 -40T253 -80Q230 -80 210 -77T170 -67Q202 -118 251 -149T371 -180Q418 -180 458 -163T527 -118T572 -52T589 27Q589 35 588 44Q587 52 586 61T582 79Q582 85 587 85Q593 85 595 81Q597 78 599 68T602 35Q602 -13 584 -55T535 -127T460 -175T364 -193Q286 -193 233 -156T146 -58Q104 -39 73 -7T21 69T-10 162T-20 267Q-20 354 5 442T78 601T197 716T359 761Z"  />
<glyph unicode="&#xD5;" horiz-adv-x="615" d="M415 869Q405 840 392 829T363 818Q351 818 339 822T315 831T290 840T267 844Q255 844 246 837T229 812L223 821Q237 851 251 862T280 873Q291 873 302 869T324 860T347 850T369 846Q390 846 408 868L415 869ZM108 190Q108 131 117 77T148 -25Q171 -45 199 -56T263 -68Q330 -68 382 -30T470 70T524 208T543 358Q543 415 532 466T497 557T438 619T353 642Q298 642 253 602T176 498T126 353T108 190ZM359 761Q400 761 433 746T491 705T528 647T542 580L540 578Q539 577 535 577Q530 577 530 585Q530 612 519 640T486 692T430 731T351 746Q280 746 225 702T131 587T73 430T52 258Q52 183 68 117T118 5Q91 91 91 191Q91 275 110 358T164 508T251 615T365 656Q419 656 459 632T525 565T565 469T578 354Q578 278 557 201T495 61T394 -40T253 -80Q230 -80 210 -77T170 -67Q202 -118 251 -149T371 -180Q418 -180 458 -163T527 -118T572 -52T589 27Q589 35 588 44Q587 52 586 61T582 79Q582 85 587 85Q593 85 595 81Q597 78 599 68T602 35Q602 -13 584 -55T535 -127T460 -175T364 -193Q286 -193 233 -156T146 -58Q104 -39 73 -7T21 69T-10 162T-20 267Q-20 354 5 442T78 601T197 716T359 761Z"  />
<glyph unicode="&#xD6;" horiz-adv-x="615" d="M273 886Q285 886 290 877T296 857Q296 842 287 828T261 814Q250 814 244 823T238 843Q238 858 247 872T273 886ZM373 886Q385 886 390 877T396 857Q396 842 387 828T361 814Q350 814 344 823T338 843Q338 858 347 872T373 886ZM108 190Q108 131 117 77T148 -25Q171 -45 199 -56T263 -68Q330 -68 382 -30T470 70T524 208T543 358Q543 415 532 466T497 557T438 619T353 642Q298 642 253 602T176 498T126 353T108 190ZM359 761Q400 761 433 746T491 705T528 647T542 580L540 578Q539 577 535 577Q530 577 530 585Q530 612 519 640T486 692T430 731T351 746Q280 746 225 702T131 587T73 430T52 258Q52 183 68 117T118 5Q91 91 91 191Q91 275 110 358T164 508T251 615T365 656Q419 656 459 632T525 565T565 469T578 354Q578 278 557 201T495 61T394 -40T253 -80Q230 -80 210 -77T170 -67Q202 -118 251 -149T371 -180Q418 -180 458 -163T527 -118T572 -52T589 27Q589 35 588 44Q587 52 586 61T582 79Q582 85 587 85Q593 85 595 81Q597 78 599 68T602 35Q602 -13 584 -55T535 -127T460 -175T364 -193Q286 -193 233 -156T146 -58Q104 -39 73 -7T21 69T-10 162T-20 267Q-20 354 5 442T78 601T197 716T359 761Z"  />
<glyph unicode="&#xD8;" horiz-adv-x="615" d="M112 25L108 19Q110 15 112 12T118 5L112 25ZM365 656Q397 656 423 647T472 622L503 669Q482 701 444 723T351 746Q280 746 225 702T131 587T73 430T52 258Q52 197 62 142T96 41L105 54Q97 87 94 121T91 191Q91 275 110 358T164 508T251 615T365 656ZM108 190Q108 160 110 131T118 75Q157 135 200 203T288 340T376 476T459 602Q438 621 412 631T353 642Q298 642 253 602T176 498T126 353T108 190ZM543 358Q543 428 526 489T472 590Q433 529 389 460T299 320T209 178T124 44Q133 8 148 -25Q171 -45 199 -56T263 -68Q330 -68 382 -30T470 70T524 208T543 358ZM-36 -171Q-31 -162 -4 -117T68 -2Q23 46 2 116T-20 267Q-20 354 5 442T78 601T197 716T359 761Q409 761 448 739T511 681L613 838Q617 843 621 843Q629 843 629 832Q629 825 625 820Q615 807 588 766T520 665Q542 624 542 580L540 578Q539 577 535 577Q530 577 530 585Q530 619 513 653Q499 633 486 611Q532 570 555 502T578 354Q578 278 557 201T495 61T394 -40T253 -80Q230 -80 210 -77T170 -67Q202 -118 251 -149T371 -180Q418 -180 458 -163T527 -118T572 -52T589 27Q589 35 588 44Q587 52 586 61T582 79Q582 85 587 85Q593 85 595 81Q597 78 599 68T602 35Q602 -13 584 -55T535 -127T460 -175T364 -193Q286 -193 233 -156T146 -58Q110 -42 84 -18Q52 -69 27 -110T-14 -178Q-19 -184 -25 -184Q-35 -184 -36 -171Z"  />
<glyph unicode="&#xD9;" horiz-adv-x="759" d="M633 791Q628 789 615 789Q599 789 579 793T540 806T510 824T498 847Q498 862 522 875Q525 864 533 851T556 825T589 805T631 797L633 791ZM743 668Q735 668 725 645T703 582T679 490T657 380T638 262T625 147Q656 206 682 272T726 401T754 520T764 613Q764 639 759 653T743 668ZM621 55Q621 8 626 -31T642 -99T672 -144T718 -160Q735 -160 752 -145T784 -102T808 -39T819 40H826Q826 -11 815 -51T786 -119T746 -162T701 -177Q669 -177 646 -161T607 -117T582 -49T569 37Q531 -8 490 -35T403 -62Q368 -62 344 -52T306 -22T285 24T279 84Q279 141 293 212T325 356T357 501T372 630Q372 664 366 691T344 739T304 770T242 781Q170 781 115 747T22 658T-35 539T-55 413Q-55 374 -47 339T-21 278T21 236T82 221Q132 221 168 252T229 329T265 430T277 533Q277 551 275 567T270 598Q270 600 270 601T269 603Q269 610 275 610Q278 610 282 608Q284 607 285 607Q293 570 293 531Q293 476 279 418T237 312T166 233T66 202Q25 202 -6 219T-57 266T-88 335T-99 419Q-99 482 -78 548T-13 669T96 758T250 793Q301 793 334 778T388 734T416 669T425 586Q425 522 413 449T385 304T357 167T344 52Q344 6 359 -21T414 -48Q456 -48 494 -20T568 56Q567 68 567 80T567 106Q567 162 575 226T597 354T629 477T668 582T710 655T750 682Q767 682 775 662T783 607Q783 564 772 503T739 375T689 239T623 111Q621 96 621 82T621 55Z"  />
<glyph unicode="&#xDA;" horiz-adv-x="759" d="M482 827Q506 827 525 835T558 855T580 880T591 905Q604 898 609 891T614 877Q614 864 601 854T570 836T532 824T496 819Q488 819 480 821L482 827ZM743 668Q735 668 725 645T703 582T679 490T657 380T638 262T625 147Q656 206 682 272T726 401T754 520T764 613Q764 639 759 653T743 668ZM621 55Q621 8 626 -31T642 -99T672 -144T718 -160Q735 -160 752 -145T784 -102T808 -39T819 40H826Q826 -11 815 -51T786 -119T746 -162T701 -177Q669 -177 646 -161T607 -117T582 -49T569 37Q531 -8 490 -35T403 -62Q368 -62 344 -52T306 -22T285 24T279 84Q279 141 293 212T325 356T357 501T372 630Q372 664 366 691T344 739T304 770T242 781Q170 781 115 747T22 658T-35 539T-55 413Q-55 374 -47 339T-21 278T21 236T82 221Q132 221 168 252T229 329T265 430T277 533Q277 551 275 567T270 598Q270 600 270 601T269 603Q269 610 275 610Q278 610 282 608Q284 607 285 607Q293 570 293 531Q293 476 279 418T237 312T166 233T66 202Q25 202 -6 219T-57 266T-88 335T-99 419Q-99 482 -78 548T-13 669T96 758T250 793Q301 793 334 778T388 734T416 669T425 586Q425 522 413 449T385 304T357 167T344 52Q344 6 359 -21T414 -48Q456 -48 494 -20T568 56Q567 68 567 80T567 106Q567 162 575 226T597 354T629 477T668 582T710 655T750 682Q767 682 775 662T783 607Q783 564 772 503T739 375T689 239T623 111Q621 96 621 82T621 55Z"  />
<glyph unicode="&#xDB;" horiz-adv-x="759" d="M643 813V809Q643 806 640 806Q614 817 594 836T560 872Q552 863 541 854T517 837T492 823T471 812Q467 812 466 815Q465 817 465 819Q496 835 514 858T536 905Q555 916 564 916Q572 916 577 910T588 891Q596 872 610 850T643 813ZM743 668Q735 668 725 645T703 582T679 490T657 380T638 262T625 147Q656 206 682 272T726 401T754 520T764 613Q764 639 759 653T743 668ZM621 55Q621 8 626 -31T642 -99T672 -144T718 -160Q735 -160 752 -145T784 -102T808 -39T819 40H826Q826 -11 815 -51T786 -119T746 -162T701 -177Q669 -177 646 -161T607 -117T582 -49T569 37Q531 -8 490 -35T403 -62Q368 -62 344 -52T306 -22T285 24T279 84Q279 141 293 212T325 356T357 501T372 630Q372 664 366 691T344 739T304 770T242 781Q170 781 115 747T22 658T-35 539T-55 413Q-55 374 -47 339T-21 278T21 236T82 221Q132 221 168 252T229 329T265 430T277 533Q277 551 275 567T270 598Q270 600 270 601T269 603Q269 610 275 610Q278 610 282 608Q284 607 285 607Q293 570 293 531Q293 476 279 418T237 312T166 233T66 202Q25 202 -6 219T-57 266T-88 335T-99 419Q-99 482 -78 548T-13 669T96 758T250 793Q301 793 334 778T388 734T416 669T425 586Q425 522 413 449T385 304T357 167T344 52Q344 6 359 -21T414 -48Q456 -48 494 -20T568 56Q567 68 567 80T567 106Q567 162 575 226T597 354T629 477T668 582T710 655T750 682Q767 682 775 662T783 607Q783 564 772 503T739 375T689 239T623 111Q621 96 621 82T621 55Z"  />
<glyph unicode="&#xDC;" horiz-adv-x="759" d="M492 893Q504 893 509 884T515 864Q515 849 506 835T480 821Q469 821 463 830T457 850Q457 865 466 879T492 893ZM592 893Q604 893 609 884T615 864Q615 849 606 835T580 821Q569 821 563 830T557 850Q557 865 566 879T592 893ZM743 668Q735 668 725 645T703 582T679 490T657 380T638 262T625 147Q656 206 682 272T726 401T754 520T764 613Q764 639 759 653T743 668ZM621 55Q621 8 626 -31T642 -99T672 -144T718 -160Q735 -160 752 -145T784 -102T808 -39T819 40H826Q826 -11 815 -51T786 -119T746 -162T701 -177Q669 -177 646 -161T607 -117T582 -49T569 37Q531 -8 490 -35T403 -62Q368 -62 344 -52T306 -22T285 24T279 84Q279 141 293 212T325 356T357 501T372 630Q372 664 366 691T344 739T304 770T242 781Q170 781 115 747T22 658T-35 539T-55 413Q-55 374 -47 339T-21 278T21 236T82 221Q132 221 168 252T229 329T265 430T277 533Q277 551 275 567T270 598Q270 600 270 601T269 603Q269 610 275 610Q278 610 282 608Q284 607 285 607Q293 570 293 531Q293 476 279 418T237 312T166 233T66 202Q25 202 -6 219T-57 266T-88 335T-99 419Q-99 482 -78 548T-13 669T96 758T250 793Q301 793 334 778T388 734T416 669T425 586Q425 522 413 449T385 304T357 167T344 52Q344 6 359 -21T414 -48Q456 -48 494 -20T568 56Q567 68 567 80T567 106Q567 162 575 226T597 354T629 477T668 582T710 655T750 682Q767 682 775 662T783 607Q783 564 772 503T739 375T689 239T623 111Q621 96 621 82T621 55Z"  />
<glyph unicode="&#xDD;" horiz-adv-x="783" d="M533 791Q557 791 576 799T609 819T631 844T642 869Q655 862 660 855T665 841Q665 828 652 818T621 800T583 788T547 783Q539 783 531 785L533 791ZM684 342Q684 323 684 297T685 238Q706 286 723 336T753 434T772 521T779 590Q779 613 775 626T759 640Q748 640 735 625T711 575T692 483T684 342ZM642 -351Q642 -327 642 -293T639 -217Q585 -285 552 -372T518 -560Q518 -572 520 -588T527 -618T543 -642T568 -652Q586 -652 598 -635T619 -592T631 -532T638 -465T641 -401T642 -351ZM695 -235Q695 -262 694 -305T688 -396T675 -493T651 -582T614 -646T559 -671Q536 -671 521 -659T497 -628T485 -588T481 -548Q481 -504 492 -458T525 -365T574 -276T638 -195L628 110Q590 56 548 23T458 -11Q421 -11 397 0T357 30T336 77T329 138Q329 191 341 255T368 385T395 515T407 633Q407 667 401 695T379 744T337 776T272 788Q200 788 145 754T52 665T-5 546T-25 420Q-25 381 -17 346T9 285T51 243T112 228Q162 228 198 259T259 336T295 437T307 540Q307 558 305 574T300 605L299 610Q299 617 305 617Q307 617 310 616T315 614Q323 577 323 538Q323 483 309 425T267 319T196 240T96 209Q55 209 24 226T-27 273T-58 342T-69 426Q-69 489 -48 555T17 676T126 765T280 800Q333 800 368 784T424 740T453 672T462 588Q462 530 452 465T429 335T407 212T396 108Q396 60 411 32T469 3Q512 3 552 38T627 129Q626 161 626 187Q625 210 625 229T625 252Q625 354 639 430T674 558T718 634T761 660Q776 660 783 642T790 591Q790 557 783 512T762 417T729 313T685 210Q686 169 687 123T690 31T692 -60T694 -142Q739 -104 787 -79T885 -43Q892 -43 892 -47Q892 -50 886 -58Q835 -67 787 -92T694 -158Q695 -181 695 -201T695 -235Z"  />
<glyph unicode="&#xDE;" horiz-adv-x="257" d="M-28 -297Q-22 -297 -17 -271T-8 -199T0 -95T5 29Q-17 -62 -31 -136T-45 -253Q-45 -297 -28 -297ZM120 277Q104 277 92 268T70 244T54 209T44 167L41 85Q45 46 59 18T98 -10Q114 -10 126 5T146 44T159 97T163 157Q163 181 160 202T152 240T139 267T120 277ZM100 -21Q78 -21 63 -7T40 32Q37 -37 32 -101T17 -215T-4 -294T-34 -324Q-48 -324 -54 -309T-60 -265Q-60 -240 -55 -205T-42 -128T-21 -39T6 59Q7 103 8 147T9 234Q9 322 6 392T-4 494Q0 496 9 496Q20 496 32 491T45 472V329Q45 303 45 274T44 215Q56 250 76 272T124 295Q147 295 163 285T190 257T206 216T211 168Q211 135 203 102T181 41T146 -3T100 -21Z"  />
<glyph unicode="&#xDF;" horiz-adv-x="295" d="M-65 -466Q-36 -464 -20 -434T5 -360T16 -264T19 -167V182Q19 276 37 346T82 462T135 530T181 553Q204 553 204 532Q204 513 189 481T155 413T122 340T106 275Q106 250 127 229T175 185T222 134T244 69Q244 45 236 27T214 -4T184 -23T151 -30Q112 -30 95 -10T77 36Q77 62 93 83T138 105Q155 105 155 95Q155 91 151 87Q145 92 136 92Q117 92 108 79T98 48Q98 28 112 10T155 -9Q175 -9 191 6T208 57Q208 81 200 100T178 137T150 170T121 201T100 233T91 268Q91 297 105 334T138 408T170 476T185 524Q185 539 170 539Q159 539 141 515T106 445T77 333T64 182Q64 159 64 126T66 55T67 -25T68 -108Q68 -145 65 -186T54 -268T36 -345T11 -410T-23 -454T-65 -471V-466Z"  />
<glyph unicode="&#xE0;" horiz-adv-x="278" d="M195 377Q190 375 177 375Q161 375 141 379T102 392T72 410T60 433Q60 448 84 461Q87 450 95 437T118 411T151 391T193 383L195 377ZM73 -4Q87 -4 99 5T120 29T136 64T147 106Q149 129 151 150T154 192Q152 230 142 257T114 284Q96 284 82 266T58 219T43 156T38 90Q38 51 46 24T73 -4ZM112 295Q128 295 139 284T156 253Q166 255 171 255Q184 255 192 249T201 229Q201 217 199 196T194 151T189 101T186 54Q186 28 194 13T217 -3Q238 -3 253 17T277 65T292 120T298 160H305Q303 139 298 108T281 48T252 -1T207 -22Q184 -22 165 -2T146 60Q133 25 114 2T69 -22Q48 -22 33 -13T8 11T-6 46T-11 90Q-11 124 -2 160T23 227T62 276T112 295Z"  />
<glyph unicode="&#xE1;" horiz-adv-x="278" d="M74 383Q98 383 117 391T150 411T172 436T183 461Q196 454 201 447T206 433Q206 420 193 410T162 392T124 380T88 375Q80 375 72 377L74 383ZM73 -4Q87 -4 99 5T120 29T136 64T147 106Q149 129 151 150T154 192Q152 230 142 257T114 284Q96 284 82 266T58 219T43 156T38 90Q38 51 46 24T73 -4ZM112 295Q128 295 139 284T156 253Q166 255 171 255Q184 255 192 249T201 229Q201 217 199 196T194 151T189 101T186 54Q186 28 194 13T217 -3Q238 -3 253 17T277 65T292 120T298 160H305Q303 139 298 108T281 48T252 -1T207 -22Q184 -22 165 -2T146 60Q133 25 114 2T69 -22Q48 -22 33 -13T8 11T-6 46T-11 90Q-11 124 -2 160T23 227T62 276T112 295Z"  />
<glyph unicode="&#xE2;" horiz-adv-x="278" d="M186 359V355Q186 352 183 352Q157 363 137 382T103 418Q95 409 84 400T60 383T35 369T14 358Q10 358 9 361Q8 363 8 365Q39 381 57 404T79 451Q98 462 107 462Q115 462 120 456T131 437Q139 418 153 396T186 359ZM73 -4Q87 -4 99 5T120 29T136 64T147 106Q149 129 151 150T154 192Q152 230 142 257T114 284Q96 284 82 266T58 219T43 156T38 90Q38 51 46 24T73 -4ZM112 295Q128 295 139 284T156 253Q166 255 171 255Q184 255 192 249T201 229Q201 217 199 196T194 151T189 101T186 54Q186 28 194 13T217 -3Q238 -3 253 17T277 65T292 120T298 160H305Q303 139 298 108T281 48T252 -1T207 -22Q184 -22 165 -2T146 60Q133 25 114 2T69 -22Q48 -22 33 -13T8 11T-6 46T-11 90Q-11 124 -2 160T23 227T62 276T112 295Z"  />
<glyph unicode="&#xE3;" horiz-adv-x="277" d="M214 440Q204 411 191 400T162 389Q150 389 138 393T114 402T89 411T66 415Q54 415 45 408T28 383L22 392Q36 422 50 433T79 444Q90 444 101 440T123 431T146 421T168 417Q189 417 207 439L214 440ZM71 -4Q85 -4 97 5T118 29T134 64T145 106Q147 129 149 150T152 192Q150 230 140 257T112 284Q94 284 80 266T56 219T41 156T36 90Q36 51 44 24T71 -4ZM110 295Q126 295 137 284T154 253Q164 255 169 255Q182 255 190 249T199 229Q199 217 197 196T192 151T187 101T184 54Q184 28 192 13T215 -3Q236 -3 251 17T275 65T290 120T296 160H303Q301 139 296 108T279 48T250 -1T205 -22Q182 -22 163 -2T144 60Q131 25 112 2T67 -22Q46 -22 31 -13T6 11T-8 46T-13 90Q-13 124 -4 160T21 227T60 276T110 295Z"  />
<glyph unicode="&#xE4;" horiz-adv-x="278" d="M94 442Q106 442 111 433T117 413Q117 398 108 384T82 370Q71 370 65 379T59 399Q59 414 68 428T94 442ZM194 442Q206 442 211 433T217 413Q217 398 208 384T182 370Q171 370 165 379T159 399Q159 414 168 428T194 442ZM73 -4Q87 -4 99 5T120 29T136 64T147 106Q149 129 151 150T154 192Q152 230 142 257T114 284Q96 284 82 266T58 219T43 156T38 90Q38 51 46 24T73 -4ZM112 295Q128 295 139 284T156 253Q166 255 171 255Q184 255 192 249T201 229Q201 217 199 196T194 151T189 101T186 54Q186 28 194 13T217 -3Q238 -3 253 17T277 65T292 120T298 160H305Q303 139 298 108T281 48T252 -1T207 -22Q184 -22 165 -2T146 60Q133 25 114 2T69 -22Q48 -22 33 -13T8 11T-6 46T-11 90Q-11 124 -2 160T23 227T62 276T112 295Z"  />
<glyph unicode="&#xE5;" horiz-adv-x="278" d="M108 437Q94 437 87 426T79 402Q79 391 85 383T103 374Q117 374 124 384T131 408Q131 419 126 428T108 437ZM101 357Q83 357 75 369T66 399Q66 419 77 436T109 454Q127 454 136 441T145 411Q145 391 134 374T101 357ZM73 -4Q87 -4 99 5T120 29T136 64T147 106Q149 129 151 150T154 192Q152 230 142 257T114 284Q96 284 82 266T58 219T43 156T38 90Q38 51 46 24T73 -4ZM112 295Q128 295 139 284T156 253Q166 255 171 255Q184 255 192 249T201 229Q201 217 199 196T194 151T189 101T186 54Q186 28 194 13T217 -3Q238 -3 253 17T277 65T292 120T298 160H305Q303 139 298 108T281 48T252 -1T207 -22Q184 -22 165 -2T146 60Q133 25 114 2T69 -22Q48 -22 33 -13T8 11T-6 46T-11 90Q-11 124 -2 160T23 227T62 276T112 295Z"  />
<glyph unicode="&#xE6;" horiz-adv-x="356" d="M271 290Q256 290 243 275T219 236T203 181T196 119Q217 129 234 147T263 186T281 228T288 264Q288 290 271 290ZM73 -4Q93 -4 108 13T134 56T149 115T154 178Q154 221 144 252T114 284Q96 284 82 266T58 219T43 156T38 90Q38 51 46 24T73 -4ZM112 295Q128 295 139 284T156 253Q166 255 171 255Q183 255 191 249Q207 272 227 286T272 301Q289 301 296 291T303 265Q303 247 295 225T272 180T238 138T196 108Q196 85 200 64T214 26T237 0T273 -10Q298 -10 316 5T347 44T367 98T376 160H383Q381 125 373 91T351 30T316 -13T264 -30Q211 -30 185 1T152 78Q140 36 119 7T69 -22Q48 -22 33 -13T8 11T-6 46T-11 90Q-11 124 -2 160T23 226T62 275T112 295Z"  />
<glyph unicode="&#xE7;" horiz-adv-x="200" d="M112 293Q94 293 80 278T54 239T37 184T31 123Q31 97 36 73T51 30T78 0T119 -11Q143 -11 161 4T191 43T211 98T220 160H227Q225 125 217 91T195 30T160 -13T108 -30Q102 -30 97 -30T86 -28Q83 -34 81 -40T78 -52H92Q126 -52 140 -61T154 -82Q154 -99 134 -114T83 -130Q56 -130 31 -115L35 -108Q47 -114 58 -116T78 -119Q96 -119 105 -111T115 -94Q115 -85 106 -78T77 -71Q59 -71 59 -63Q59 -57 64 -48T74 -26Q27 -14 6 25T-15 114Q-15 148 -6 182T20 244T60 289T110 306Q138 306 150 286T163 240Q163 215 152 195T120 174Q109 174 103 181T97 198Q97 211 108 223T146 238V242Q146 244 146 246T147 251Q147 263 141 278T112 293Z"  />
<glyph unicode="&#xE8;" horiz-adv-x="200" d="M150 377Q145 375 132 375Q116 375 96 379T57 392T27 410T15 433Q15 448 39 461Q42 450 50 437T73 411T106 391T148 383L150 377ZM115 290Q100 290 87 275T63 236T47 181T40 119Q61 129 78 147T107 186T125 228T132 264Q132 290 115 290ZM227 160Q225 125 217 91T195 30T160 -13T108 -30Q79 -30 58 -20T23 8T2 49T-6 98Q-26 99 -38 107T-50 123Q-50 129 -41 129Q-22 111 -6 110Q-6 144 3 178T29 239T67 284T116 301Q133 301 140 291T147 265Q147 247 139 225T116 180T82 138T40 108Q40 85 44 64T58 26T81 0T117 -10Q142 -10 160 5T191 44T211 98T220 160H227Z"  />
<glyph unicode="&#xE9;" horiz-adv-x="200" d="M21 383Q45 383 64 391T97 411T119 436T130 461Q143 454 148 447T153 433Q153 420 140 410T109 392T71 380T35 375Q27 375 19 377L21 383ZM115 290Q100 290 87 275T63 236T47 181T40 119Q61 129 78 147T107 186T125 228T132 264Q132 290 115 290ZM227 160Q225 125 217 91T195 30T160 -13T108 -30Q79 -30 58 -20T23 8T2 49T-6 98Q-26 99 -38 107T-50 123Q-50 129 -41 129Q-22 111 -6 110Q-6 144 3 178T29 239T67 284T116 301Q133 301 140 291T147 265Q147 247 139 225T116 180T82 138T40 108Q40 85 44 64T58 26T81 0T117 -10Q142 -10 160 5T191 44T211 98T220 160H227Z"  />
<glyph unicode="&#xEA;" horiz-adv-x="200" d="M178 359V355Q178 352 175 352Q149 363 129 382T95 418Q87 409 76 400T52 383T27 369T6 358Q2 358 1 361Q0 363 0 365Q31 381 49 404T71 451Q90 462 99 462Q107 462 112 456T123 437Q131 418 145 396T178 359ZM115 290Q100 290 87 275T63 236T47 181T40 119Q61 129 78 147T107 186T125 228T132 264Q132 290 115 290ZM227 160Q225 125 217 91T195 30T160 -13T108 -30Q79 -30 58 -20T23 8T2 49T-6 98Q-26 99 -38 107T-50 123Q-50 129 -41 129Q-22 111 -6 110Q-6 144 3 178T29 239T67 284T116 301Q133 301 140 291T147 265Q147 247 139 225T116 180T82 138T40 108Q40 85 44 64T58 26T81 0T117 -10Q142 -10 160 5T191 44T211 98T220 160H227Z"  />
<glyph unicode="&#xEB;" horiz-adv-x="200" d="M55 442Q67 442 72 433T78 413Q78 398 69 384T43 370Q32 370 26 379T20 399Q20 414 29 428T55 442ZM155 442Q167 442 172 433T178 413Q178 398 169 384T143 370Q132 370 126 379T120 399Q120 414 129 428T155 442ZM115 290Q100 290 87 275T63 236T47 181T40 119Q61 129 78 147T107 186T125 228T132 264Q132 290 115 290ZM227 160Q225 125 217 91T195 30T160 -13T108 -30Q79 -30 58 -20T23 8T2 49T-6 98Q-26 99 -38 107T-50 123Q-50 129 -41 129Q-22 111 -6 110Q-6 144 3 178T29 239T67 284T116 301Q133 301 140 291T147 265Q147 247 139 225T116 180T82 138T40 108Q40 85 44 64T58 26T81 0T117 -10Q142 -10 160 5T191 44T211 98T220 160H227Z"  />
<glyph unicode="&#xEC;" horiz-adv-x="143" d="M113 377Q108 375 95 375Q79 375 59 379T20 392T-10 410T-22 433Q-22 448 2 461Q5 450 13 437T36 411T69 391T111 383L113 377ZM55 294Q50 249 47 205T43 122Q43 68 51 33T82 -3Q103 -3 118 17T142 65T157 120T163 160H170Q168 139 163 108T146 48T117 -1T72 -22Q52 -22 39 -9T17 29T5 84T1 152Q1 180 3 209T8 269Q8 286 19 293T42 301Q55 301 55 294Z"  />
<glyph unicode="&#xED;" horiz-adv-x="143" d="M-2 383Q22 383 41 391T74 411T96 436T107 461Q120 454 125 447T130 433Q130 420 117 410T86 392T48 380T12 375Q4 375 -4 377L-2 383ZM55 294Q50 249 47 205T43 122Q43 68 51 33T82 -3Q103 -3 118 17T142 65T157 120T163 160H170Q168 139 163 108T146 48T117 -1T72 -22Q52 -22 39 -9T17 29T5 84T1 152Q1 180 3 209T8 269Q8 286 19 293T42 301Q55 301 55 294Z"  />
<glyph unicode="&#xEE;" horiz-adv-x="143" d="M125 359V355Q125 352 122 352Q96 363 76 382T42 418Q34 409 23 400T-1 383T-26 369T-47 358Q-51 358 -52 361Q-53 363 -53 365Q-22 381 -4 404T18 451Q37 462 46 462Q54 462 59 456T70 437Q78 418 92 396T125 359ZM55 294Q50 249 47 205T43 122Q43 68 51 33T82 -3Q103 -3 118 17T142 65T157 120T163 160H170Q168 139 163 108T146 48T117 -1T72 -22Q52 -22 39 -9T17 29T5 84T1 152Q1 180 3 209T8 269Q8 286 19 293T42 301Q55 301 55 294Z"  />
<glyph unicode="&#xEF;" horiz-adv-x="143" d="M-9 453Q3 453 8 444T14 424Q14 409 5 395T-21 381Q-32 381 -38 390T-44 410Q-44 425 -35 439T-9 453ZM91 453Q103 453 108 444T114 424Q114 409 105 395T79 381Q68 381 62 390T56 410Q56 425 65 439T91 453ZM55 294Q50 249 47 205T43 122Q43 68 51 33T82 -3Q103 -3 118 17T142 65T157 120T163 160H170Q168 139 163 108T146 48T117 -1T72 -22Q52 -22 39 -9T17 29T5 84T1 152Q1 180 3 209T8 269Q8 286 19 293T42 301Q55 301 55 294Z"  />
<glyph unicode="&#xF0;" horiz-adv-x="238" d="M70 -4Q79 -4 88 -1Q106 5 119 22T141 64T154 116T159 171Q159 193 156 213T147 250T132 275T111 284Q93 284 79 266T55 219T40 156T35 90Q35 51 43 24T70 -4ZM59 376Q67 409 82 420T116 432Q126 432 140 429Q120 483 88 525T9 594L18 602Q72 577 109 530T169 423Q189 418 205 418Q220 418 233 423T257 446Q248 410 234 398T200 385Q195 385 191 385T181 387Q204 307 204 228Q204 178 196 134T170 55T128 1T71 -22H66Q45 -22 30 -13T5 11T-9 46T-14 90Q-14 124 -5 160T20 226T59 275T109 295Q139 295 155 264T173 187Q174 197 174 207T175 228Q175 269 170 311T152 394Q141 397 130 399T108 402Q94 402 82 397T59 376Z"  />
<glyph unicode="&#xF1;" horiz-adv-x="268" d="M196 444Q186 415 173 404T144 393Q132 393 120 397T96 406T71 415T48 419Q36 419 27 412T10 387L4 396Q18 426 32 437T61 448Q72 448 83 444T105 435T128 425T150 421Q171 421 189 443L196 444ZM136 283Q119 283 103 254T72 182T50 92T41 7V-8Q32 -11 24 -11Q13 -11 6 -6T-1 10Q3 54 6 96T9 182Q9 212 7 242T1 301Q10 305 21 305Q34 305 42 299T51 279Q51 268 50 249T47 206T44 158T41 112Q45 123 49 141T60 179T74 221T94 259T119 286T151 297Q180 297 190 280T200 239Q200 212 197 184T189 130T181 81T177 40Q177 20 183 9T207 -3Q228 -3 243 17T267 65T282 120T288 160H295Q293 139 288 108T271 48T242 -1T197 -22Q174 -22 155 -2T136 59Q136 77 138 103T144 156T149 209T152 253Q152 283 136 283Z"  />
<glyph unicode="&#xF2;" horiz-adv-x="243" d="M157 377Q152 375 139 375Q123 375 103 379T64 392T34 410T22 433Q22 448 46 461Q49 450 57 437T80 411T113 391T155 383L157 377ZM148 189Q159 189 171 192Q163 222 148 242T113 262Q101 262 95 255T88 237Q88 221 103 205T148 189ZM124 301Q101 293 85 275T59 232T44 180T39 125Q39 99 43 75T55 33T74 3T101 -8Q122 -8 136 3T161 33T175 76T180 125Q180 153 174 179Q157 173 142 173Q106 173 90 192T73 232Q73 250 84 264T117 279Q143 279 161 256T187 197Q198 202 209 209T233 228L238 223Q212 198 189 186Q194 158 194 133Q194 103 188 75T170 23T140 -14T97 -28Q69 -28 49 -17T16 12T-3 55T-9 107Q-9 140 -1 173T24 235T64 282T117 306Q119 306 121 305T124 301Z"  />
<glyph unicode="&#xF3;" horiz-adv-x="243" d="M28 383Q52 383 71 391T104 411T126 436T137 461Q150 454 155 447T160 433Q160 420 147 410T116 392T78 380T42 375Q34 375 26 377L28 383ZM148 189Q159 189 171 192Q163 222 148 242T113 262Q101 262 95 255T88 237Q88 221 103 205T148 189ZM124 301Q101 293 85 275T59 232T44 180T39 125Q39 99 43 75T55 33T74 3T101 -8Q122 -8 136 3T161 33T175 76T180 125Q180 153 174 179Q157 173 142 173Q106 173 90 192T73 232Q73 250 84 264T117 279Q143 279 161 256T187 197Q198 202 209 209T233 228L238 223Q212 198 189 186Q194 158 194 133Q194 103 188 75T170 23T140 -14T97 -28Q69 -28 49 -17T16 12T-3 55T-9 107Q-9 140 -1 173T24 235T64 282T117 306Q119 306 121 305T124 301Z"  />
<glyph unicode="&#xF4;" horiz-adv-x="243" d="M148 189Q159 189 171 192Q163 222 148 242T113 262Q101 262 95 255T88 237Q88 221 103 205T148 189ZM192 359V355Q192 352 189 352Q163 363 143 382T109 418Q101 409 90 400T66 383T41 369T20 358Q16 358 15 361Q14 363 14 365Q45 381 63 404T85 451Q104 462 113 462Q121 462 126 456T137 437Q145 418 159 396T192 359ZM124 301Q101 293 85 275T59 232T44 180T39 125Q39 99 43 75T55 33T74 3T101 -8Q122 -8 136 3T161 33T175 76T180 125Q180 153 174 179Q157 173 142 173Q106 173 90 192T73 232Q73 250 84 264T117 279Q143 279 161 256T187 197Q198 202 209 209T233 228L238 223Q212 198 189 186Q194 158 194 133Q194 103 188 75T170 23T140 -14T97 -28Q69 -28 49 -17T16 12T-3 55T-9 107Q-9 140 -1 173T24 235T64 282T117 306Q119 306 121 305T124 301Z"  />
<glyph unicode="&#xF5;" horiz-adv-x="243" d="M148 189Q159 189 171 192Q163 222 148 242T113 262Q101 262 95 255T88 237Q88 221 103 205T148 189ZM195 440Q185 411 172 400T143 389Q131 389 119 393T95 402T70 411T47 415Q35 415 26 408T9 383L3 392Q17 422 31 433T60 444Q71 444 82 440T104 431T127 421T149 417Q170 417 188 439L195 440ZM124 301Q101 293 85 275T59 232T44 180T39 125Q39 99 43 75T55 33T74 3T101 -8Q122 -8 136 3T161 33T175 76T180 125Q180 153 174 179Q157 173 142 173Q106 173 90 192T73 232Q73 250 84 264T117 279Q143 279 161 256T187 197Q198 202 209 209T233 228L238 223Q212 198 189 186Q194 158 194 133Q194 103 188 75T170 23T140 -14T97 -28Q69 -28 49 -17T16 12T-3 55T-9 107Q-9 140 -1 173T24 235T64 282T117 306Q119 306 121 305T124 301Z"  />
<glyph unicode="&#xF6;" horiz-adv-x="243" d="M50 442Q62 442 67 433T73 413Q73 398 64 384T38 370Q27 370 21 379T15 399Q15 414 24 428T50 442ZM150 442Q162 442 167 433T173 413Q173 398 164 384T138 370Q127 370 121 379T115 399Q115 414 124 428T150 442ZM148 189Q159 189 171 192Q163 222 148 242T113 262Q101 262 95 255T88 237Q88 221 103 205T148 189ZM124 301Q101 293 85 275T59 232T44 180T39 125Q39 99 43 75T55 33T74 3T101 -8Q122 -8 136 3T161 33T175 76T180 125Q180 153 174 179Q157 173 142 173Q106 173 90 192T73 232Q73 250 84 264T117 279Q143 279 161 256T187 197Q198 202 209 209T233 228L238 223Q212 198 189 186Q194 158 194 133Q194 103 188 75T170 23T140 -14T97 -28Q69 -28 49 -17T16 12T-3 55T-9 107Q-9 140 -1 173T24 235T64 282T117 306Q119 306 121 305T124 301Z"  />
<glyph unicode="&#xF7;" horiz-adv-x="301" d="M158 308Q168 308 172 301T177 285Q177 273 170 262T149 250Q140 250 135 257T130 273Q130 285 137 296T158 308ZM155 148Q165 148 169 141T174 125Q174 113 167 102T146 90Q137 90 132 97T127 113Q127 125 134 136T155 148ZM49 189Q35 189 35 200Q35 206 36 209H248Q265 209 270 208T276 200Q276 193 275 189H49Z"  />
<glyph unicode="&#xF8;" horiz-adv-x="243" d="M135 190Q139 189 148 189Q159 189 171 192Q166 214 158 227L135 190ZM150 240Q142 250 133 256T113 262Q101 262 95 255T88 237Q88 225 95 213T120 194L150 240ZM48 51Q56 25 69 9T101 -8Q122 -8 136 3T161 33T175 76T180 125Q180 153 174 179Q157 173 142 173Q137 173 133 173T125 174L48 51ZM124 301Q101 293 85 275T59 232T44 180T39 125Q39 112 40 100T43 75L110 179Q90 187 82 201T73 232Q73 250 84 264T117 279Q142 279 160 256Q187 297 205 324T226 355Q229 359 233 359Q240 359 240 350Q240 345 236 340Q225 326 208 301T169 243Q174 233 179 222T187 197Q198 202 209 209T233 228L238 223Q212 198 189 186Q194 158 194 133Q194 103 188 75T170 23T140 -14T97 -28Q71 -28 53 -19T21 6Q12 -8 4 -22T-13 -50Q-16 -54 -22 -54Q-30 -54 -31 -44Q-28 -37 -17 -20T9 23Q0 40 -4 62T-9 107Q-9 140 -1 173T24 235T64 282T117 306Q119 306 121 305T124 301Z"  />
<glyph unicode="&#xF9;" horiz-adv-x="270" d="M178 377Q173 375 160 375Q144 375 124 379T85 392T55 410T43 433Q43 448 67 461Q70 450 78 437T101 411T134 391T176 383L178 377ZM168 169Q168 158 168 139T170 99Q178 131 182 165T186 227Q186 278 180 278Q176 278 172 251T168 169ZM196 233Q196 198 191 157T171 80Q173 64 176 49T183 23T194 4T209 -3Q230 -3 245 17T269 65T284 120T290 160H297Q295 139 290 108T273 48T244 -1T199 -22Q180 -22 167 -8T146 29Q132 9 115 -3T75 -15Q52 -15 38 0T15 39T3 93T0 153Q0 174 1 194T3 232T7 261T10 279Q12 292 22 299T46 306Q57 306 66 302Q64 296 61 277T55 230T49 172T46 110Q46 87 48 67T54 32T66 8T85 -1Q104 -1 118 9T144 37Q136 61 134 90T131 151Q131 220 146 258T175 297Q184 297 190 282T196 233Z"  />
<glyph unicode="&#xFA;" horiz-adv-x="270" d="M44 389Q68 389 87 397T120 417T142 442T153 467Q166 460 171 453T176 439Q176 426 163 416T132 398T94 386T58 381Q50 381 42 383L44 389ZM168 169Q168 158 168 139T170 99Q178 131 182 165T186 227Q186 278 180 278Q176 278 172 251T168 169ZM196 233Q196 198 191 157T171 80Q173 64 176 49T183 23T194 4T209 -3Q230 -3 245 17T269 65T284 120T290 160H297Q295 139 290 108T273 48T244 -1T199 -22Q180 -22 167 -8T146 29Q132 9 115 -3T75 -15Q52 -15 38 0T15 39T3 93T0 153Q0 174 1 194T3 232T7 261T10 279Q12 292 22 299T46 306Q57 306 66 302Q64 296 61 277T55 230T49 172T46 110Q46 87 48 67T54 32T66 8T85 -1Q104 -1 118 9T144 37Q136 61 134 90T131 151Q131 220 146 258T175 297Q184 297 190 282T196 233Z"  />
<glyph unicode="&#xFB;" horiz-adv-x="270" d="M200 359V355Q200 352 197 352Q171 363 151 382T117 418Q109 409 98 400T74 383T49 369T28 358Q24 358 23 361Q22 363 22 365Q53 381 71 404T93 451Q112 462 121 462Q129 462 134 456T145 437Q153 418 167 396T200 359ZM168 169Q168 158 168 139T170 99Q178 131 182 165T186 227Q186 278 180 278Q176 278 172 251T168 169ZM196 233Q196 198 191 157T171 80Q173 64 176 49T183 23T194 4T209 -3Q230 -3 245 17T269 65T284 120T290 160H297Q295 139 290 108T273 48T244 -1T199 -22Q180 -22 167 -8T146 29Q132 9 115 -3T75 -15Q52 -15 38 0T15 39T3 93T0 153Q0 174 1 194T3 232T7 261T10 279Q12 292 22 299T46 306Q57 306 66 302Q64 296 61 277T55 230T49 172T46 110Q46 87 48 67T54 32T66 8T85 -1Q104 -1 118 9T144 37Q136 61 134 90T131 151Q131 220 146 258T175 297Q184 297 190 282T196 233Z"  />
<glyph unicode="&#xFC;" horiz-adv-x="270" d="M55 450Q67 450 72 441T78 421Q78 406 69 392T43 378Q32 378 26 387T20 407Q20 422 29 436T55 450ZM155 450Q167 450 172 441T178 421Q178 406 169 392T143 378Q132 378 126 387T120 407Q120 422 129 436T155 450ZM168 169Q168 158 168 139T170 99Q178 131 182 165T186 227Q186 278 180 278Q176 278 172 251T168 169ZM196 233Q196 198 191 157T171 80Q173 64 176 49T183 23T194 4T209 -3Q230 -3 245 17T269 65T284 120T290 160H297Q295 139 290 108T273 48T244 -1T199 -22Q180 -22 167 -8T146 29Q132 9 115 -3T75 -15Q52 -15 38 0T15 39T3 93T0 153Q0 174 1 194T3 232T7 261T10 279Q12 292 22 299T46 306Q57 306 66 302Q64 296 61 277T55 230T49 172T46 110Q46 87 48 67T54 32T66 8T85 -1Q104 -1 118 9T144 37Q136 61 134 90T131 151Q131 220 146 258T175 297Q184 297 190 282T196 233Z"  />
<glyph unicode="&#xFD;" horiz-adv-x="261" d="M49 393Q73 393 92 401T125 421T147 446T158 471Q171 464 176 457T181 443Q181 430 168 420T137 402T99 390T63 385Q55 385 47 387L49 393ZM177 169Q177 156 177 144T178 118Q187 150 191 182T196 240Q196 287 190 287Q185 287 181 257T177 169ZM146 -96Q123 -122 101 -150T61 -211T32 -281T21 -361Q21 -402 32 -423T59 -445Q73 -445 88 -428T116 -374T137 -280T146 -143V-96ZM139 151Q139 187 143 216T155 265T170 297T185 308Q204 308 204 248Q204 216 198 176T179 97Q181 63 183 29T188 -37Q208 -17 223 1T249 38Q263 64 271 95T281 160H288Q286 126 279 93T258 34Q248 14 230 -7T189 -51Q191 -67 191 -82T191 -111Q191 -203 178 -269T145 -379T101 -443T56 -464Q32 -464 16 -440T0 -367Q0 -320 13 -280T46 -204T93 -139T145 -81Q145 -76 145 -59T143 -24Q142 -3 142 22Q128 5 113 -5T79 -15Q56 -15 42 0T19 39T7 93T4 153Q4 174 5 194T7 232T11 261T14 279Q16 292 26 299T50 306Q61 306 70 302Q68 296 65 277T59 230T53 172T50 110Q50 87 52 67T58 32T70 8T89 -1Q104 -1 117 8T141 33Q140 63 140 92T139 151Z"  />
<glyph unicode="&#xFE;" horiz-adv-x="918" d="M239 -26Q206 -26 176 -20T118 0T70 35T36 85Q25 65 20 43T15 -3Q15 -53 30 -90T73 -153T138 -191T221 -204Q305 -204 365 -173T464 -89T522 31T547 172Q549 209 551 258T554 358T557 452T562 524L564 548Q526 554 488 554Q408 554 329 532T186 463T83 348T43 186Q43 150 52 120Q55 123 61 127Q63 128 65 128Q70 128 71 124L55 110Q78 49 131 21T249 -7Q285 -7 321 1T390 26T450 67T496 122Q497 123 499 123Q505 123 505 121Q490 86 462 59T397 13T320 -16T239 -26ZM746 829Q721 816 704 799T674 758Q651 715 645 670T635 577Q689 566 736 545T817 490T872 412T892 311Q892 270 877 229T835 155T771 101T690 80Q685 80 675 81T665 86Q665 87 670 90Q671 89 673 89H680Q717 89 746 110T795 162T825 230T836 297Q836 343 821 380T778 448T714 499T633 534Q630 494 629 442T625 337T619 236T611 157Q597 74 566 6T486 -113T372 -190T226 -218Q176 -218 135 -205T63 -165T17 -101T0 -14Q0 17 7 46T31 98Q19 131 19 173Q19 241 40 298T97 402T183 483T289 541T406 576T527 588Q538 588 548 588T570 586Q585 674 622 733T731 832Q739 836 741 836Q746 836 746 829Z"  />
<glyph unicode="&#xFF;" horiz-adv-x="261" d="M63 456Q75 456 80 447T86 427Q86 412 77 398T51 384Q40 384 34 393T28 413Q28 428 37 442T63 456ZM163 456Q175 456 180 447T186 427Q186 412 177 398T151 384Q140 384 134 393T128 413Q128 428 137 442T163 456ZM177 169Q177 156 177 144T178 118Q187 150 191 182T196 240Q196 287 190 287Q185 287 181 257T177 169ZM146 -96Q123 -122 101 -150T61 -211T32 -281T21 -361Q21 -402 32 -423T59 -445Q73 -445 88 -428T116 -374T137 -280T146 -143V-96ZM139 151Q139 187 143 216T155 265T170 297T185 308Q204 308 204 248Q204 216 198 176T179 97Q181 63 183 29T188 -37Q208 -17 223 1T249 38Q263 64 271 95T281 160H288Q286 126 279 93T258 34Q248 14 230 -7T189 -51Q191 -67 191 -82T191 -111Q191 -203 178 -269T145 -379T101 -443T56 -464Q32 -464 16 -440T0 -367Q0 -320 13 -280T46 -204T93 -139T145 -81Q145 -76 145 -59T143 -24Q142 -3 142 22Q128 5 113 -5T79 -15Q56 -15 42 0T19 39T7 93T4 153Q4 174 5 194T7 232T11 261T14 279Q16 292 26 299T50 306Q61 306 70 302Q68 296 65 277T59 230T53 172T50 110Q50 87 52 67T58 32T70 8T89 -1Q104 -1 117 8T141 33Q140 63 140 92T139 151Z"  />
<glyph unicode="&#x100;" horiz-adv-x="1072" d="M923 1010Q909 1010 909 1021Q909 1027 910 1030H1062Q1079 1030 1084 1029T1090 1021Q1090 1014 1089 1010H923ZM866 432Q861 421 855 412T843 392L861 374Q862 388 863 403T866 432ZM858 307Q858 319 858 331T860 355L836 379Q822 354 807 329T775 279L858 307ZM1034 928Q1015 928 1000 901T972 827T950 720T933 594Q959 651 979 702T1014 794T1035 867T1043 914Q1043 928 1034 928ZM1036 -69Q1036 -35 1030 7T1009 95T972 190T916 286V273Q916 185 921 105T936 -35T963 -132T1001 -168Q1017 -168 1026 -141T1036 -69ZM404 205Q497 205 583 225T755 273Q792 329 826 388Q782 429 727 464T605 524T456 564T279 579Q218 579 171 565T91 526T41 471T24 407Q24 370 46 334T114 270T233 223T404 205ZM289 591Q383 591 463 577T610 537T733 477T833 401Q843 418 852 434T869 466Q879 560 895 646T934 799T982 905T1037 945Q1047 945 1051 935T1055 919Q1055 899 1047 863T1022 780T982 676T929 557Q924 496 921 437T916 325Q980 344 1042 357T1168 370Q1235 370 1275 361T1315 338Q1315 333 1310 329Q1303 333 1293 337T1268 346T1229 353T1174 356Q1113 356 1049 342T919 305Q953 258 977 209T1016 113T1038 22T1045 -59Q1045 -119 1030 -155T988 -191Q953 -191 928 -158T887 -68T864 64T856 224Q856 238 856 253T857 283Q831 274 805 265T752 245Q695 160 631 84T496 -49T351 -140T199 -174Q147 -174 97 -159T6 -116T-58 -49T-83 38Q-83 42 -83 45T-82 53L-74 50V42Q-74 -5 -53 -42T4 -105T88 -144T190 -158Q266 -158 339 -127T480 -41T611 85T730 237Q630 200 530 172T328 143Q244 143 180 164T71 220T5 299T-18 387Q-18 426 0 463T57 528T152 574T289 591Z"  />
<glyph unicode="&#x101;" horiz-adv-x="278" d="M35 358Q21 358 21 369Q21 375 22 378H174Q191 378 196 377T202 369Q202 362 201 358H35ZM73 -4Q87 -4 99 5T120 29T136 64T147 106Q149 129 151 150T154 192Q152 230 142 257T114 284Q96 284 82 266T58 219T43 156T38 90Q38 51 46 24T73 -4ZM112 295Q128 295 139 284T156 253Q166 255 171 255Q184 255 192 249T201 229Q201 217 199 196T194 151T189 101T186 54Q186 28 194 13T217 -3Q238 -3 253 17T277 65T292 120T298 160H305Q303 139 298 108T281 48T252 -1T207 -22Q184 -22 165 -2T146 60Q133 25 114 2T69 -22Q48 -22 33 -13T8 11T-6 46T-11 90Q-11 124 -2 160T23 227T62 276T112 295Z"  />
<glyph unicode="&#x102;" horiz-adv-x="1072" d="M1084 1050Q1084 1027 1068 1012T1035 996Q1021 996 1006 1009T991 1049Q991 1053 994 1053Q996 1053 997 1052T1001 1050Q1003 1048 1005 1047Q1005 1031 1016 1025T1038 1019Q1047 1019 1057 1025T1069 1046Q1071 1047 1074 1049Q1076 1050 1078 1051T1082 1052Q1084 1052 1084 1050ZM866 432Q861 421 855 412T843 392L861 374Q862 388 863 403T866 432ZM858 307Q858 319 858 331T860 355L836 379Q822 354 807 329T775 279L858 307ZM1034 928Q1015 928 1000 901T972 827T950 720T933 594Q959 651 979 702T1014 794T1035 867T1043 914Q1043 928 1034 928ZM1036 -69Q1036 -35 1030 7T1009 95T972 190T916 286V273Q916 185 921 105T936 -35T963 -132T1001 -168Q1017 -168 1026 -141T1036 -69ZM404 205Q497 205 583 225T755 273Q792 329 826 388Q782 429 727 464T605 524T456 564T279 579Q218 579 171 565T91 526T41 471T24 407Q24 370 46 334T114 270T233 223T404 205ZM289 591Q383 591 463 577T610 537T733 477T833 401Q843 418 852 434T869 466Q879 560 895 646T934 799T982 905T1037 945Q1047 945 1051 935T1055 919Q1055 899 1047 863T1022 780T982 676T929 557Q924 496 921 437T916 325Q980 344 1042 357T1168 370Q1235 370 1275 361T1315 338Q1315 333 1310 329Q1303 333 1293 337T1268 346T1229 353T1174 356Q1113 356 1049 342T919 305Q953 258 977 209T1016 113T1038 22T1045 -59Q1045 -119 1030 -155T988 -191Q953 -191 928 -158T887 -68T864 64T856 224Q856 238 856 253T857 283Q831 274 805 265T752 245Q695 160 631 84T496 -49T351 -140T199 -174Q147 -174 97 -159T6 -116T-58 -49T-83 38Q-83 42 -83 45T-82 53L-74 50V42Q-74 -5 -53 -42T4 -105T88 -144T190 -158Q266 -158 339 -127T480 -41T611 85T730 237Q630 200 530 172T328 143Q244 143 180 164T71 220T5 299T-18 387Q-18 426 0 463T57 528T152 574T289 591Z"  />
<glyph unicode="&#x103;" horiz-adv-x="278" d="M171 411Q171 388 155 373T122 357Q108 357 93 370T78 410Q78 414 81 414Q83 414 84 413T88 411Q90 409 92 408Q92 392 103 386T125 380Q134 380 144 386T156 407Q158 408 161 410Q163 411 165 412T169 413Q171 413 171 411ZM73 -4Q87 -4 99 5T120 29T136 64T147 106Q149 129 151 150T154 192Q152 230 142 257T114 284Q96 284 82 266T58 219T43 156T38 90Q38 51 46 24T73 -4ZM112 295Q128 295 139 284T156 253Q166 255 171 255Q184 255 192 249T201 229Q201 217 199 196T194 151T189 101T186 54Q186 28 194 13T217 -3Q238 -3 253 17T277 65T292 120T298 160H305Q303 139 298 108T281 48T252 -1T207 -22Q184 -22 165 -2T146 60Q133 25 114 2T69 -22Q48 -22 33 -13T8 11T-6 46T-11 90Q-11 124 -2 160T23 227T62 276T112 295Z"  />
<glyph unicode="&#x104;" horiz-adv-x="1072" d="M866 432Q861 421 855 412T843 392L861 374Q862 388 863 403T866 432ZM858 307Q858 319 858 331T860 355L836 379Q822 354 807 329T775 279L858 307ZM1034 928Q1015 928 1000 901T972 827T950 720T933 594Q959 651 979 702T1014 794T1035 867T1043 914Q1043 928 1034 928ZM1036 -69Q1036 -35 1030 7T1009 95T972 190T916 286V273Q916 185 921 105T936 -35T963 -132T1001 -168Q1017 -168 1026 -141T1036 -69ZM404 205Q497 205 583 225T755 273Q792 329 826 388Q782 429 727 464T605 524T456 564T279 579Q218 579 171 565T91 526T41 471T24 407Q24 370 46 334T114 270T233 223T404 205ZM289 591Q383 591 463 577T610 537T733 477T833 401Q843 418 852 434T869 466Q879 560 895 646T934 799T982 905T1037 945Q1047 945 1051 935T1055 919Q1055 899 1047 863T1022 780T982 676T929 557Q924 496 921 437T916 325Q980 344 1042 357T1168 370Q1235 370 1275 361T1315 338Q1315 333 1310 329Q1303 333 1293 337T1268 346T1229 353T1174 356Q1113 356 1049 342T919 305Q953 258 977 209T1016 113T1038 22T1045 -59Q1045 -112 1033 -146T999 -189Q963 -209 946 -230T928 -267Q928 -288 955 -288Q968 -288 986 -282T1030 -259L1037 -265Q1030 -273 1018 -281T992 -296T963 -307T933 -311Q915 -311 903 -303T891 -275Q891 -253 914 -231T975 -189Q943 -183 921 -148T884 -57T863 71T856 224Q856 238 856 253T857 283Q831 274 805 265T752 245Q695 160 631 84T496 -49T351 -140T199 -174Q147 -174 97 -159T6 -116T-58 -49T-83 38Q-83 42 -83 45T-82 53L-74 50V42Q-74 -5 -53 -42T4 -105T88 -144T190 -158Q266 -158 339 -127T480 -41T611 85T730 237Q630 200 530 172T328 143Q244 143 180 164T71 220T5 299T-18 387Q-18 426 0 463T57 528T152 574T289 591Z"  />
<glyph unicode="&#x105;" horiz-adv-x="278" d="M73 -4Q87 -4 99 5T120 29T136 64T147 106Q149 129 151 150T154 192Q152 230 142 257T114 284Q96 284 82 266T58 219T43 156T38 90Q38 51 46 24T73 -4ZM112 295Q128 295 139 284T156 253Q166 255 171 255Q184 255 192 249T201 229Q201 217 199 196T194 151T189 101T186 54Q186 28 194 13T217 -3Q238 -3 253 17T277 65T292 120T298 160H305Q303 143 300 119T289 71T270 24T243 -10Q198 -39 183 -58T167 -91Q167 -113 193 -113Q206 -113 224 -106T268 -83L275 -89Q256 -107 228 -121T171 -135Q153 -135 141 -127T129 -99Q129 -79 148 -59T198 -21Q177 -17 162 3T146 60Q133 25 114 2T69 -22Q48 -22 33 -13T8 11T-6 46T-11 90Q-11 124 -2 160T23 227T62 276T112 295Z"  />
<glyph unicode="&#x106;" horiz-adv-x="662" d="M346 845Q370 845 389 853T422 873T444 898T455 923Q468 916 473 909T478 895Q478 882 465 872T434 854T396 842T360 837Q352 837 344 839L346 845ZM330 -81Q238 -81 171 -50T61 33T-3 152T-24 294Q-24 383 4 472T87 632T218 748T394 793Q441 793 482 780T555 738T604 669T622 571Q622 530 609 491T570 422T507 373T422 354Q384 354 357 365T312 394T286 437T277 489Q277 523 289 558T323 622T378 672T449 696Q456 696 456 693Q456 692 454 690Q453 689 453 688Q420 682 394 663T350 616T322 558T312 495Q312 470 319 447T340 407T377 380T431 369Q467 369 495 384T542 425T572 484T582 553Q582 608 566 649T523 718T459 760T383 774Q301 774 237 733T130 626T63 476T40 309Q40 236 57 169T111 49T204 -34T336 -66Q391 -66 434 -46T509 5T556 76T573 152Q573 191 562 219T533 266T491 294T441 303Q410 303 379 291T320 257T273 200T245 123Q238 123 233 125T228 135Q237 180 259 214T313 271T381 305T454 317Q487 317 516 308T569 279T605 232T619 164Q619 122 599 79T542 0T451 -58T330 -81Z"  />
<glyph unicode="&#x107;" horiz-adv-x="200" d="M35 383Q59 383 78 391T111 411T133 436T144 461Q157 454 162 447T167 433Q167 420 154 410T123 392T85 380T49 375Q41 375 33 377L35 383ZM112 293Q94 293 80 278T54 239T37 184T31 123Q31 97 36 73T51 30T78 0T119 -11Q143 -11 161 4T191 43T211 98T220 160H227Q225 125 217 91T195 30T160 -13T108 -30Q75 -30 52 -18T14 14T-8 60T-15 114Q-15 148 -6 182T20 244T60 289T110 306Q138 306 150 286T163 240Q163 215 152 195T120 174Q109 174 103 181T97 198Q97 211 108 223T146 238V242Q146 244 146 246T147 251Q147 263 141 278T112 293Z"  />
<glyph unicode="&#x108;" horiz-adv-x="662" d="M467 831V827Q467 824 464 824Q438 835 418 854T384 890Q376 881 365 872T341 855T316 841T295 830Q291 830 290 833Q289 835 289 837Q320 853 338 876T360 923Q379 934 388 934Q396 934 401 928T412 909Q420 890 434 868T467 831ZM330 -81Q238 -81 171 -50T61 33T-3 152T-24 294Q-24 383 4 472T87 632T218 748T394 793Q441 793 482 780T555 738T604 669T622 571Q622 530 609 491T570 422T507 373T422 354Q384 354 357 365T312 394T286 437T277 489Q277 523 289 558T323 622T378 672T449 696Q456 696 456 693Q456 692 454 690Q453 689 453 688Q420 682 394 663T350 616T322 558T312 495Q312 470 319 447T340 407T377 380T431 369Q467 369 495 384T542 425T572 484T582 553Q582 608 566 649T523 718T459 760T383 774Q301 774 237 733T130 626T63 476T40 309Q40 236 57 169T111 49T204 -34T336 -66Q391 -66 434 -46T509 5T556 76T573 152Q573 191 562 219T533 266T491 294T441 303Q410 303 379 291T320 257T273 200T245 123Q238 123 233 125T228 135Q237 180 259 214T313 271T381 305T454 317Q487 317 516 308T569 279T605 232T619 164Q619 122 599 79T542 0T451 -58T330 -81Z"  />
<glyph unicode="&#x109;" horiz-adv-x="200" d="M189 359V355Q189 352 186 352Q160 363 140 382T106 418Q98 409 87 400T63 383T38 369T17 358Q13 358 12 361Q11 363 11 365Q42 381 60 404T82 451Q101 462 110 462Q118 462 123 456T134 437Q142 418 156 396T189 359ZM112 293Q94 293 80 278T54 239T37 184T31 123Q31 97 36 73T51 30T78 0T119 -11Q143 -11 161 4T191 43T211 98T220 160H227Q225 125 217 91T195 30T160 -13T108 -30Q75 -30 52 -18T14 14T-8 60T-15 114Q-15 148 -6 182T20 244T60 289T110 306Q138 306 150 286T163 240Q163 215 152 195T120 174Q109 174 103 181T97 198Q97 211 108 223T146 238V242Q146 244 146 246T147 251Q147 263 141 278T112 293Z"  />
<glyph unicode="&#x10A;" horiz-adv-x="662" d="M392 915Q404 915 409 906T415 886Q415 871 406 857T380 843Q369 843 363 852T357 872Q357 887 366 901T392 915ZM330 -81Q238 -81 171 -50T61 33T-3 152T-24 294Q-24 383 4 472T87 632T218 748T394 793Q441 793 482 780T555 738T604 669T622 571Q622 530 609 491T570 422T507 373T422 354Q384 354 357 365T312 394T286 437T277 489Q277 523 289 558T323 622T378 672T449 696Q456 696 456 693Q456 692 454 690Q453 689 453 688Q420 682 394 663T350 616T322 558T312 495Q312 470 319 447T340 407T377 380T431 369Q467 369 495 384T542 425T572 484T582 553Q582 608 566 649T523 718T459 760T383 774Q301 774 237 733T130 626T63 476T40 309Q40 236 57 169T111 49T204 -34T336 -66Q391 -66 434 -46T509 5T556 76T573 152Q573 191 562 219T533 266T491 294T441 303Q410 303 379 291T320 257T273 200T245 123Q238 123 233 125T228 135Q237 180 259 214T313 271T381 305T454 317Q487 317 516 308T569 279T605 232T619 164Q619 122 599 79T542 0T451 -58T330 -81Z"  />
<glyph unicode="&#x10B;" horiz-adv-x="200" d="M106 464Q118 464 123 455T129 435Q129 420 120 406T94 392Q83 392 77 401T71 421Q71 436 80 450T106 464ZM112 293Q94 293 80 278T54 239T37 184T31 123Q31 97 36 73T51 30T78 0T119 -11Q143 -11 161 4T191 43T211 98T220 160H227Q225 125 217 91T195 30T160 -13T108 -30Q75 -30 52 -18T14 14T-8 60T-15 114Q-15 148 -6 182T20 244T60 289T110 306Q138 306 150 286T163 240Q163 215 152 195T120 174Q109 174 103 181T97 198Q97 211 108 223T146 238V242Q146 244 146 246T147 251Q147 263 141 278T112 293Z"  />
<glyph unicode="&#x10C;" horiz-adv-x="662" d="M314 950V953Q314 957 317 957Q343 946 363 927T397 891Q404 900 415 909T440 926T465 940T486 951Q489 951 491 947Q492 945 492 944Q461 928 443 905T421 858Q402 847 393 847Q385 847 380 853T369 872Q361 891 347 913T314 950ZM330 -81Q238 -81 171 -50T61 33T-3 152T-24 294Q-24 383 4 472T87 632T218 748T394 793Q441 793 482 780T555 738T604 669T622 571Q622 530 609 491T570 422T507 373T422 354Q384 354 357 365T312 394T286 437T277 489Q277 523 289 558T323 622T378 672T449 696Q456 696 456 693Q456 692 454 690Q453 689 453 688Q420 682 394 663T350 616T322 558T312 495Q312 470 319 447T340 407T377 380T431 369Q467 369 495 384T542 425T572 484T582 553Q582 608 566 649T523 718T459 760T383 774Q301 774 237 733T130 626T63 476T40 309Q40 236 57 169T111 49T204 -34T336 -66Q391 -66 434 -46T509 5T556 76T573 152Q573 191 562 219T533 266T491 294T441 303Q410 303 379 291T320 257T273 200T245 123Q238 123 233 125T228 135Q237 180 259 214T313 271T381 305T454 317Q487 317 516 308T569 279T605 232T619 164Q619 122 599 79T542 0T451 -58T330 -81Z"  />
<glyph unicode="&#x10D;" horiz-adv-x="200" d="M11 463V466Q11 470 14 470Q40 459 60 440T94 404Q101 413 112 422T137 439T162 453T183 464Q186 464 188 460Q189 458 189 457Q158 441 140 418T118 371Q99 360 90 360Q82 360 77 366T66 385Q58 404 44 426T11 463ZM112 293Q94 293 80 278T54 239T37 184T31 123Q31 97 36 73T51 30T78 0T119 -11Q143 -11 161 4T191 43T211 98T220 160H227Q225 125 217 91T195 30T160 -13T108 -30Q75 -30 52 -18T14 14T-8 60T-15 114Q-15 148 -6 182T20 244T60 289T110 306Q138 306 150 286T163 240Q163 215 152 195T120 174Q109 174 103 181T97 198Q97 211 108 223T146 238V242Q146 244 146 246T147 251Q147 263 141 278T112 293Z"  />
<glyph unicode="&#x10E;" horiz-adv-x="957" d="M441 1057V1060Q441 1064 444 1064Q470 1053 490 1034T524 998Q531 1007 542 1016T567 1033T592 1047T613 1058Q616 1058 618 1054Q619 1052 619 1051Q588 1035 570 1012T548 965Q529 954 520 954Q512 954 507 960T496 979Q488 998 474 1020T441 1057ZM135 -136Q215 -136 270 -114T363 -50Q301 -29 241 -9T130 11Q62 11 32 -8T2 -53Q2 -68 11 -83T38 -109T80 -128T135 -136ZM123 -151Q76 -151 41 -143T-17 -122T-51 -92T-63 -57Q-63 -40 -52 -24T-20 6T34 27T109 35Q136 35 167 28T233 11T302 -12T374 -37Q409 8 426 69T449 202Q451 239 453 268T456 323T459 373T464 424Q469 481 480 527T512 611T561 679T633 732Q641 736 643 736Q648 736 648 729Q623 716 606 699T576 658Q562 631 555 604T543 548T538 490T535 432Q532 393 531 362T527 302T521 246T513 187Q489 37 404 -46Q442 -57 478 -64T548 -72Q625 -72 684 -37T782 57T842 192T863 351Q863 449 834 546T746 722T597 848T386 897Q263 897 172 860T19 763T-72 632T-102 489Q-102 439 -87 394T-41 316T35 262T142 242Q191 242 229 253T296 282T345 321T378 362Q379 362 382 361T385 359Q366 319 337 293T273 250T201 226T127 219Q62 219 13 241T-71 302T-122 391T-140 496Q-140 568 -109 642T-12 777T154 875T393 913Q529 913 629 865T796 740T894 565T927 368Q927 280 902 198T827 53T704 -49T533 -87Q501 -87 465 -79T391 -59Q341 -104 274 -127T123 -151Z"  />
<glyph unicode="&#x10F;" horiz-adv-x="295" d="M402 654Q414 654 419 645T425 623Q425 597 416 576T394 539T366 514T338 505L341 511Q357 516 368 525T385 544T394 565T398 583Q396 583 394 583T390 582Q379 582 373 591T367 611Q367 626 376 640T402 654ZM267 584Q256 564 246 531T227 455T211 366T198 270Q224 304 244 345T277 426T297 504T304 567Q304 606 289 606Q279 606 267 584ZM70 -4Q88 -4 101 9T125 43T141 91T149 146Q148 158 148 171T148 198V220Q144 248 135 266T111 284Q93 284 79 266T55 219T40 156T35 90Q35 51 43 24T70 -4ZM234 -3Q255 -3 270 17T294 65T309 120T315 160H322Q320 139 315 108T298 48T269 -1T224 -22Q196 -22 179 12T154 100Q149 76 141 54T121 15T96 -12T66 -22Q45 -22 30 -13T5 11T-9 46T-14 90Q-14 124 -5 160T20 226T59 275T109 295Q136 295 150 263Q153 313 161 363T181 458T210 538T247 596Q270 622 290 622Q304 622 311 608T319 569Q319 540 312 501T289 420T250 335T197 257Q191 197 191 142Q191 79 201 38T234 -3Z"  />
<glyph unicode="&#x110;" horiz-adv-x="957" d="M135 -136Q215 -136 270 -114T363 -50Q301 -29 241 -9T130 11Q62 11 32 -8T2 -53Q2 -68 11 -83T38 -109T80 -128T135 -136ZM379 110Q387 143 402 154T436 166Q442 166 445 165Q447 174 447 183T449 202Q451 239 453 268T456 323T459 373T464 424Q469 481 480 527T512 611T561 679T633 732Q641 736 643 736Q648 736 648 729Q623 716 606 699T576 658Q562 631 555 604T543 548T538 490T535 432Q532 393 531 362T527 302T521 246T513 187Q511 178 510 170T506 153Q511 152 515 152T525 152Q540 152 553 157T577 180Q568 144 554 132T520 119Q515 119 510 119T498 121Q470 20 404 -46Q442 -57 478 -64T548 -72Q625 -72 684 -37T782 57T842 192T863 351Q863 449 834 546T746 722T597 848T386 897Q263 897 172 860T19 763T-72 632T-102 489Q-102 439 -87 394T-41 316T35 262T142 242Q191 242 229 253T296 282T345 321T378 362Q379 362 382 361T385 359Q366 319 337 293T273 250T201 226T127 219Q62 219 13 241T-71 302T-122 391T-140 496Q-140 568 -109 642T-12 777T154 875T393 913Q529 913 629 865T796 740T894 565T927 368Q927 280 902 198T827 53T704 -49T533 -87Q501 -87 465 -79T391 -59Q341 -104 274 -127T123 -151Q76 -151 41 -143T-17 -122T-51 -92T-63 -57Q-63 -40 -52 -24T-20 6T34 27T109 35Q136 35 167 28T233 11T302 -12T374 -37Q401 -3 417 40T442 135Q438 135 435 135T428 136Q414 136 402 131T379 110Z"  />
<glyph unicode="&#x111;" horiz-adv-x="295" d="M198 270Q224 304 243 344T277 426Q264 428 251 431T223 439Q215 399 209 356T198 270ZM267 584Q257 566 248 537T230 469Q244 466 258 463T287 459Q304 524 304 567Q304 606 289 606Q279 606 267 584ZM70 -4Q88 -4 101 9T125 43T141 91T149 146Q148 158 148 171T148 198V220Q144 248 135 266T111 284Q93 284 79 266T55 219T40 156T35 90Q35 51 43 24T70 -4ZM145 417Q151 442 161 454T185 471Q197 511 212 543T247 596Q270 622 290 622Q304 622 311 608T319 569Q319 547 315 519T301 459Q326 462 343 487Q335 453 322 440T291 426Q275 381 252 338T197 257Q191 197 191 142Q191 79 201 38T234 -3Q255 -3 270 17T294 65T309 120T315 160H322Q320 139 315 108T298 48T269 -1T224 -22Q196 -22 179 12T154 100Q149 76 141 54T121 15T96 -12T66 -22Q45 -22 30 -13T5 11T-9 46T-14 90Q-14 124 -5 160T20 226T59 275T109 295Q136 295 150 263Q153 308 159 353T177 441Q158 436 145 417Z"  />
<glyph unicode="&#x112;" horiz-adv-x="634" d="M270 812Q256 812 256 823Q256 829 257 832H409Q426 832 431 831T437 823Q437 816 436 812H270ZM302 474Q272 473 245 463Q264 445 286 438T327 431Q344 431 355 436T367 449Q367 459 359 464T340 471T318 473T302 474ZM507 656Q507 624 492 609T465 594Q453 594 453 605Q463 609 471 616Q478 622 483 632T489 659Q489 680 479 698T450 728T409 748T361 755Q333 755 305 745T255 713T220 656T206 570Q206 541 212 520T229 482Q248 487 267 489T309 492Q333 492 348 487T373 476T385 463T388 453Q388 433 368 423T317 413Q291 413 262 421T206 447Q173 430 149 403T108 344T83 275T75 201Q75 151 89 104T133 21T207 -38T311 -61Q366 -61 409 -41T484 10T531 81T548 157Q548 196 537 224T508 271T466 299T416 308Q385 308 354 296T295 262T248 205T220 128H216Q212 128 208 129T203 137Q212 183 234 217T288 275T356 310T429 322Q462 322 491 313T544 284T580 237T594 169Q594 127 574 84T517 5T426 -53T305 -76Q225 -76 168 -54T72 5T16 89T-2 188Q-2 230 10 272T45 351T103 418T182 467Q164 487 153 513T141 574Q141 623 160 659T211 720T280 756T357 768Q387 768 414 761T461 740T494 704T507 656Z"  />
<glyph unicode="&#x113;" horiz-adv-x="200" d="M16 385Q2 385 2 396Q2 402 3 405H155Q172 405 177 404T183 396Q183 389 182 385H16ZM115 290Q100 290 87 275T63 236T47 181T40 119Q61 129 78 147T107 186T125 228T132 264Q132 290 115 290ZM227 160Q225 125 217 91T195 30T160 -13T108 -30Q79 -30 58 -20T23 8T2 49T-6 98Q-26 99 -38 107T-50 123Q-50 129 -41 129Q-22 111 -6 110Q-6 144 3 178T29 239T67 284T116 301Q133 301 140 291T147 265Q147 247 139 225T116 180T82 138T40 108Q40 85 44 64T58 26T81 0T117 -10Q142 -10 160 5T191 44T211 98T220 160H227Z"  />
<glyph unicode="&#x114;" horiz-adv-x="634" d="M385 868Q385 845 369 830T336 814Q322 814 307 827T292 867Q292 871 295 871Q297 871 298 870T302 868Q304 866 306 865Q306 849 317 843T339 837Q348 837 358 843T370 864Q372 865 375 867Q377 868 379 869T383 870Q385 870 385 868ZM302 474Q272 473 245 463Q264 445 286 438T327 431Q344 431 355 436T367 449Q367 459 359 464T340 471T318 473T302 474ZM507 656Q507 624 492 609T465 594Q453 594 453 605Q463 609 471 616Q478 622 483 632T489 659Q489 680 479 698T450 728T409 748T361 755Q333 755 305 745T255 713T220 656T206 570Q206 541 212 520T229 482Q248 487 267 489T309 492Q333 492 348 487T373 476T385 463T388 453Q388 433 368 423T317 413Q291 413 262 421T206 447Q173 430 149 403T108 344T83 275T75 201Q75 151 89 104T133 21T207 -38T311 -61Q366 -61 409 -41T484 10T531 81T548 157Q548 196 537 224T508 271T466 299T416 308Q385 308 354 296T295 262T248 205T220 128H216Q212 128 208 129T203 137Q212 183 234 217T288 275T356 310T429 322Q462 322 491 313T544 284T580 237T594 169Q594 127 574 84T517 5T426 -53T305 -76Q225 -76 168 -54T72 5T16 89T-2 188Q-2 230 10 272T45 351T103 418T182 467Q164 487 153 513T141 574Q141 623 160 659T211 720T280 756T357 768Q387 768 414 761T461 740T494 704T507 656Z"  />
<glyph unicode="&#x115;" horiz-adv-x="200" d="M150 411Q150 388 134 373T101 357Q87 357 72 370T57 410Q57 414 60 414Q62 414 63 413T67 411Q69 409 71 408Q71 392 82 386T104 380Q113 380 123 386T135 407Q137 408 140 410Q142 411 144 412T148 413Q150 413 150 411ZM115 290Q100 290 87 275T63 236T47 181T40 119Q61 129 78 147T107 186T125 228T132 264Q132 290 115 290ZM227 160Q225 125 217 91T195 30T160 -13T108 -30Q79 -30 58 -20T23 8T2 49T-6 98Q-26 99 -38 107T-50 123Q-50 129 -41 129Q-22 111 -6 110Q-6 144 3 178T29 239T67 284T116 301Q133 301 140 291T147 265Q147 247 139 225T116 180T82 138T40 108Q40 85 44 64T58 26T81 0T117 -10Q142 -10 160 5T191 44T211 98T220 160H227Z"  />
<glyph unicode="&#x116;" horiz-adv-x="634" d="M357 877Q369 877 374 868T380 848Q380 833 371 819T345 805Q334 805 328 814T322 834Q322 849 331 863T357 877ZM302 474Q272 473 245 463Q264 445 286 438T327 431Q344 431 355 436T367 449Q367 459 359 464T340 471T318 473T302 474ZM507 656Q507 624 492 609T465 594Q453 594 453 605Q463 609 471 616Q478 622 483 632T489 659Q489 680 479 698T450 728T409 748T361 755Q333 755 305 745T255 713T220 656T206 570Q206 541 212 520T229 482Q248 487 267 489T309 492Q333 492 348 487T373 476T385 463T388 453Q388 433 368 423T317 413Q291 413 262 421T206 447Q173 430 149 403T108 344T83 275T75 201Q75 151 89 104T133 21T207 -38T311 -61Q366 -61 409 -41T484 10T531 81T548 157Q548 196 537 224T508 271T466 299T416 308Q385 308 354 296T295 262T248 205T220 128H216Q212 128 208 129T203 137Q212 183 234 217T288 275T356 310T429 322Q462 322 491 313T544 284T580 237T594 169Q594 127 574 84T517 5T426 -53T305 -76Q225 -76 168 -54T72 5T16 89T-2 188Q-2 230 10 272T45 351T103 418T182 467Q164 487 153 513T141 574Q141 623 160 659T211 720T280 756T357 768Q387 768 414 761T461 740T494 704T507 656Z"  />
<glyph unicode="&#x117;" horiz-adv-x="200" d="M108 453Q120 453 125 444T131 424Q131 409 122 395T96 381Q85 381 79 390T73 410Q73 425 82 439T108 453ZM115 290Q100 290 87 275T63 236T47 181T40 119Q61 129 78 147T107 186T125 228T132 264Q132 290 115 290ZM227 160Q225 125 217 91T195 30T160 -13T108 -30Q79 -30 58 -20T23 8T2 49T-6 98Q-26 99 -38 107T-50 123Q-50 129 -41 129Q-22 111 -6 110Q-6 144 3 178T29 239T67 284T116 301Q133 301 140 291T147 265Q147 247 139 225T116 180T82 138T40 108Q40 85 44 64T58 26T81 0T117 -10Q142 -10 160 5T191 44T211 98T220 160H227Z"  />
<glyph unicode="&#x118;" horiz-adv-x="634" d="M302 474Q272 473 245 463Q264 445 286 438T327 431Q344 431 355 436T367 449Q367 459 359 464T340 471T318 473T302 474ZM507 656Q507 624 492 609T465 594Q453 594 453 605Q463 609 471 616Q478 622 483 632T489 659Q489 680 479 698T450 728T409 748T361 755Q333 755 305 745T255 713T220 656T206 570Q206 541 212 520T229 482Q248 487 267 489T309 492Q333 492 348 487T373 476T385 463T388 453Q388 433 368 423T317 413Q291 413 262 421T206 447Q173 430 149 403T108 344T83 275T75 201Q75 151 89 104T133 21T207 -38T311 -61Q366 -61 409 -41T484 10T531 81T548 157Q548 196 537 224T508 271T466 299T416 308Q385 308 354 296T295 262T248 205T220 128H216Q212 128 208 129T203 137Q212 183 234 217T288 275T356 310T429 322Q462 322 491 313T544 284T580 237T594 169Q594 136 582 103T547 38T490 -18T413 -58Q378 -78 362 -99T345 -135Q345 -157 371 -157Q384 -157 402 -150T446 -127L453 -133Q434 -151 406 -165T349 -179Q331 -179 319 -171T307 -143Q307 -124 323 -106T368 -70Q338 -76 305 -76Q225 -76 168 -54T72 5T16 89T-2 188Q-2 230 10 272T45 351T103 418T182 467Q164 487 153 513T141 574Q141 623 160 659T211 720T280 756T357 768Q387 768 414 761T461 740T494 704T507 656Z"  />
<glyph unicode="&#x119;" horiz-adv-x="200" d="M115 290Q100 290 87 275T63 236T47 181T40 119Q61 129 78 147T107 186T125 228T132 264Q132 290 115 290ZM227 160Q225 131 220 103T204 51T180 8T147 -21Q108 -41 90 -63T71 -102Q71 -124 97 -124Q110 -124 128 -117T172 -94L179 -100Q160 -118 132 -132T75 -146Q57 -146 45 -138T33 -110Q33 -90 53 -70T106 -30Q77 -30 57 -20T23 8T2 49T-6 98Q-26 99 -38 107T-50 123Q-50 129 -41 129Q-22 111 -6 110Q-6 144 3 178T29 239T67 284T116 301Q133 301 140 291T147 265Q147 247 139 225T116 180T82 138T40 108Q40 85 44 64T58 26T81 0T117 -10Q142 -10 160 5T191 44T211 98T220 160H227Z"  />
<glyph unicode="&#x11A;" horiz-adv-x="634" d="M251 904V907Q251 911 254 911Q280 900 300 881T334 845Q341 854 352 863T377 880T402 894T423 905Q426 905 428 901Q429 899 429 898Q398 882 380 859T358 812Q339 801 330 801Q322 801 317 807T306 826Q298 845 284 867T251 904ZM302 474Q272 473 245 463Q264 445 286 438T327 431Q344 431 355 436T367 449Q367 459 359 464T340 471T318 473T302 474ZM507 656Q507 624 492 609T465 594Q453 594 453 605Q463 609 471 616Q478 622 483 632T489 659Q489 680 479 698T450 728T409 748T361 755Q333 755 305 745T255 713T220 656T206 570Q206 541 212 520T229 482Q248 487 267 489T309 492Q333 492 348 487T373 476T385 463T388 453Q388 433 368 423T317 413Q291 413 262 421T206 447Q173 430 149 403T108 344T83 275T75 201Q75 151 89 104T133 21T207 -38T311 -61Q366 -61 409 -41T484 10T531 81T548 157Q548 196 537 224T508 271T466 299T416 308Q385 308 354 296T295 262T248 205T220 128H216Q212 128 208 129T203 137Q212 183 234 217T288 275T356 310T429 322Q462 322 491 313T544 284T580 237T594 169Q594 127 574 84T517 5T426 -53T305 -76Q225 -76 168 -54T72 5T16 89T-2 188Q-2 230 10 272T45 351T103 418T182 467Q164 487 153 513T141 574Q141 623 160 659T211 720T280 756T357 768Q387 768 414 761T461 740T494 704T507 656Z"  />
<glyph unicode="&#x11B;" horiz-adv-x="200" d="M11 463V466Q11 470 14 470Q40 459 60 440T94 404Q101 413 112 422T137 439T162 453T183 464Q186 464 188 460Q189 458 189 457Q158 441 140 418T118 371Q99 360 90 360Q82 360 77 366T66 385Q58 404 44 426T11 463ZM115 290Q100 290 87 275T63 236T47 181T40 119Q61 129 78 147T107 186T125 228T132 264Q132 290 115 290ZM227 160Q225 125 217 91T195 30T160 -13T108 -30Q79 -30 58 -20T23 8T2 49T-6 98Q-26 99 -38 107T-50 123Q-50 129 -41 129Q-22 111 -6 110Q-6 144 3 178T29 239T67 284T116 301Q133 301 140 291T147 265Q147 247 139 225T116 180T82 138T40 108Q40 85 44 64T58 26T81 0T117 -10Q142 -10 160 5T191 44T211 98T220 160H227Z"  />
<glyph unicode="&#x11C;" horiz-adv-x="697" d="M510 826V822Q510 819 507 819Q481 830 461 849T427 885Q419 876 408 867T384 850T359 836T338 825Q334 825 333 828Q332 830 332 832Q363 848 381 871T403 918Q422 929 431 929Q439 929 444 923T455 904Q463 885 477 863T510 826ZM579 321Q585 343 590 364T598 408Q593 405 589 403T579 398V321ZM597 542Q593 542 590 531T585 501T581 461T579 416Q584 419 589 422T600 429Q602 447 603 464T605 499Q605 503 605 510T604 524T602 536T597 542ZM546 -197Q546 -149 545 -105T541 -18Q487 -80 455 -164T422 -352Q422 -364 424 -380T431 -410T447 -434T472 -444Q499 -444 513 -417T535 -350T544 -269T546 -197ZM212 -42Q267 -42 315 -24T403 27T475 102T531 194V242Q531 279 532 314T538 382Q508 373 473 368T398 363Q375 363 353 366T312 376T283 392T272 413Q272 417 274 417Q276 417 279 414Q291 402 307 395T341 384T376 379T409 378Q482 378 539 398Q543 435 549 466T564 519T581 554T601 567Q615 567 618 552T621 522Q621 502 620 482T616 440Q654 469 672 507T691 583Q691 617 677 648T632 704T557 744T451 759Q380 759 321 736T214 674T129 583T68 472T31 352T18 232Q18 176 30 126T66 39T126 -20T212 -42ZM690 92Q639 70 595 33Q597 4 598 -24T599 -81Q599 -114 597 -155T589 -239T573 -322T548 -393T512 -444T463 -463Q440 -463 425 -451T401 -420T389 -380T385 -340Q385 -294 396 -248T428 -158T476 -74T540 1Q538 43 536 82T532 161Q506 113 473 72T400 1T310 -46T204 -63Q137 -63 88 -41T8 21T-39 112T-55 223Q-55 284 -39 348T7 474T81 591T182 687T308 753T457 777Q519 777 566 761T646 717T694 654T711 581Q711 536 687 493T613 417Q604 347 581 276Q583 209 587 154T594 49Q638 83 686 105Q688 106 691 106Q694 106 694 103Q694 101 693 98T690 92Z"  />
<glyph unicode="&#x11D;" horiz-adv-x="263" d="M220 359V355Q220 352 217 352Q191 363 171 382T137 418Q129 409 118 400T94 383T69 369T48 358Q44 358 43 361Q42 363 42 365Q73 381 91 404T113 451Q132 462 141 462Q149 462 154 456T165 437Q173 418 187 396T220 359ZM73 -4Q88 -4 100 6T122 32T138 71T149 117Q149 143 150 163Q151 180 151 195T152 214Q148 244 139 264T114 284Q96 284 82 266T58 219T43 156T38 90Q38 51 46 24T73 -4ZM67 -445Q80 -445 94 -431T120 -383T139 -296T148 -164V-96Q124 -121 102 -149T62 -211T34 -281T23 -361Q23 -399 36 -422T67 -445ZM290 160Q288 126 281 93T260 34Q250 14 233 -6T192 -49Q193 -63 193 -78T193 -111Q193 -203 180 -269T147 -379T103 -443T58 -464Q34 -464 18 -440T2 -367Q2 -320 15 -280T49 -204T96 -138T148 -80Q148 -42 148 -6T149 69Q136 30 116 4T69 -22Q48 -22 33 -13T8 11T-6 46T-11 90Q-11 124 -2 160T23 226T62 275T112 295Q141 295 155 258L158 284Q160 295 168 300T187 306Q196 306 208 300Q202 291 199 270T193 223T189 172T188 130Q188 108 188 89T189 50T191 10T192 -35Q211 -15 226 3T251 38Q265 64 273 95T283 160H290Z"  />
<glyph unicode="&#x11E;" horiz-adv-x="697" d="M473 882Q473 859 457 844T424 828Q410 828 395 841T380 881Q380 885 383 885Q385 885 386 884T390 882Q392 880 394 879Q394 863 405 857T427 851Q436 851 446 857T458 878Q460 879 463 881Q465 882 467 883T471 884Q473 884 473 882ZM579 321Q585 343 590 364T598 408Q593 405 589 403T579 398V321ZM597 542Q593 542 590 531T585 501T581 461T579 416Q584 419 589 422T600 429Q602 447 603 464T605 499Q605 503 605 510T604 524T602 536T597 542ZM546 -197Q546 -149 545 -105T541 -18Q487 -80 455 -164T422 -352Q422 -364 424 -380T431 -410T447 -434T472 -444Q499 -444 513 -417T535 -350T544 -269T546 -197ZM212 -42Q267 -42 315 -24T403 27T475 102T531 194V242Q531 279 532 314T538 382Q508 373 473 368T398 363Q375 363 353 366T312 376T283 392T272 413Q272 417 274 417Q276 417 279 414Q291 402 307 395T341 384T376 379T409 378Q482 378 539 398Q543 435 549 466T564 519T581 554T601 567Q615 567 618 552T621 522Q621 502 620 482T616 440Q654 469 672 507T691 583Q691 617 677 648T632 704T557 744T451 759Q380 759 321 736T214 674T129 583T68 472T31 352T18 232Q18 176 30 126T66 39T126 -20T212 -42ZM690 92Q639 70 595 33Q597 4 598 -24T599 -81Q599 -114 597 -155T589 -239T573 -322T548 -393T512 -444T463 -463Q440 -463 425 -451T401 -420T389 -380T385 -340Q385 -294 396 -248T428 -158T476 -74T540 1Q538 43 536 82T532 161Q506 113 473 72T400 1T310 -46T204 -63Q137 -63 88 -41T8 21T-39 112T-55 223Q-55 284 -39 348T7 474T81 591T182 687T308 753T457 777Q519 777 566 761T646 717T694 654T711 581Q711 536 687 493T613 417Q604 347 581 276Q583 209 587 154T594 49Q638 83 686 105Q688 106 691 106Q694 106 694 103Q694 101 693 98T690 92Z"  />
<glyph unicode="&#x11F;" horiz-adv-x="263" d="M150 411Q150 388 134 373T101 357Q87 357 72 370T57 410Q57 414 60 414Q62 414 63 413T67 411Q69 409 71 408Q71 392 82 386T104 380Q113 380 123 386T135 407Q137 408 140 410Q142 411 144 412T148 413Q150 413 150 411ZM73 -4Q88 -4 100 6T122 32T138 71T149 117Q149 143 150 163Q151 180 151 195T152 214Q148 244 139 264T114 284Q96 284 82 266T58 219T43 156T38 90Q38 51 46 24T73 -4ZM67 -445Q80 -445 94 -431T120 -383T139 -296T148 -164V-96Q124 -121 102 -149T62 -211T34 -281T23 -361Q23 -399 36 -422T67 -445ZM290 160Q288 126 281 93T260 34Q250 14 233 -6T192 -49Q193 -63 193 -78T193 -111Q193 -203 180 -269T147 -379T103 -443T58 -464Q34 -464 18 -440T2 -367Q2 -320 15 -280T49 -204T96 -138T148 -80Q148 -42 148 -6T149 69Q136 30 116 4T69 -22Q48 -22 33 -13T8 11T-6 46T-11 90Q-11 124 -2 160T23 226T62 275T112 295Q141 295 155 258L158 284Q160 295 168 300T187 306Q196 306 208 300Q202 291 199 270T193 223T189 172T188 130Q188 108 188 89T189 50T191 10T192 -35Q211 -15 226 3T251 38Q265 64 273 95T283 160H290Z"  />
<glyph unicode="&#x120;" horiz-adv-x="697" d="M432 896Q444 896 449 887T455 867Q455 852 446 838T420 824Q409 824 403 833T397 853Q397 868 406 882T432 896ZM579 321Q585 343 590 364T598 408Q593 405 589 403T579 398V321ZM597 542Q593 542 590 531T585 501T581 461T579 416Q584 419 589 422T600 429Q602 447 603 464T605 499Q605 503 605 510T604 524T602 536T597 542ZM546 -197Q546 -149 545 -105T541 -18Q487 -80 455 -164T422 -352Q422 -364 424 -380T431 -410T447 -434T472 -444Q499 -444 513 -417T535 -350T544 -269T546 -197ZM212 -42Q267 -42 315 -24T403 27T475 102T531 194V242Q531 279 532 314T538 382Q508 373 473 368T398 363Q375 363 353 366T312 376T283 392T272 413Q272 417 274 417Q276 417 279 414Q291 402 307 395T341 384T376 379T409 378Q482 378 539 398Q543 435 549 466T564 519T581 554T601 567Q615 567 618 552T621 522Q621 502 620 482T616 440Q654 469 672 507T691 583Q691 617 677 648T632 704T557 744T451 759Q380 759 321 736T214 674T129 583T68 472T31 352T18 232Q18 176 30 126T66 39T126 -20T212 -42ZM690 92Q639 70 595 33Q597 4 598 -24T599 -81Q599 -114 597 -155T589 -239T573 -322T548 -393T512 -444T463 -463Q440 -463 425 -451T401 -420T389 -380T385 -340Q385 -294 396 -248T428 -158T476 -74T540 1Q538 43 536 82T532 161Q506 113 473 72T400 1T310 -46T204 -63Q137 -63 88 -41T8 21T-39 112T-55 223Q-55 284 -39 348T7 474T81 591T182 687T308 753T457 777Q519 777 566 761T646 717T694 654T711 581Q711 536 687 493T613 417Q604 347 581 276Q583 209 587 154T594 49Q638 83 686 105Q688 106 691 106Q694 106 694 103Q694 101 693 98T690 92Z"  />
<glyph unicode="&#x121;" horiz-adv-x="263" d="M137 467Q149 467 154 458T160 438Q160 423 151 409T125 395Q114 395 108 404T102 424Q102 439 111 453T137 467ZM73 -4Q88 -4 100 6T122 32T138 71T149 117Q149 143 150 163Q151 180 151 195T152 214Q148 244 139 264T114 284Q96 284 82 266T58 219T43 156T38 90Q38 51 46 24T73 -4ZM67 -445Q80 -445 94 -431T120 -383T139 -296T148 -164V-96Q124 -121 102 -149T62 -211T34 -281T23 -361Q23 -399 36 -422T67 -445ZM290 160Q288 126 281 93T260 34Q250 14 233 -6T192 -49Q193 -63 193 -78T193 -111Q193 -203 180 -269T147 -379T103 -443T58 -464Q34 -464 18 -440T2 -367Q2 -320 15 -280T49 -204T96 -138T148 -80Q148 -42 148 -6T149 69Q136 30 116 4T69 -22Q48 -22 33 -13T8 11T-6 46T-11 90Q-11 124 -2 160T23 226T62 275T112 295Q141 295 155 258L158 284Q160 295 168 300T187 306Q196 306 208 300Q202 291 199 270T193 223T189 172T188 130Q188 108 188 89T189 50T191 10T192 -35Q211 -15 226 3T251 38Q265 64 273 95T283 160H290Z"  />
<glyph unicode="&#x122;" horiz-adv-x="697" d="M275 -136Q287 -136 292 -145T298 -167Q298 -193 289 -214T267 -251T239 -276T211 -285L214 -279Q230 -274 241 -265T258 -246T267 -225T271 -207Q269 -207 267 -207T263 -208Q252 -208 246 -199T240 -179Q240 -164 249 -150T275 -136ZM579 321Q585 343 590 364T598 408Q593 405 589 403T579 398V321ZM597 542Q593 542 590 531T585 501T581 461T579 416Q584 419 589 422T600 429Q602 447 603 464T605 499Q605 503 605 510T604 524T602 536T597 542ZM546 -197Q546 -149 545 -105T541 -18Q487 -80 455 -164T422 -352Q422 -364 424 -380T431 -410T447 -434T472 -444Q499 -444 513 -417T535 -350T544 -269T546 -197ZM212 -42Q267 -42 315 -24T403 27T475 102T531 194V242Q531 279 532 314T538 382Q508 373 473 368T398 363Q375 363 353 366T312 376T283 392T272 413Q272 417 274 417Q276 417 279 414Q291 402 307 395T341 384T376 379T409 378Q482 378 539 398Q543 435 549 466T564 519T581 554T601 567Q615 567 618 552T621 522Q621 502 620 482T616 440Q654 469 672 507T691 583Q691 617 677 648T632 704T557 744T451 759Q380 759 321 736T214 674T129 583T68 472T31 352T18 232Q18 176 30 126T66 39T126 -20T212 -42ZM690 92Q639 70 595 33Q597 4 598 -24T599 -81Q599 -114 597 -155T589 -239T573 -322T548 -393T512 -444T463 -463Q440 -463 425 -451T401 -420T389 -380T385 -340Q385 -294 396 -248T428 -158T476 -74T540 1Q538 43 536 82T532 161Q506 113 473 72T400 1T310 -46T204 -63Q137 -63 88 -41T8 21T-39 112T-55 223Q-55 284 -39 348T7 474T81 591T182 687T308 753T457 777Q519 777 566 761T646 717T694 654T711 581Q711 536 687 493T613 417Q604 347 581 276Q583 209 587 154T594 49Q638 83 686 105Q688 106 691 106Q694 106 694 103Q694 101 693 98T690 92Z"  />
<glyph unicode="&#x123;" horiz-adv-x="263" d="M111 392Q99 392 94 401T88 423Q88 448 97 470T119 507T147 532T175 541L172 535Q155 530 145 521T128 502T119 481T115 463Q117 463 119 463T123 464Q134 464 140 455T146 435Q146 420 137 406T111 392ZM73 -4Q88 -4 100 6T122 32T138 71T149 117Q149 143 150 163Q151 180 151 195T152 214Q148 244 139 264T114 284Q96 284 82 266T58 219T43 156T38 90Q38 51 46 24T73 -4ZM67 -445Q80 -445 94 -431T120 -383T139 -296T148 -164V-96Q124 -121 102 -149T62 -211T34 -281T23 -361Q23 -399 36 -422T67 -445ZM290 160Q288 126 281 93T260 34Q250 14 233 -6T192 -49Q193 -63 193 -78T193 -111Q193 -203 180 -269T147 -379T103 -443T58 -464Q34 -464 18 -440T2 -367Q2 -320 15 -280T49 -204T96 -138T148 -80Q148 -42 148 -6T149 69Q136 30 116 4T69 -22Q48 -22 33 -13T8 11T-6 46T-11 90Q-11 124 -2 160T23 226T62 275T112 295Q141 295 155 258L158 284Q160 295 168 300T187 306Q196 306 208 300Q202 291 199 270T193 223T189 172T188 130Q188 108 188 89T189 50T191 10T192 -35Q211 -15 226 3T251 38Q265 64 273 95T283 160H290Z"  />
<glyph unicode="&#x124;" horiz-adv-x="1085" d="M896 874V870Q896 867 893 867Q867 878 847 897T813 933Q805 924 794 915T770 898T745 884T724 873Q720 873 719 876Q718 878 718 880Q749 896 767 919T789 966Q808 977 817 977Q825 977 830 971T841 952Q849 933 863 911T896 874ZM1042 746Q1014 746 991 719T949 647T919 542T899 419Q939 440 973 466T1031 526T1068 601T1082 694Q1082 722 1070 734T1042 746ZM231 -102Q315 -102 375 -71T474 13T532 133T557 274V278Q467 256 383 233T233 180T128 107T88 5Q88 -24 100 -44T132 -78T178 -96T231 -102ZM607 757Q632 757 650 760Q655 765 659 769T668 778Q696 802 721 802Q730 802 732 798T735 792Q735 789 730 782T697 763L681 756Q668 734 661 703T651 641T646 581T643 534Q639 477 637 427T630 329Q681 341 731 355T827 387Q836 459 855 527T901 649T964 735T1042 767Q1068 767 1086 748T1104 693Q1104 639 1089 595T1046 514T980 448T897 394Q895 365 894 336T892 277Q892 218 897 166T914 73T943 10T984 -14Q1019 -14 1041 4T1077 49T1097 106T1105 160H1112Q1111 142 1106 109T1086 42T1044 -17T971 -42Q931 -42 902 -18T855 49T828 146T819 264Q819 287 820 311T824 361Q777 342 728 327T626 297Q625 287 624 278T621 259Q607 176 576 108T496 -11T382 -88T236 -116Q202 -116 172 -110T118 -88T82 -49T68 12Q68 62 87 100T140 166T220 216T321 255T436 285T559 313Q563 374 565 427T572 526Q578 594 592 648T635 742Q610 735 582 731T523 726Q467 726 413 741T304 774T196 807T88 822Q31 822 -14 802T-91 749T-139 675T-156 591Q-156 552 -142 516T-96 452T-18 406T95 389Q134 389 174 401T251 436T318 488T365 555Q366 555 368 556Q372 558 373 558Q376 558 376 556Q376 554 373 548Q356 506 324 473T250 418T164 383T75 371Q12 371 -35 389T-114 438T-162 508T-178 590Q-178 639 -157 687T-92 773T16 836T170 860Q217 860 274 844T391 809T506 773T607 757Z"  />
<glyph unicode="&#x125;" horiz-adv-x="276" d="M192 646V642Q192 639 189 639Q163 650 143 669T109 705Q101 696 90 687T66 670T41 656T20 645Q16 645 15 648Q14 650 14 652Q45 668 63 691T85 738Q104 749 113 749Q121 749 126 743T137 724Q145 705 159 683T192 646ZM144 566Q144 606 122 606Q109 606 98 589Q87 571 79 539T64 468T55 385T49 299Q71 332 88 369T118 442T137 510T144 566ZM167 299Q196 299 207 281T218 239Q218 210 213 181T203 125T192 74T187 33Q187 16 193 7T215 -3Q236 -3 251 17T275 65T290 120T296 160H303Q301 139 296 108T279 48T250 -1T205 -22Q182 -22 163 -2T144 59Q144 77 148 103T157 156T166 209T170 253Q170 283 154 283Q141 283 127 267T98 224T71 164T50 95V-8Q42 -11 34 -11Q24 -11 17 -6T9 10Q9 72 9 129T11 239Q0 227 -12 216T-38 197L-44 203Q-29 211 -16 223T11 249Q13 318 18 376T31 479T53 556T87 605Q107 622 124 622Q141 622 150 608T159 570Q159 544 152 509T130 436T95 358T49 283Q47 257 47 233T47 188Q47 168 47 153T48 127Q55 149 66 178T92 235T125 280T167 299Z"  />
<glyph unicode="&#x128;" horiz-adv-x="668" d="M717 924Q707 895 694 884T665 873Q653 873 641 877T617 886T592 895T569 899Q557 899 548 892T531 867L525 876Q539 906 553 917T582 928Q593 928 604 924T626 915T649 905T671 901Q692 901 710 923L717 924ZM342 558Q342 599 359 629T406 683T472 722T547 749T623 767T690 779Q713 804 732 817T765 831Q786 831 786 818Q786 812 782 806T770 795Q759 788 742 783T702 773Q681 744 668 709T646 637T633 564T625 495Q624 479 622 451T618 389T613 323T606 264Q594 182 562 118T479 10T363 -58T219 -82Q157 -82 111 -64T34 -15T-12 56T-27 138Q-27 186 -8 234T50 320T144 381T276 405Q306 405 335 399T389 381T434 355T466 324Q466 321 464 321H462Q461 321 461 322Q456 326 441 336T402 357T346 376T273 385Q212 385 163 361T80 299T27 214T8 119Q8 81 20 47T59 -13T127 -55T225 -71Q260 -71 297 -64T370 -38T436 13T491 97T528 220T542 389Q542 448 554 503T587 608T631 698T681 769Q650 763 615 756T546 739T480 714T424 676T385 624T370 553Q370 524 379 496T405 444T446 406T500 388L501 387Q501 386 501 386T502 384Q502 379 492 379Q459 385 432 402T384 444T353 497T342 558Z"  />
<glyph unicode="&#x129;" horiz-adv-x="143" d="M141 437Q131 408 118 397T89 386Q77 386 65 390T41 399T16 408T-7 412Q-19 412 -28 405T-45 380L-51 389Q-37 419 -23 430T6 441Q17 441 28 437T50 428T73 418T95 414Q116 414 134 436L141 437ZM55 294Q50 249 47 205T43 122Q43 68 51 33T82 -3Q103 -3 118 17T142 65T157 120T163 160H170Q168 139 163 108T146 48T117 -1T72 -22Q52 -22 39 -9T17 29T5 84T1 152Q1 180 3 209T8 269Q8 286 19 293T42 301Q55 301 55 294Z"  />
<glyph unicode="&#x12A;" horiz-adv-x="668" d="M559 876Q545 876 545 887Q545 893 546 896H698Q715 896 720 895T726 887Q726 880 725 876H559ZM342 558Q342 599 359 629T406 683T472 722T547 749T623 767T690 779Q713 804 732 817T765 831Q786 831 786 818Q786 812 782 806T770 795Q759 788 742 783T702 773Q681 744 668 709T646 637T633 564T625 495Q624 479 622 451T618 389T613 323T606 264Q594 182 562 118T479 10T363 -58T219 -82Q157 -82 111 -64T34 -15T-12 56T-27 138Q-27 186 -8 234T50 320T144 381T276 405Q306 405 335 399T389 381T434 355T466 324Q466 321 464 321H462Q461 321 461 322Q456 326 441 336T402 357T346 376T273 385Q212 385 163 361T80 299T27 214T8 119Q8 81 20 47T59 -13T127 -55T225 -71Q260 -71 297 -64T370 -38T436 13T491 97T528 220T542 389Q542 448 554 503T587 608T631 698T681 769Q650 763 615 756T546 739T480 714T424 676T385 624T370 553Q370 524 379 496T405 444T446 406T500 388L501 387Q501 386 501 386T502 384Q502 379 492 379Q459 385 432 402T384 444T353 497T342 558Z"  />
<glyph unicode="&#x12B;" horiz-adv-x="143" d="M-34 385Q-48 385 -48 396Q-48 402 -47 405H105Q122 405 127 404T133 396Q133 389 132 385H-34ZM55 294Q50 249 47 205T43 122Q43 68 51 33T82 -3Q103 -3 118 17T142 65T157 120T163 160H170Q168 139 163 108T146 48T117 -1T72 -22Q52 -22 39 -9T17 29T5 84T1 152Q1 180 3 209T8 269Q8 286 19 293T42 301Q55 301 55 294Z"  />
<glyph unicode="&#x12C;" horiz-adv-x="668" d="M703 917Q703 894 687 879T654 863Q640 863 625 876T610 916Q610 920 613 920Q615 920 616 919T620 917Q622 915 624 914Q624 898 635 892T657 886Q666 886 676 892T688 913Q690 914 693 916Q695 917 697 918T701 919Q703 919 703 917ZM342 558Q342 599 359 629T406 683T472 722T547 749T623 767T690 779Q713 804 732 817T765 831Q786 831 786 818Q786 812 782 806T770 795Q759 788 742 783T702 773Q681 744 668 709T646 637T633 564T625 495Q624 479 622 451T618 389T613 323T606 264Q594 182 562 118T479 10T363 -58T219 -82Q157 -82 111 -64T34 -15T-12 56T-27 138Q-27 186 -8 234T50 320T144 381T276 405Q306 405 335 399T389 381T434 355T466 324Q466 321 464 321H462Q461 321 461 322Q456 326 441 336T402 357T346 376T273 385Q212 385 163 361T80 299T27 214T8 119Q8 81 20 47T59 -13T127 -55T225 -71Q260 -71 297 -64T370 -38T436 13T491 97T528 220T542 389Q542 448 554 503T587 608T631 698T681 769Q650 763 615 756T546 739T480 714T424 676T385 624T370 553Q370 524 379 496T405 444T446 406T500 388L501 387Q501 386 501 386T502 384Q502 379 492 379Q459 385 432 402T384 444T353 497T342 558Z"  />
<glyph unicode="&#x12D;" horiz-adv-x="143" d="M85 411Q85 388 69 373T36 357Q22 357 7 370T-8 410Q-8 414 -5 414Q-3 414 -2 413T2 411Q4 409 6 408Q6 392 17 386T39 380Q48 380 58 386T70 407Q72 408 75 410Q77 411 79 412T83 413Q85 413 85 411ZM55 294Q50 249 47 205T43 122Q43 68 51 33T82 -3Q103 -3 118 17T142 65T157 120T163 160H170Q168 139 163 108T146 48T117 -1T72 -22Q52 -22 39 -9T17 29T5 84T1 152Q1 180 3 209T8 269Q8 286 19 293T42 301Q55 301 55 294Z"  />
<glyph unicode="&#x12E;" horiz-adv-x="668" d="M342 558Q342 599 359 629T406 683T472 722T547 749T623 767T690 779Q713 804 732 817T765 831Q786 831 786 818Q786 812 782 806T770 795Q759 788 742 783T702 773Q681 744 668 709T646 637T633 564T625 495Q624 479 622 451T618 389T613 323T606 264Q587 137 521 54T351 -62Q314 -82 297 -103T280 -141Q280 -163 306 -163Q319 -163 337 -156T381 -133L388 -139Q369 -157 341 -171T284 -185Q266 -185 254 -177T242 -149Q242 -129 260 -110T307 -74Q286 -78 264 -80T219 -82Q157 -82 111 -64T34 -15T-12 56T-27 138Q-27 186 -8 234T50 320T144 381T276 405Q306 405 335 399T389 381T434 355T466 324Q466 321 464 321H462Q461 321 461 322Q456 326 441 336T402 357T346 376T273 385Q212 385 163 361T80 299T27 214T8 119Q8 81 20 47T59 -13T127 -55T225 -71Q260 -71 297 -64T370 -38T436 13T491 97T528 220T542 389Q542 448 554 503T587 608T631 698T681 769Q650 763 615 756T546 739T480 714T424 676T385 624T370 553Q370 524 379 496T405 444T446 406T500 388L501 387Q501 386 501 386T502 384Q502 379 492 379Q459 385 432 402T384 444T353 497T342 558Z"  />
<glyph unicode="&#x12F;" horiz-adv-x="143" d="M60 502Q72 502 77 493T83 473Q83 458 74 444T48 430Q37 430 31 439T25 459Q25 474 34 488T60 502ZM55 294Q50 249 47 205T43 122Q43 68 51 33T82 -3Q103 -3 118 17T142 65T157 120T163 160H170Q168 141 164 114T150 59T127 10T91 -19Q59 -38 44 -58T29 -92Q29 -114 55 -114Q68 -114 86 -107T130 -84L137 -90Q118 -108 90 -122T33 -136Q15 -136 3 -128T-9 -100Q-9 -80 10 -60T62 -21Q45 -18 34 -3T15 35T4 88T1 152Q1 180 2 209T8 269Q10 286 20 293T42 301Q55 301 55 294Z"  />
<glyph unicode="&#x130;" horiz-adv-x="668" d="M640 940Q652 940 657 931T663 911Q663 896 654 882T628 868Q617 868 611 877T605 897Q605 912 614 926T640 940ZM342 558Q342 599 359 629T406 683T472 722T547 749T623 767T690 779Q713 804 732 817T765 831Q786 831 786 818Q786 812 782 806T770 795Q759 788 742 783T702 773Q681 744 668 709T646 637T633 564T625 495Q624 479 622 451T618 389T613 323T606 264Q594 182 562 118T479 10T363 -58T219 -82Q157 -82 111 -64T34 -15T-12 56T-27 138Q-27 186 -8 234T50 320T144 381T276 405Q306 405 335 399T389 381T434 355T466 324Q466 321 464 321H462Q461 321 461 322Q456 326 441 336T402 357T346 376T273 385Q212 385 163 361T80 299T27 214T8 119Q8 81 20 47T59 -13T127 -55T225 -71Q260 -71 297 -64T370 -38T436 13T491 97T528 220T542 389Q542 448 554 503T587 608T631 698T681 769Q650 763 615 756T546 739T480 714T424 676T385 624T370 553Q370 524 379 496T405 444T446 406T500 388L501 387Q501 386 501 386T502 384Q502 379 492 379Q459 385 432 402T384 444T353 497T342 558Z"  />
<glyph unicode="&#x131;" horiz-adv-x="143" d="M55 294Q50 249 47 205T43 122Q43 68 51 33T82 -3Q103 -3 118 17T142 65T157 120T163 160H170Q168 139 163 108T146 48T117 -1T72 -22Q52 -22 39 -9T17 29T5 84T1 152Q1 180 3 209T8 269Q8 286 19 293T42 301Q55 301 55 294Z"  />
<glyph unicode="&#x134;" horiz-adv-x="458" d="M467 842V838Q467 835 464 835Q438 846 418 865T384 901Q376 892 365 883T341 866T316 852T295 841Q291 841 290 844Q289 846 289 848Q320 864 338 887T360 934Q379 945 388 945Q396 945 401 939T412 920Q420 901 434 879T467 842ZM542 791Q521 791 503 780T471 749Q521 757 538 766T556 784Q556 787 552 789T542 791ZM301 79Q303 122 306 168T314 265Q253 230 198 184T101 84T35 -33T10 -162Q10 -185 15 -210T31 -257T60 -293T105 -307Q145 -307 175 -286T226 -230T262 -154T284 -68T296 14T301 79ZM413 741Q422 742 430 742T446 745Q468 773 493 789T550 805Q561 805 568 801T576 789Q576 777 565 768T536 752T498 741T461 734Q441 701 428 653T405 549T389 431T379 307Q416 324 448 334T505 347Q507 347 509 346Q514 343 514 343Q514 342 509 341Q446 328 378 297Q374 240 373 187T370 89Q369 52 361 7T338 -83T302 -170T252 -246T190 -299T114 -319Q78 -319 53 -304T13 -266T-10 -213T-18 -153Q-18 -83 12 -19T89 99T196 199T315 276Q322 341 332 406T357 531T391 642T435 731Q316 719 236 698T108 644T40 563T19 451Q19 410 30 378T61 322T105 286T157 273Q187 273 217 289T274 340H278Q282 340 282 338Q282 337 282 337T281 335L280 334Q252 296 218 279T148 261Q114 261 82 276T24 317T-16 381T-31 462Q-31 532 0 580T90 661T230 711T413 741Z"  />
<glyph unicode="&#x135;" horiz-adv-x="129" d="M137 369V365Q137 362 134 362Q108 373 88 392T54 428Q46 419 35 410T11 393T-14 379T-35 368Q-39 368 -40 371Q-41 373 -41 375Q-10 391 8 414T30 461Q49 472 58 472Q66 472 71 466T82 447Q90 428 104 406T137 369ZM-78 -446Q-64 -446 -48 -426T-18 -366T5 -267T14 -128V-96Q-9 -122 -31 -150T-71 -211T-100 -281T-111 -361Q-111 -404 -102 -425T-78 -446ZM156 160Q154 126 147 93T126 34Q116 14 99 -6T58 -50Q59 -65 59 -80T59 -111Q59 -203 46 -269T13 -379T-31 -443T-76 -464Q-100 -464 -116 -440T-132 -367Q-132 -320 -119 -280T-85 -204T-38 -138T14 -80Q13 -38 13 3T12 85Q12 143 14 194T25 288Q29 307 48 307Q60 307 74 300Q68 291 65 272T59 230T55 184T54 142Q54 94 55 51T58 -35Q77 -15 92 2T117 38Q131 64 139 95T149 160H156Z"  />
<glyph unicode="&#x136;" horiz-adv-x="890" d="M647 60Q659 60 664 51T670 29Q670 3 661 -18T639 -55T611 -80T583 -89L586 -83Q602 -78 613 -69T630 -50T639 -29T643 -11Q641 -11 639 -11T635 -12Q624 -12 618 -3T612 17Q612 32 621 46T647 60ZM475 392Q475 372 507 362L510 425Q493 419 484 410T475 392ZM687 784Q687 795 677 795Q663 795 650 779T624 734Q659 745 673 759T687 784ZM585 431Q584 411 584 392T581 355Q629 358 664 379Q649 400 630 413T585 431ZM587 506Q587 492 587 479T586 451Q624 450 653 440T705 411Q734 441 754 481T793 565T831 651T878 726T943 779T1037 800Q1048 800 1051 798T1054 793Q1054 791 1052 789Q1051 788 1051 787Q1013 787 985 767T934 712T890 636T845 550T792 466T723 395Q758 357 777 302T808 187T830 66T859 -43T908 -122T994 -152Q1022 -152 1048 -139T1098 -104T1139 -53T1167 9Q1168 14 1173 14Q1175 14 1179 12Q1181 11 1182 11Q1156 -70 1103 -117T984 -164Q922 -164 882 -136T815 -62T771 41T740 157T711 270T673 364Q653 355 630 349T579 340Q577 311 574 284T565 231Q551 148 520 80T440 -39T326 -116T180 -144Q117 -144 70 -125T-9 -75T-55 -3T-71 82Q-71 130 -52 177T4 261T96 322T226 346Q279 346 331 326T416 265Q416 261 414 261Q413 261 411 263Q406 267 391 277T352 298T296 317T223 326Q162 326 113 302T30 240T-23 155T-42 60Q-42 22 -30 -12T9 -72T77 -114T175 -130Q259 -130 321 -98T423 -5T484 144T506 343Q480 349 468 361T455 388Q455 403 469 417T511 441L516 498Q521 546 533 593T565 682Q557 681 549 681T532 680Q495 680 459 689T387 709T316 730T246 739Q212 739 185 726T139 690T109 641T98 586Q98 563 105 543T129 507T171 482T232 472Q277 472 320 491T386 548H388Q389 548 390 548T393 549Q398 549 398 546L396 542Q370 498 325 478T231 457Q193 457 165 467T119 496T91 537T82 586Q82 618 96 650T137 709T203 751T295 768Q327 768 356 761T414 746T471 730T530 723Q566 723 589 727Q612 763 636 784T685 806Q693 806 696 800T700 785Q700 775 695 762T679 736T651 711T610 691Q599 653 593 606T587 506Z"  />
<glyph unicode="&#x137;" horiz-adv-x="276" d="M120 -54Q132 -54 137 -63T143 -85Q143 -111 134 -132T112 -169T84 -194T56 -203L59 -197Q75 -192 86 -183T103 -164T112 -143T116 -125Q114 -125 112 -125T108 -126Q97 -126 91 -117T85 -97Q85 -82 94 -68T120 -54ZM100 161Q113 161 125 167Q117 179 103 179Q87 179 87 169Q87 161 100 161ZM124 608Q105 608 92 579T69 503T55 402T47 296Q69 329 87 366T117 440T137 510T144 566Q144 586 140 597T124 608ZM51 -8Q42 -11 34 -11Q23 -11 16 -6T9 10Q9 72 9 129T11 238Q-13 212 -38 197L-44 203Q-29 211 -16 223T11 249Q14 334 20 403T41 520T77 595T132 621Q146 621 152 607T159 570Q159 544 151 509T129 434T94 356T47 281Q46 261 46 244T46 211Q46 191 46 177T48 152Q61 194 78 224T114 274T151 303T183 313Q198 313 207 303T217 273Q217 250 199 220T151 172Q167 155 172 124T177 50Q177 27 182 12T204 -3Q216 -3 230 3T262 35Q279 61 286 92T296 160H303Q301 125 294 90T270 28Q250 -6 226 -18T180 -30Q153 -30 143 -13T132 30Q132 47 134 69T136 113Q136 127 135 139T129 161Q114 155 97 155Q85 155 80 159T74 169Q74 176 82 182T106 188Q127 188 142 179Q158 194 168 214T178 252Q178 278 156 278Q145 278 130 268T100 237T72 183T50 102L51 -8Z"  />
<glyph unicode="&#x139;" horiz-adv-x="555" d="M590 929Q614 929 633 937T666 957T688 982T699 1007Q712 1000 717 993T722 979Q722 966 709 956T678 938T640 926T604 921Q596 921 588 923L590 929ZM113 -74Q187 -74 242 -50T335 16Q260 44 186 65T37 87Q-5 87 -31 64T-57 12Q-57 -4 -48 -19T-18 -47T34 -66T113 -74ZM525 562Q522 524 521 490T517 421Q585 445 634 483T715 564T762 653T777 738Q777 799 754 830T695 862Q657 862 630 848T585 809T556 754T539 690T530 623T525 562ZM693 877Q741 877 769 842T797 744Q797 701 781 652T731 557T644 470T516 404Q514 373 511 344T503 287Q492 217 466 158T401 51Q444 31 486 12T571 -23T656 -49T741 -59Q789 -59 821 -48T874 -18T903 24T912 72Q912 101 901 127T872 169Q870 171 869 171T867 174Q867 176 873 179Q898 156 909 130T921 75Q921 45 908 16T867 -35T801 -72T711 -86Q668 -86 625 -78T537 -56T448 -27T358 7Q307 -38 243 -63T101 -88Q54 -88 20 -79T-36 -54T-69 -20T-80 21Q-80 42 -69 62T-36 99T18 125T93 135Q167 135 236 114T371 63Q402 114 418 175T439 302Q441 324 441 344T443 385Q381 373 306 373Q224 373 163 394T62 451T3 530T-17 619Q-17 659 -2 696T44 763T120 809T224 827Q254 827 286 819T348 795T403 758T447 710Q448 709 448 707Q448 705 442 703Q439 702 437 702Q394 752 338 781T218 811Q167 811 128 796T63 755T23 696T10 626Q10 583 28 541T85 464T179 409T313 388Q349 388 381 391T444 401Q446 443 448 481T454 554Q460 612 475 670T518 774T590 848T693 877Z"  />
<glyph unicode="&#x13A;" horiz-adv-x="135" d="M39 681Q63 681 82 689T115 709T137 734T148 759Q161 752 166 745T171 731Q171 718 158 708T127 690T89 678T53 673Q45 673 37 675L39 681ZM144 567Q144 606 129 606Q119 606 107 584Q97 565 87 533T68 461T52 376T39 284Q63 318 82 357T115 434T136 508T144 567ZM-44 203Q-29 211 -11 226Q-10 280 -3 336T17 442T47 532T87 596Q112 622 130 622Q159 622 159 570Q159 543 151 506T127 428T89 346T38 269Q34 235 33 203T31 142Q31 79 41 38T74 -3Q95 -3 110 17T134 65T149 120T155 160H162Q160 139 155 108T138 48T109 -1T64 -22Q44 -22 30 -5T7 43T-7 113T-12 198V216Q-18 211 -24 207T-38 197L-44 203Z"  />
<glyph unicode="&#x13B;" horiz-adv-x="555" d="M437 -65Q449 -65 454 -74T460 -96Q460 -122 451 -143T429 -180T401 -205T373 -214L376 -208Q392 -203 403 -194T420 -175T429 -154T433 -136Q431 -136 429 -136T425 -137Q414 -137 408 -128T402 -108Q402 -93 411 -79T437 -65ZM113 -74Q187 -74 242 -50T335 16Q260 44 186 65T37 87Q-5 87 -31 64T-57 12Q-57 -4 -48 -19T-18 -47T34 -66T113 -74ZM525 562Q522 524 521 490T517 421Q585 445 634 483T715 564T762 653T777 738Q777 799 754 830T695 862Q657 862 630 848T585 809T556 754T539 690T530 623T525 562ZM693 877Q741 877 769 842T797 744Q797 701 781 652T731 557T644 470T516 404Q514 373 511 344T503 287Q492 217 466 158T401 51Q444 31 486 12T571 -23T656 -49T741 -59Q789 -59 821 -48T874 -18T903 24T912 72Q912 101 901 127T872 169Q870 171 869 171T867 174Q867 176 873 179Q898 156 909 130T921 75Q921 45 908 16T867 -35T801 -72T711 -86Q668 -86 625 -78T537 -56T448 -27T358 7Q307 -38 243 -63T101 -88Q54 -88 20 -79T-36 -54T-69 -20T-80 21Q-80 42 -69 62T-36 99T18 125T93 135Q167 135 236 114T371 63Q402 114 418 175T439 302Q441 324 441 344T443 385Q381 373 306 373Q224 373 163 394T62 451T3 530T-17 619Q-17 659 -2 696T44 763T120 809T224 827Q254 827 286 819T348 795T403 758T447 710Q448 709 448 707Q448 705 442 703Q439 702 437 702Q394 752 338 781T218 811Q167 811 128 796T63 755T23 696T10 626Q10 583 28 541T85 464T179 409T313 388Q349 388 381 391T444 401Q446 443 448 481T454 554Q460 612 475 670T518 774T590 848T693 877Z"  />
<glyph unicode="&#x13C;" horiz-adv-x="135" d="M82 -52Q94 -52 99 -61T105 -83Q105 -109 96 -130T74 -167T46 -192T18 -201L21 -195Q37 -190 48 -181T65 -162T74 -141T78 -123Q76 -123 74 -123T70 -124Q59 -124 53 -115T47 -95Q47 -80 56 -66T82 -52ZM144 567Q144 606 129 606Q119 606 107 584Q97 565 87 533T68 461T52 376T39 284Q63 318 82 357T115 434T136 508T144 567ZM-44 203Q-29 211 -11 226Q-10 280 -3 336T17 442T47 532T87 596Q112 622 130 622Q159 622 159 570Q159 543 151 506T127 428T89 346T38 269Q34 235 33 203T31 142Q31 79 41 38T74 -3Q95 -3 110 17T134 65T149 120T155 160H162Q160 139 155 108T138 48T109 -1T64 -22Q44 -22 30 -5T7 43T-7 113T-12 198V216Q-18 211 -24 207T-38 197L-44 203Z"  />
<glyph unicode="&#x13D;" horiz-adv-x="555" d="M904 807Q916 807 921 798T927 776Q927 750 918 729T896 692T868 667T840 658L843 664Q859 669 870 678T887 697T896 718T900 736Q898 736 896 736T892 735Q881 735 875 744T869 764Q869 779 878 793T904 807ZM113 -74Q187 -74 242 -50T335 16Q260 44 186 65T37 87Q-5 87 -31 64T-57 12Q-57 -4 -48 -19T-18 -47T34 -66T113 -74ZM525 562Q522 524 521 490T517 421Q585 445 634 483T715 564T762 653T777 738Q777 799 754 830T695 862Q657 862 630 848T585 809T556 754T539 690T530 623T525 562ZM693 877Q741 877 769 842T797 744Q797 701 781 652T731 557T644 470T516 404Q514 373 511 344T503 287Q492 217 466 158T401 51Q444 31 486 12T571 -23T656 -49T741 -59Q789 -59 821 -48T874 -18T903 24T912 72Q912 101 901 127T872 169Q870 171 869 171T867 174Q867 176 873 179Q898 156 909 130T921 75Q921 45 908 16T867 -35T801 -72T711 -86Q668 -86 625 -78T537 -56T448 -27T358 7Q307 -38 243 -63T101 -88Q54 -88 20 -79T-36 -54T-69 -20T-80 21Q-80 42 -69 62T-36 99T18 125T93 135Q167 135 236 114T371 63Q402 114 418 175T439 302Q441 324 441 344T443 385Q381 373 306 373Q224 373 163 394T62 451T3 530T-17 619Q-17 659 -2 696T44 763T120 809T224 827Q254 827 286 819T348 795T403 758T447 710Q448 709 448 707Q448 705 442 703Q439 702 437 702Q394 752 338 781T218 811Q167 811 128 796T63 755T23 696T10 626Q10 583 28 541T85 464T179 409T313 388Q349 388 381 391T444 401Q446 443 448 481T454 554Q460 612 475 670T518 774T590 848T693 877Z"  />
<glyph unicode="&#x13E;" horiz-adv-x="135" d="M253 654Q265 654 270 645T276 623Q276 597 267 576T245 539T217 514T189 505L192 511Q208 516 219 525T236 544T245 565T249 583Q247 583 245 583T241 582Q230 582 224 591T218 611Q218 626 227 640T253 654ZM144 567Q144 606 129 606Q119 606 107 584Q97 565 87 533T68 461T52 376T39 284Q63 318 82 357T115 434T136 508T144 567ZM-44 203Q-29 211 -11 226Q-10 280 -3 336T17 442T47 532T87 596Q112 622 130 622Q159 622 159 570Q159 543 151 506T127 428T89 346T38 269Q34 235 33 203T31 142Q31 79 41 38T74 -3Q95 -3 110 17T134 65T149 120T155 160H162Q160 139 155 108T138 48T109 -1T64 -22Q44 -22 30 -5T7 43T-7 113T-12 198V216Q-18 211 -24 207T-38 197L-44 203Z"  />
<glyph unicode="&#x141;" horiz-adv-x="555" d="M113 -74Q187 -74 242 -50T335 16Q260 44 186 65T37 87Q-5 87 -31 64T-57 12Q-57 -4 -48 -19T-18 -47T34 -66T113 -74ZM525 562Q522 524 521 490T517 421Q585 445 634 483T715 564T762 653T777 738Q777 799 754 830T695 862Q657 862 630 848T585 809T556 754T539 690T530 623T525 562ZM693 877Q741 877 769 842T797 744Q797 701 781 652T731 557T644 470T516 404Q511 345 504 293H511Q526 293 539 298T563 321Q554 285 540 273T506 260H498Q485 199 461 147T401 51Q444 31 486 12T571 -23T656 -49T741 -59Q789 -59 821 -48T874 -18T903 24T912 72Q912 101 901 127T872 169Q870 171 869 171T867 174Q867 176 873 179Q898 156 909 130T921 75Q921 45 908 16T867 -35T801 -72T711 -86Q668 -86 625 -78T537 -56T448 -27T358 7Q307 -38 243 -63T101 -88Q54 -88 20 -79T-36 -54T-69 -20T-80 21Q-80 42 -69 62T-36 99T18 125T93 135Q167 135 236 114T371 63Q398 108 414 161T436 274Q425 277 414 277Q400 277 388 272T365 251Q373 284 388 295T422 307Q426 307 430 307T439 305Q441 326 441 345T443 385Q381 373 306 373Q224 373 163 394T62 451T3 530T-17 619Q-17 659 -2 696T44 763T120 809T224 827Q254 827 286 819T348 795T403 758T447 710Q448 709 448 707Q448 705 442 703Q439 702 437 702Q394 752 338 781T218 811Q167 811 128 796T63 755T23 696T10 626Q10 583 28 541T85 464T179 409T313 388Q349 388 381 391T444 401Q446 443 448 481T454 554Q460 612 475 670T518 774T590 848T693 877Z"  />
<glyph unicode="&#x142;" horiz-adv-x="135" d="M144 567Q144 606 129 606Q119 606 107 584Q97 565 87 533T68 461T52 376T39 284Q63 318 82 357T115 434T136 508T144 567ZM-44 203Q-29 211 -11 226Q-10 280 -3 336T17 442T47 532T87 596Q112 622 130 622Q159 622 159 570Q159 543 151 506T127 428T89 346T38 269Q35 242 33 216T31 166Q36 165 40 165T50 164Q62 164 73 169T92 187Q85 158 73 149T46 139Q36 139 31 140Q31 77 41 37T74 -3Q95 -3 110 17T134 65T149 120T155 160H162Q160 139 155 108T138 48T109 -1T64 -22Q47 -22 34 -9T12 27T-3 81T-11 150Q-21 152 -27 152Q-38 152 -48 148T-66 131Q-59 157 -48 166T-21 175Q-15 175 -12 174V216Q-18 211 -24 207T-38 197L-44 203Z"  />
<glyph unicode="&#x143;" horiz-adv-x="997" d="M815 828Q839 828 858 836T891 856T913 881T924 906Q937 899 942 892T947 878Q947 865 934 855T903 837T865 825T829 820Q821 820 813 822L815 828ZM668 744Q668 715 675 681T697 606Q699 631 700 654T702 697Q702 742 697 768T681 794Q676 794 674 788T670 773T668 756T668 744ZM1189 745Q1124 745 1078 708T999 608T948 466T919 299T905 128T901 -29Q901 -42 899 -56T887 -71Q884 -71 884 -64Q884 -30 864 27T815 154T752 305T692 465Q679 403 659 340T611 216T544 104T457 12T349 -50T217 -73Q146 -73 94 -51T7 7T-45 89T-62 186Q-62 239 -43 291T15 384T109 450T241 475Q272 475 308 465T376 431T428 372T450 284Q450 277 443 277Q439 277 438 278Q437 278 436 279Q436 321 421 355T378 414T312 452T230 466Q171 466 127 443T52 383T7 297T-8 200Q-8 152 6 107T50 27T123 -30T227 -52Q296 -52 353 -28T457 37T540 132T604 247T651 373T681 499Q664 555 654 607T644 707Q644 749 656 777T686 806Q700 806 708 772T716 680Q716 656 715 628T709 571Q731 511 759 446T814 316T860 194T886 91L889 92Q894 168 901 248T921 404T955 547T1011 664T1095 744T1214 774Q1230 774 1244 770T1270 760T1288 746T1295 730Q1295 712 1264 699Q1259 711 1249 722Q1241 730 1227 737T1189 745Z"  />
<glyph unicode="&#x144;" horiz-adv-x="268" d="M69 383Q93 383 112 391T145 411T167 436T178 461Q191 454 196 447T201 433Q201 420 188 410T157 392T119 380T83 375Q75 375 67 377L69 383ZM136 283Q119 283 103 254T72 182T50 92T41 7V-8Q32 -11 24 -11Q13 -11 6 -6T-1 10Q3 54 6 96T9 182Q9 212 7 242T1 301Q10 305 21 305Q34 305 42 299T51 279Q51 268 50 249T47 206T44 158T41 112Q45 123 49 141T60 179T74 221T94 259T119 286T151 297Q180 297 190 280T200 239Q200 212 197 184T189 130T181 81T177 40Q177 20 183 9T207 -3Q228 -3 243 17T267 65T282 120T288 160H295Q293 139 288 108T271 48T242 -1T197 -22Q174 -22 155 -2T136 59Q136 77 138 103T144 156T149 209T152 253Q152 283 136 283Z"  />
<glyph unicode="&#x145;" horiz-adv-x="997" d="M713 71Q725 71 730 62T736 40Q736 14 727 -7T705 -44T677 -69T649 -78L652 -72Q668 -67 679 -58T696 -39T705 -18T709 0Q707 0 705 0T701 -1Q690 -1 684 8T678 28Q678 43 687 57T713 71ZM668 744Q668 715 675 681T697 606Q699 631 700 654T702 697Q702 742 697 768T681 794Q676 794 674 788T670 773T668 756T668 744ZM1189 745Q1124 745 1078 708T999 608T948 466T919 299T905 128T901 -29Q901 -42 899 -56T887 -71Q884 -71 884 -64Q884 -30 864 27T815 154T752 305T692 465Q679 403 659 340T611 216T544 104T457 12T349 -50T217 -73Q146 -73 94 -51T7 7T-45 89T-62 186Q-62 239 -43 291T15 384T109 450T241 475Q272 475 308 465T376 431T428 372T450 284Q450 277 443 277Q439 277 438 278Q437 278 436 279Q436 321 421 355T378 414T312 452T230 466Q171 466 127 443T52 383T7 297T-8 200Q-8 152 6 107T50 27T123 -30T227 -52Q296 -52 353 -28T457 37T540 132T604 247T651 373T681 499Q664 555 654 607T644 707Q644 749 656 777T686 806Q700 806 708 772T716 680Q716 656 715 628T709 571Q731 511 759 446T814 316T860 194T886 91L889 92Q894 168 901 248T921 404T955 547T1011 664T1095 744T1214 774Q1230 774 1244 770T1270 760T1288 746T1295 730Q1295 712 1264 699Q1259 711 1249 722Q1241 730 1227 737T1189 745Z"  />
<glyph unicode="&#x146;" horiz-adv-x="268" d="M108 -37Q120 -37 125 -46T131 -68Q131 -94 122 -115T100 -152T72 -177T44 -186L47 -180Q63 -175 74 -166T91 -147T100 -126T104 -108Q102 -108 100 -108T96 -109Q85 -109 79 -100T73 -80Q73 -65 82 -51T108 -37ZM136 283Q119 283 103 254T72 182T50 92T41 7V-8Q32 -11 24 -11Q13 -11 6 -6T-1 10Q3 54 6 96T9 182Q9 212 7 242T1 301Q10 305 21 305Q34 305 42 299T51 279Q51 268 50 249T47 206T44 158T41 112Q45 123 49 141T60 179T74 221T94 259T119 286T151 297Q180 297 190 280T200 239Q200 212 197 184T189 130T181 81T177 40Q177 20 183 9T207 -3Q228 -3 243 17T267 65T282 120T288 160H295Q293 139 288 108T271 48T242 -1T197 -22Q174 -22 155 -2T136 59Q136 77 138 103T144 156T149 209T152 253Q152 283 136 283Z"  />
<glyph unicode="&#x147;" horiz-adv-x="997" d="M815 899V902Q815 906 818 906Q844 895 864 876T898 840Q905 849 916 858T941 875T966 889T987 900Q990 900 992 896Q993 894 993 893Q962 877 944 854T922 807Q903 796 894 796Q886 796 881 802T870 821Q862 840 848 862T815 899ZM668 744Q668 715 675 681T697 606Q699 631 700 654T702 697Q702 742 697 768T681 794Q676 794 674 788T670 773T668 756T668 744ZM1189 745Q1124 745 1078 708T999 608T948 466T919 299T905 128T901 -29Q901 -42 899 -56T887 -71Q884 -71 884 -64Q884 -30 864 27T815 154T752 305T692 465Q679 403 659 340T611 216T544 104T457 12T349 -50T217 -73Q146 -73 94 -51T7 7T-45 89T-62 186Q-62 239 -43 291T15 384T109 450T241 475Q272 475 308 465T376 431T428 372T450 284Q450 277 443 277Q439 277 438 278Q437 278 436 279Q436 321 421 355T378 414T312 452T230 466Q171 466 127 443T52 383T7 297T-8 200Q-8 152 6 107T50 27T123 -30T227 -52Q296 -52 353 -28T457 37T540 132T604 247T651 373T681 499Q664 555 654 607T644 707Q644 749 656 777T686 806Q700 806 708 772T716 680Q716 656 715 628T709 571Q731 511 759 446T814 316T860 194T886 91L889 92Q894 168 901 248T921 404T955 547T1011 664T1095 744T1214 774Q1230 774 1244 770T1270 760T1288 746T1295 730Q1295 712 1264 699Q1259 711 1249 722Q1241 730 1227 737T1189 745Z"  />
<glyph unicode="&#x148;" horiz-adv-x="268" d="M28 463V466Q28 470 31 470Q57 459 77 440T111 404Q118 413 129 422T154 439T179 453T200 464Q203 464 205 460Q206 458 206 457Q175 441 157 418T135 371Q116 360 107 360Q99 360 94 366T83 385Q75 404 61 426T28 463ZM136 283Q119 283 103 254T72 182T50 92T41 7V-8Q32 -11 24 -11Q13 -11 6 -6T-1 10Q3 54 6 96T9 182Q9 212 7 242T1 301Q10 305 21 305Q34 305 42 299T51 279Q51 268 50 249T47 206T44 158T41 112Q45 123 49 141T60 179T74 221T94 259T119 286T151 297Q180 297 190 280T200 239Q200 212 197 184T189 130T181 81T177 40Q177 20 183 9T207 -3Q228 -3 243 17T267 65T282 120T288 160H295Q293 139 288 108T271 48T242 -1T197 -22Q174 -22 155 -2T136 59Q136 77 138 103T144 156T149 209T152 253Q152 283 136 283Z"  />
<glyph unicode="&#x14C;" horiz-adv-x="615" d="M256 809Q242 809 242 820Q242 826 243 829H395Q412 829 417 828T423 820Q423 813 422 809H256ZM108 190Q108 131 117 77T148 -25Q171 -45 199 -56T263 -68Q330 -68 382 -30T470 70T524 208T543 358Q543 415 532 466T497 557T438 619T353 642Q298 642 253 602T176 498T126 353T108 190ZM359 761Q400 761 433 746T491 705T528 647T542 580L540 578Q539 577 535 577Q530 577 530 585Q530 612 519 640T486 692T430 731T351 746Q280 746 225 702T131 587T73 430T52 258Q52 183 68 117T118 5Q91 91 91 191Q91 275 110 358T164 508T251 615T365 656Q419 656 459 632T525 565T565 469T578 354Q578 278 557 201T495 61T394 -40T253 -80Q230 -80 210 -77T170 -67Q202 -118 251 -149T371 -180Q418 -180 458 -163T527 -118T572 -52T589 27Q589 35 588 44Q587 52 586 61T582 79Q582 85 587 85Q593 85 595 81Q597 78 599 68T602 35Q602 -13 584 -55T535 -127T460 -175T364 -193Q286 -193 233 -156T146 -58Q104 -39 73 -7T21 69T-10 162T-20 267Q-20 354 5 442T78 601T197 716T359 761Z"  />
</font>
</defs>
</svg>
